<svg width="26" height="26" viewBox="0 0 26 26" fill="none" xmlns="http://www.w3.org/2000/svg">
<path fill-rule="evenodd" clip-rule="evenodd" d="M13 11.916C11.8034 11.916 10.8334 12.886 10.8334 14.0827C10.8334 15.2793 11.8034 16.2493 13 16.2493C14.1967 16.2493 15.1667 15.2793 15.1667 14.0827C15.1667 12.886 14.1967 11.916 13 11.916Z" fill="white"/>
<path fill-rule="evenodd" clip-rule="evenodd" d="M23.833 10.2962C23.833 10.3325 23.8329 10.3692 23.8329 10.4062V17.4049C23.833 18.3653 23.833 19.1927 23.744 19.8554C23.6485 20.5655 23.4332 21.2462 22.8811 21.7983C22.3289 22.3505 21.6481 22.5658 20.938 22.6612C20.2755 22.7504 19.4479 22.7503 18.4875 22.7503H7.51165C6.55129 22.7503 5.72381 22.7504 5.06118 22.6612C4.35103 22.5658 3.67032 22.3505 3.11818 21.7983C2.56605 21.2462 2.35074 20.5655 2.25527 19.8554C2.16617 19.1927 2.16623 18.3653 2.16628 17.4049V10.4062C2.16628 10.3692 2.16625 10.3325 2.16621 10.2962C2.16573 9.79663 2.16532 9.36597 2.25774 8.98464C2.54443 7.80187 3.46792 6.87838 4.6507 6.59169C5.03201 6.49927 5.46268 6.49968 5.96224 6.50016C5.99856 6.5002 6.03524 6.50023 6.07229 6.50023C6.44744 6.50023 6.52297 6.49741 6.58397 6.48826C6.8311 6.45122 7.05782 6.32988 7.22574 6.1448C7.26718 6.09912 7.31143 6.03784 7.51952 5.72571L7.76489 5.35764C7.78969 5.32044 7.81424 5.28352 7.83858 5.24689C8.19364 4.71276 8.50683 4.24165 8.95126 3.90619C9.22011 3.70326 9.51889 3.54337 9.83687 3.43223C10.3625 3.24851 10.9282 3.24926 11.5696 3.25012C11.6136 3.25018 11.658 3.25023 11.7026 3.25023H14.2966C14.3413 3.25023 14.3857 3.25018 14.4297 3.25012C15.071 3.24926 15.6367 3.24851 16.1624 3.43223C16.4803 3.54337 16.7791 3.70326 17.048 3.90619C17.4924 4.24165 17.8056 4.71277 18.1607 5.24689C18.1849 5.28352 18.2095 5.32045 18.2343 5.35764L18.4797 5.72571C18.6878 6.03784 18.732 6.09912 18.7735 6.1448C18.9414 6.32988 19.1682 6.45122 19.4153 6.48826C19.4763 6.49741 19.5518 6.50023 19.9269 6.50023C19.964 6.50023 20.0007 6.5002 20.037 6.50016C20.5365 6.49968 20.9673 6.49927 21.3485 6.59169C22.5313 6.87838 23.4548 7.80187 23.7415 8.98464C23.8339 9.36597 23.8334 9.79663 23.833 10.2962ZM8.66642 14.0836C8.66642 11.6904 10.6065 9.75027 12.9998 9.75027C15.393 9.75027 17.3331 11.6904 17.3331 14.0836C17.3331 16.4768 15.393 18.4169 12.9998 18.4169C10.6065 18.4169 8.66642 16.4768 8.66642 14.0836Z" fill="white"/>
</svg>
