<svg width="28" height="28" viewBox="0 0 28 28" fill="none" xmlns="http://www.w3.org/2000/svg">
<path d="M26.7485 19.408C26.2817 17.5043 24.9411 15.9521 23.1598 15.209C24.1545 11.4995 23.2433 7.30422 20.2428 4.30371C15.8374 -0.101668 8.70928 -0.100805 4.30375 4.30371C-0.101732 8.71026 -0.100767 15.8378 4.30375 20.2433C7.21291 23.1517 11.3327 24.1636 15.1161 23.1847C16.0312 25.4208 18.2312 27 20.7931 27C21.2108 27 21.6274 26.9579 22.0308 26.8745C24.8666 26.2932 26.9248 23.767 26.9248 20.8683C26.9248 20.3759 26.8649 19.8846 26.7485 19.408ZM2.52691 12.2732C2.52691 6.89904 6.89913 2.52687 12.2733 2.52687C18.6612 2.52687 23.351 8.6123 21.6868 14.8016C19.8242 14.5267 17.932 15.1306 16.5713 16.4224L13.9734 16.0977C12.8798 15.9555 12.2108 17.2709 12.9699 18.0712L14.7091 20.1005C14.6422 20.6349 14.6456 21.1757 14.7192 21.7092C8.55379 23.3087 2.52691 18.632 2.52691 12.2732ZM20.7931 25.4757C18.358 25.4757 16.3636 23.5779 16.1973 21.1949C16.1166 20.0485 16.4812 19.8266 16.0952 19.3754L14.6786 17.7221L16.7547 17.9812C16.9981 18.0117 17.242 17.9228 17.4091 17.7419C19.551 15.4223 23.3909 15.885 24.8807 18.7403V18.7408C26.4686 21.7809 24.2575 25.4757 20.7931 25.4757Z" fill="#212121"/>
<path d="M14.2252 7.16228C14.4131 7.16249 14.5943 7.09305 14.734 6.96738L15.8607 5.95643C16.1739 5.67536 16.2 5.19349 15.919 4.88017C15.6379 4.56685 15.156 4.5408 14.8427 4.82193L13.716 5.83288C13.1949 6.30032 13.531 7.16228 14.2252 7.16228ZM8.68577 5.95643L9.81245 6.96738C9.95206 7.09307 10.1333 7.16252 10.3212 7.16228C11.0155 7.16228 11.3514 6.30032 10.8304 5.83288L9.70373 4.82193C9.39041 4.5407 8.90855 4.5668 8.62747 4.88017C8.3464 5.19349 8.3725 5.6753 8.68577 5.95643Z" fill="#212121"/>
<path d="M8.28567 9.73978C8.81192 9.65407 9.16905 9.15799 9.08334 8.63174C8.99764 8.1055 8.50155 7.74837 7.97531 7.83408C7.44907 7.91978 7.09194 8.41586 7.17764 8.94211C7.26335 9.46835 7.75943 9.82548 8.28567 9.73978Z" fill="#212121"/>
<path d="M17.3115 9.15632C17.5157 8.6638 17.282 8.09898 16.7895 7.89477C16.297 7.69056 15.7322 7.92429 15.528 8.41681C15.3237 8.90933 15.5575 9.47414 16.05 9.67835C16.5425 9.88256 17.1073 9.64884 17.3115 9.15632Z" fill="#212121"/>
<path d="M15.9653 13.5237C15.9653 11.226 14.1912 9.72461 12.272 9.72461C10.3426 9.72461 8.5791 11.2365 8.5791 13.5237C8.5791 14.0998 9.04756 14.5683 9.62377 14.5683H14.9207C15.4964 14.5683 15.9653 14.0999 15.9653 13.5237ZM10.1354 13.044C10.3132 12.0253 11.2034 11.2489 12.272 11.2489C13.3405 11.2489 14.2312 12.0253 14.4085 13.044H10.1354ZM20.7917 22.4191C20.3708 22.4191 20.0296 22.7603 20.0296 23.1812C20.0296 23.6021 20.3708 23.9434 20.7917 23.9434C21.2126 23.9434 21.5539 23.6021 21.5539 23.1812C21.5538 22.7603 21.2126 22.4191 20.7917 22.4191ZM20.7918 17.8334C20.3706 17.8334 20.0297 18.1748 20.0297 18.5955C20.0297 20.2624 20.0124 20.2218 20.0815 20.3987C20.3844 21.1754 21.554 20.9653 21.554 20.1218V18.5954C21.5539 18.1748 21.2125 17.8334 20.7918 17.8334Z" fill="#212121"/>
</svg>
