<svg width="360" height="258" viewBox="0 0 360 258" fill="none" xmlns="http://www.w3.org/2000/svg">
<g clip-path="url(#clip0_1338_21821)">
<path d="M23.8604 257.667H336.121C336.28 257.667 336.431 257.604 336.543 257.491C336.655 257.379 336.718 257.227 336.718 257.069C336.718 256.91 336.655 256.758 336.543 256.646C336.431 256.534 336.28 256.471 336.121 256.471H23.8604C23.7021 256.471 23.5504 256.534 23.4384 256.646C23.3265 256.758 23.2637 256.91 23.2637 257.069C23.2637 257.227 23.3265 257.379 23.4384 257.491C23.5504 257.604 23.7021 257.667 23.8604 257.667Z" fill="#212121"/>
<path d="M282.626 211.758C278.007 211.758 273.308 211.655 268.531 211.448L268.582 210.256C304.233 211.802 335.689 207.529 359.554 197.896L360 199.003C339.181 207.405 312.646 211.758 282.626 211.758Z" fill="#35383F"/>
<path d="M254.636 213.548C250.017 213.548 245.318 213.444 240.541 213.238L240.592 212.046C276.243 213.592 307.698 209.319 331.564 199.686L332.009 200.793C311.191 209.195 284.656 213.548 254.636 213.548Z" fill="#35383F"/>
<path d="M260.055 176.793C237.263 176.793 212.495 173.401 187.893 166.877C157.47 158.81 129.575 146.634 107.225 131.664L107.886 130.673C130.13 145.57 157.901 157.691 188.198 165.724C215.577 172.984 243.162 176.348 267.959 175.461L268.002 176.652C265.383 176.747 262.734 176.794 260.055 176.793Z" fill="#35383F"/>
<path d="M312.342 169.291L311.961 168.161C332.345 161.258 345.095 150.138 348.832 136.001C353.581 118.031 343.262 97.177 319.776 77.2815C296.169 57.2849 262.128 40.6928 223.922 30.5622L224.227 29.4088C262.6 39.584 296.807 56.262 320.545 76.3707C344.402 96.5802 354.857 117.866 349.983 136.306C346.139 150.848 333.123 162.254 312.342 169.291Z" fill="#35383F"/>
<path d="M355.676 161.505C350.84 149.571 339.947 139.457 327.117 138.595C335.153 150.057 338.881 163.997 337.643 177.949C337.146 183.327 336.034 189.258 339.053 193.734C340.931 196.519 344.145 198.173 347.429 198.865C350.713 199.557 354.108 199.396 357.46 199.231L358.222 199.58C360.208 186.855 360.512 173.439 355.676 161.505Z" fill="#35383F"/>
<path d="M327.065 138.86C335.966 144.705 342.801 153.21 346.601 163.169C347.457 165.298 347.973 167.549 348.129 169.839C348.209 172.074 347.69 174.291 346.626 176.258C345.67 178.111 344.479 179.897 343.99 181.951C343.755 183.006 343.746 184.099 343.962 185.158C344.179 186.218 344.617 187.219 345.247 188.097C346.76 190.325 348.982 191.875 351.208 193.316C353.679 194.916 356.271 196.538 357.83 199.12C358.019 199.433 358.493 199.121 358.304 198.809C355.591 194.317 350.131 192.818 346.707 189.035C345.109 187.27 344.032 185.013 344.439 182.588C344.794 180.467 346.022 178.625 347.005 176.756C348.072 174.853 348.656 172.717 348.708 170.535C348.669 168.244 348.241 165.977 347.442 163.83C345.721 158.969 343.248 154.408 340.112 150.316C336.559 145.626 332.232 141.58 327.317 138.351C327.012 138.152 326.762 138.661 327.065 138.86V138.86Z" fill="#1F222A"/>
<path d="M347.234 175.382C343.69 174.374 340.655 172.066 338.735 168.918C338.545 168.606 338.071 168.917 338.261 169.229C340.265 172.502 343.429 174.897 347.119 175.937C347.471 176.036 347.584 175.48 347.234 175.382Z" fill="#1F222A"/>
<path d="M345.565 159.89C347.146 159.024 348.369 157.624 349.015 155.939C349.661 154.254 349.688 152.394 349.091 150.691C348.969 150.347 348.429 150.52 348.551 150.865C349.11 152.45 349.085 154.183 348.48 155.75C347.876 157.318 346.731 158.618 345.254 159.415C344.933 159.589 345.246 160.062 345.565 159.89Z" fill="#1F222A"/>
<path d="M336.19 146.282C335.647 146.745 334.999 147.065 334.302 147.215C333.606 147.364 332.883 147.338 332.199 147.139C331.849 147.035 331.736 147.592 332.084 147.694C332.841 147.911 333.639 147.939 334.409 147.775C335.179 147.612 335.897 147.262 336.501 146.757C336.561 146.714 336.604 146.649 336.619 146.576C336.634 146.503 336.621 146.427 336.582 146.364C336.54 146.301 336.476 146.257 336.403 146.242C336.329 146.227 336.253 146.241 336.19 146.282H336.19Z" fill="#1F222A"/>
<path d="M83.8545 112.875C65.5923 94.8681 57.8792 76.0826 62.1354 59.9793C67.5975 39.314 91.863 25.0257 128.71 20.7781L128.846 21.9635C92.512 26.1517 68.6167 40.1193 63.2869 60.2845C59.1447 75.9562 66.7458 94.3314 84.6902 112.025L83.8545 112.875Z" fill="#35383F"/>
<path d="M125.165 177.292C80.379 157.397 45.8683 131.586 27.9902 104.613L28.9824 103.953C46.7369 130.739 81.0664 156.397 125.647 176.201L125.165 177.292Z" fill="#35383F"/>
<path d="M232.065 178.583C209.272 178.583 184.505 175.19 159.903 168.667C129.48 160.6 101.585 148.423 79.2344 133.453L79.8962 132.462C102.139 147.359 129.91 159.48 160.208 167.513C187.587 174.774 215.171 178.138 239.969 177.25L240.012 178.442C237.393 178.536 234.744 178.583 232.065 178.583Z" fill="#35383F"/>
<path d="M284.352 171.081L283.97 169.951C304.355 163.047 317.105 151.927 320.841 137.791C325.591 119.82 315.272 98.9665 291.786 79.071C268.179 59.0745 234.138 42.4824 195.932 32.3517L196.236 31.1984C234.61 41.3736 268.816 58.0516 292.554 78.1603C316.412 98.3698 326.867 119.655 321.993 138.096C318.149 152.638 305.133 164.043 284.352 171.081Z" fill="#35383F"/>
<path d="M297.188 170.263C297.404 170.333 297.621 170.404 297.84 170.479C300.752 171.445 303.58 172.647 306.298 174.072C306.51 174.179 306.723 174.29 306.931 174.403C313.442 177.906 319.247 182.589 324.051 188.214C325.96 190.454 327.697 192.836 329.246 195.341C331.384 198.799 333.428 202.719 336.493 205.195C336.809 205.457 337.142 205.699 337.489 205.92L357.739 200.484C357.779 200.449 357.82 200.418 357.86 200.382L358.678 200.202C358.608 200.068 358.531 199.929 358.46 199.795C358.42 199.716 358.374 199.639 358.333 199.561C358.305 199.509 358.276 199.457 358.253 199.409C358.244 199.392 358.234 199.374 358.226 199.362C358.203 199.313 358.177 199.271 358.155 199.227C357.73 198.453 357.299 197.681 356.862 196.91C356.86 196.906 356.861 196.906 356.855 196.902C353.579 191 349.616 185.507 345.049 180.539C344.911 180.393 344.771 180.242 344.624 180.098C342.54 177.915 340.282 175.907 337.872 174.093C336.549 173.104 335.177 172.183 333.761 171.333C330.099 169.144 326.115 167.545 321.956 166.595C313.666 164.704 304.863 165.489 297.729 169.919C297.547 170.032 297.369 170.145 297.188 170.263Z" fill="#35383F"/>
<path d="M297.302 170.508C307.922 169.807 318.493 172.476 327.513 178.136C329.476 179.32 331.241 180.806 332.742 182.54C334.15 184.277 335.068 186.36 335.4 188.572C335.752 190.628 335.874 192.773 336.718 194.708C337.165 195.692 337.814 196.57 338.624 197.285C339.434 198 340.385 198.536 341.416 198.856C343.963 199.723 346.669 199.621 349.313 199.429C352.247 199.216 355.292 198.949 358.089 200.07C358.428 200.206 358.619 199.671 358.28 199.535C353.414 197.585 348.153 199.68 343.146 198.725C340.809 198.28 338.592 197.126 337.459 194.945C336.468 193.038 336.341 190.827 336.003 188.741C335.71 186.578 334.893 184.52 333.623 182.747C332.215 180.942 330.51 179.39 328.582 178.157C324.286 175.313 319.569 173.164 314.606 171.787C308.95 170.185 303.063 169.564 297.198 169.95C296.835 169.974 296.941 170.532 297.302 170.508V170.508Z" fill="#1F222A"/>
<path d="M335.359 187.506C331.924 188.839 328.114 188.826 324.687 187.47C324.348 187.335 324.157 187.87 324.496 188.004C328.064 189.409 332.03 189.414 335.601 188.019C335.942 187.886 335.698 187.373 335.359 187.506V187.506Z" fill="#1F222A"/>
<path d="M309.049 170.931C308.894 171.627 308.569 172.274 308.102 172.814C307.636 173.353 307.043 173.768 306.378 174.021C306.036 174.15 306.28 174.662 306.62 174.534C307.354 174.251 308.008 173.792 308.524 173.197C309.041 172.603 309.404 171.89 309.582 171.123C309.605 171.052 309.6 170.975 309.568 170.907C309.536 170.84 309.48 170.787 309.411 170.76C309.34 170.735 309.262 170.739 309.195 170.771C309.127 170.803 309.074 170.86 309.049 170.931V170.931Z" fill="#1F222A"/>
<path d="M324.715 176.142C325.458 174.497 325.592 172.642 325.095 170.907C324.598 169.172 323.501 167.671 322.001 166.671C321.696 166.47 321.37 166.934 321.675 167.135C323.073 168.064 324.095 169.462 324.555 171.079C325.014 172.696 324.882 174.423 324.181 175.951C324.03 176.283 324.564 176.472 324.715 176.142L324.715 176.142Z" fill="#1F222A"/>
<path d="M55.8642 114.664C37.6021 96.6577 29.889 77.8722 34.1452 61.7688C39.6073 41.1035 63.8727 26.8153 100.72 22.5676L100.856 23.753C64.5218 27.9412 40.6265 41.9088 35.2967 62.074C31.1545 77.7458 38.7556 96.1209 56.7 113.815L55.8642 114.664Z" fill="#35383F"/>
<path d="M97.1743 179.081C52.3887 159.186 17.8781 133.375 0 106.402L0.992172 105.742C18.7466 132.529 53.0762 158.187 97.6571 177.991L97.1743 179.081Z" fill="#35383F"/>
<path d="M20.3011 82.7114C28.8602 73.0996 42.5134 67.2414 54.8863 70.7482C43.4718 78.839 35.2825 90.7129 31.7671 104.269C30.4304 109.502 29.4875 115.462 25.1425 118.662C22.4389 120.652 18.8566 121.128 15.5318 120.675C12.2068 120.221 9.06293 118.926 5.96149 117.643L5.12695 117.715C7.52631 105.062 11.742 92.3233 20.3011 82.7114Z" fill="#35383F"/>
<path d="M54.8475 71.0158C44.5029 73.5245 35.2106 79.2341 28.2902 87.3337C26.7695 89.0508 25.5286 90.9973 24.613 93.1015C23.7873 95.1802 23.5324 97.4424 23.8748 99.653C24.1527 101.721 24.6759 103.803 24.4472 105.903C24.3142 106.976 23.9562 108.008 23.3968 108.933C22.8374 109.857 22.0892 110.653 21.2013 111.268C19.0285 112.857 16.4153 113.569 13.8356 114.177C10.9713 114.852 7.98556 115.507 5.65073 117.414C5.36783 117.645 5.02649 117.191 5.30896 116.961C9.37117 113.644 15.0167 114.07 19.5112 111.66C21.6084 110.536 23.38 108.772 23.8108 106.351C24.1874 104.234 23.6496 102.086 23.3502 99.9951C22.9847 97.8434 23.1507 95.6348 23.8338 93.5621C24.6394 91.418 25.8034 89.4269 27.276 87.674C30.5284 83.6746 34.3884 80.2122 38.7147 77.4138C43.6344 74.1926 49.0681 71.8381 54.7806 70.4521C55.1342 70.3664 55.1988 70.9308 54.8475 71.0158H54.8475Z" fill="#1F222A"/>
<path d="M23.5961 98.6232C27.2719 98.8678 30.9047 97.7157 33.77 95.3966C34.0537 95.1666 34.3951 95.6197 34.1118 95.8494C31.1255 98.2571 27.3426 99.4484 23.5181 99.1855C23.1536 99.1602 23.2336 98.5981 23.5961 98.6232Z" fill="#1F222A"/>
<path d="M72.4506 110.65C72.2225 110.644 71.9945 110.637 71.7635 110.634C68.6969 110.564 65.6296 110.743 62.5919 111.17C62.3566 111.2 62.1185 111.233 61.8844 111.269C54.577 112.376 47.5383 114.833 41.1262 118.513C38.576 119.98 36.1409 121.64 33.8421 123.477C30.6674 126.014 27.4268 129.018 23.7101 130.318C23.3238 130.458 22.9293 130.574 22.5288 130.665L5.28056 118.729C5.25495 118.683 5.22644 118.639 5.20064 118.593L4.49023 118.148C4.60218 118.044 4.72051 117.94 4.83248 117.837C4.89717 117.777 4.96573 117.72 5.03039 117.66C5.07473 117.62 5.1193 117.581 5.15707 117.543C5.17179 117.53 5.1867 117.517 5.19871 117.508C5.23651 117.47 5.2756 117.439 5.31065 117.405C5.97045 116.819 6.63552 116.237 7.30584 115.659C7.30856 115.655 7.30856 115.655 7.31512 115.654C12.3807 111.197 17.9563 107.358 23.925 104.217C24.1044 104.125 24.2863 104.03 24.4735 103.944C27.1681 102.59 29.9687 101.459 32.8473 100.562C34.4251 100.075 36.0264 99.6696 37.6452 99.3456C41.8295 98.5166 46.1179 98.352 50.3533 98.8578C58.7962 99.8673 66.8228 103.57 72.0557 110.144C72.1894 110.312 72.3195 110.478 72.4506 110.65Z" fill="#35383F"/>
<path d="M72.2589 110.842C62.4913 106.607 51.6398 105.562 41.2457 107.856C38.9993 108.31 36.8384 109.116 34.8426 110.244C32.9338 111.406 31.3705 113.058 30.315 115.03C29.294 116.848 28.4599 118.827 27.0153 120.365C26.2642 121.141 25.3577 121.75 24.3553 122.151C23.3529 122.552 22.2772 122.736 21.1987 122.691C18.5087 122.65 15.9939 121.643 13.5689 120.572C10.8763 119.384 8.09844 118.106 5.08814 118.221C4.7234 118.235 4.72328 117.667 5.08745 117.653C10.3248 117.454 14.5765 121.199 19.6133 121.985C21.9636 122.352 24.4386 122.012 26.2376 120.339C27.8107 118.876 28.6726 116.837 29.6906 114.986C30.6921 113.048 32.1522 111.385 33.9435 110.142C35.8756 108.916 38.0019 108.028 40.2313 107.516C45.2322 106.284 50.3955 105.847 55.5318 106.222C61.3963 106.617 67.1501 108.013 72.5443 110.352C72.8782 110.497 72.5905 110.986 72.2589 110.842H72.2589Z" fill="#1F222A"/>
<path d="M30.7117 114.039C33.4996 116.451 37.0927 117.722 40.7745 117.598C41.1393 117.586 41.1395 118.153 40.7752 118.166C36.9436 118.288 33.2071 116.957 30.3114 114.441C30.0356 114.201 30.4373 113.801 30.7117 114.039Z" fill="#1F222A"/>
<path d="M283.438 116.859C283.86 114.257 282.096 111.806 279.499 111.384C276.901 110.962 274.454 112.729 274.033 115.33C273.611 117.931 275.375 120.383 277.972 120.805C280.569 121.227 283.017 119.46 283.438 116.859Z" fill="#1F222A"/>
<path d="M61.0533 107.286C60.9656 107.994 61.0548 108.713 61.3129 109.378C61.571 110.042 61.99 110.633 62.5321 111.095C62.8109 111.332 62.4088 111.732 62.1319 111.497C61.5352 110.983 61.0733 110.331 60.7865 109.597C60.4997 108.863 60.3967 108.07 60.4866 107.287C60.4889 107.212 60.5194 107.141 60.572 107.088C60.6245 107.036 60.6952 107.005 60.7696 107.002C60.8447 107.003 60.9165 107.033 60.9697 107.086C61.0228 107.139 61.0528 107.211 61.0533 107.286H61.0533Z" fill="#1F222A"/>
<path d="M44.5489 106.92C44.4014 105.121 44.8972 103.328 45.9477 101.862C46.9981 100.395 48.5349 99.3502 50.2835 98.9137C50.6376 98.8265 50.7894 99.3736 50.4348 99.4609C48.8058 99.8643 47.3744 100.838 46.399 102.206C45.4236 103.573 44.9684 105.245 45.1157 106.92C45.1473 107.283 44.5803 107.282 44.5489 106.92Z" fill="#1F222A"/>
<path d="M43.7616 74.9343C44.1171 75.5525 44.6204 76.0726 45.2261 76.4478C45.8319 76.8231 46.5212 77.0418 47.2322 77.0842C47.5969 77.1049 47.5165 77.667 47.1542 77.6465C46.3689 77.5959 45.6079 77.3535 44.9377 76.9404C44.2675 76.5273 43.7085 75.9561 43.3096 75.2767C43.2666 75.2158 43.2484 75.1408 43.2586 75.067C43.2689 74.9931 43.3068 74.9259 43.3647 74.8791C43.4248 74.8341 43.5002 74.8146 43.5745 74.825C43.6489 74.8353 43.7161 74.8746 43.7617 74.9344L43.7616 74.9343Z" fill="#1F222A"/>
<path d="M30.3655 84.5942C29.1663 83.2468 28.4845 81.5163 28.4416 79.7118C28.3987 77.9073 28.9977 76.1463 30.1314 74.7432C30.3618 74.4601 30.8118 74.8054 30.5812 75.0889C29.523 76.3934 28.9652 78.0339 29.0086 79.7141C29.0519 81.3944 29.6935 83.0038 30.8176 84.2519C31.0615 84.5234 30.608 84.8641 30.3655 84.5942Z" fill="#1F222A"/>
<path d="M101.075 69.779C103.706 69.779 105.839 67.6426 105.839 65.0071C105.839 62.3717 103.706 60.2352 101.075 60.2352C98.4436 60.2352 96.3105 62.3717 96.3105 65.0071C96.3105 67.6426 98.4436 69.779 101.075 69.779Z" fill="#FD6584"/>
<path d="M256.642 21.8479C249.239 19.434 241.626 17.1864 234.012 15.1674C190.196 3.54934 147.126 -0.575681 109.454 3.24063L109.334 2.05348C147.146 -1.77533 190.364 2.35957 234.316 14.0141C241.952 16.0389 249.587 18.2929 257.01 20.7138L256.642 21.8479Z" fill="#35383F"/>
<path d="M228.652 23.6373C221.249 21.2234 213.635 18.9758 206.021 16.9569C162.206 5.33879 119.135 1.21377 81.4636 5.03005L81.3438 3.84291C119.156 0.0140953 162.374 4.14899 206.326 15.8035C213.962 17.8283 221.597 20.0823 229.02 22.5032L228.652 23.6373Z" fill="#35383F"/>
<path d="M243.036 67.4596H241.676V30.1467C241.676 24.4192 239.405 18.9263 235.361 14.8763C231.318 10.8263 225.834 8.55104 220.115 8.55103H141.19C138.359 8.55102 135.555 9.1096 132.939 10.1949C130.323 11.2802 127.946 12.8709 125.944 14.8762C123.942 16.8815 122.354 19.2622 121.27 21.8823C120.187 24.5024 119.629 27.3107 119.629 30.1466V234.848C119.629 240.576 121.901 246.069 125.944 250.119C129.987 254.169 135.472 256.444 141.19 256.444H220.115C225.834 256.444 231.318 254.169 235.361 250.119C239.405 246.069 241.676 240.576 241.676 234.848V94.0195H243.036V67.4596Z" fill="#1F222A"/>
<path d="M237.085 30.2965V234.698C237.086 236.816 236.67 238.912 235.861 240.869C235.052 242.825 233.867 244.603 232.372 246.1C230.877 247.598 229.103 248.786 227.15 249.596C225.197 250.407 223.103 250.824 220.989 250.824H141.678C137.409 250.825 133.313 249.126 130.294 246.102C127.275 243.078 125.578 238.977 125.578 234.7V30.2965C125.578 28.1789 125.994 26.082 126.803 24.1256C127.612 22.1691 128.798 20.3914 130.293 18.8939C131.788 17.3965 133.562 16.2086 135.516 15.3981C137.469 14.5876 139.562 14.1704 141.677 14.1703H151.303C150.829 15.3336 150.648 16.5958 150.776 17.8457C150.904 19.0956 151.337 20.2949 152.036 21.3378C152.736 22.3807 153.681 23.2352 154.788 23.8261C155.895 24.417 157.13 24.7261 158.384 24.7262H203.602C204.856 24.7253 206.091 24.4157 207.197 23.8245C208.304 23.2334 209.248 22.3789 209.948 21.3363C210.647 20.2936 211.08 19.0948 211.208 17.8452C211.337 16.5956 211.156 15.3336 210.683 14.1703H220.985C223.099 14.1702 225.193 14.5872 227.146 15.3975C229.1 16.2077 230.874 17.3954 232.369 18.8927C233.865 20.3901 235.05 22.1676 235.86 24.124C236.669 26.0804 237.085 28.1772 237.085 30.2949L237.085 30.2965Z" fill="#35383F"/>
<path d="M231.078 231.675H206.475V232.778H231.078V231.675Z" fill="#1F222A"/>
<path d="M193.634 231.675H169.031V232.778H193.634V231.675Z" fill="#1F222A"/>
<path d="M156.191 231.675H131.588V232.778H156.191V231.675Z" fill="#1F222A"/>
<path d="M235.73 249.16L228.247 249.159L224.688 220.252L235.731 220.252L235.73 249.16Z" fill="#FFB8B8"/>
<path d="M237.553 256.654H233.282L232.52 252.615L230.568 256.654H219.241C218.699 256.654 218.17 256.48 217.733 256.158C217.295 255.835 216.972 255.381 216.811 254.862C216.649 254.343 216.657 253.786 216.834 253.272C217.012 252.758 217.348 252.314 217.795 252.005L226.84 245.748V241.666L236.353 242.234L237.553 256.654Z" fill="#2F2E41"/>
<path d="M293.991 245.915L286.592 247.035L278.758 218.985L288.457 217.332L293.991 245.915Z" fill="#FFB8B8"/>
<path d="M295.182 256.654H290.911L290.149 252.615L288.197 256.654H276.87C276.327 256.654 275.799 256.48 275.361 256.158C274.924 255.835 274.601 255.381 274.44 254.862C274.278 254.343 274.286 253.786 274.463 253.272C274.64 252.758 274.977 252.314 275.424 252.005L284.468 245.748V241.666L293.982 242.234L295.182 256.654Z" fill="#2F2E41"/>
<path d="M219.902 194.434H139.702C139.157 194.434 138.633 194.216 138.247 193.83C137.861 193.443 137.645 192.919 137.645 192.373C137.645 191.826 137.861 191.302 138.247 190.915C138.633 190.529 139.157 190.312 139.702 190.312H219.902C220.448 190.312 220.971 190.529 221.357 190.915C221.743 191.302 221.96 191.826 221.96 192.373C221.96 192.919 221.743 193.443 221.357 193.83C220.971 194.216 220.448 194.434 219.902 194.434Z" fill="#212121"/>
<path d="M219.902 180.094H139.702C139.157 180.094 138.633 179.877 138.247 179.491C137.861 179.104 137.645 178.58 137.645 178.033C137.645 177.487 137.861 176.962 138.247 176.576C138.633 176.189 139.157 175.972 139.702 175.972H219.902C220.448 175.972 220.971 176.189 221.357 176.576C221.743 176.962 221.96 177.487 221.96 178.033C221.96 178.58 221.743 179.104 221.357 179.491C220.971 179.877 220.448 180.094 219.902 180.094Z" fill="#212121"/>
<path d="M219.902 165.755H139.702C139.432 165.755 139.164 165.702 138.915 165.598C138.665 165.494 138.438 165.343 138.247 165.151C138.056 164.96 137.905 164.733 137.801 164.483C137.698 164.233 137.645 163.965 137.645 163.694C137.645 163.423 137.698 163.155 137.801 162.905C137.905 162.655 138.056 162.428 138.247 162.236C138.438 162.045 138.665 161.893 138.915 161.79C139.164 161.686 139.432 161.633 139.702 161.633H219.902C220.172 161.633 220.44 161.686 220.689 161.79C220.939 161.893 221.166 162.045 221.357 162.236C221.548 162.428 221.7 162.655 221.803 162.905C221.906 163.155 221.96 163.423 221.96 163.694C221.96 163.965 221.906 164.233 221.803 164.483C221.7 164.733 221.548 164.96 221.357 165.151C221.166 165.343 220.939 165.494 220.689 165.598C220.44 165.702 220.172 165.755 219.902 165.755Z" fill="#212121"/>
<path d="M229.299 129.321L256.279 130.424L259.583 112.224L236.457 105.054L229.299 129.321Z" fill="#FFB8B8"/>
<path d="M257.381 124.909L231.502 120.497L230.581 122.397C225.628 132.635 222.704 143.738 221.97 155.091C221.345 164.674 220.977 174.797 220.965 185.408C220.946 201.848 221.784 217.102 223.108 230.983L237.312 230.894C236.901 216.157 237.46 201.408 238.984 186.744C240.071 176.288 241.582 166.521 243.33 157.508C246.573 170.739 251.149 183.606 256.988 195.911C261.952 206.424 272.162 218.577 277.125 229.091C282.211 228.479 287.297 227.868 292.383 227.257C288.375 216.64 281.225 201.136 277.216 190.519C271.486 175.339 268.897 165.046 263.166 149.866C263.493 147.013 263.557 144.135 263.357 141.27C263.09 136.494 262.098 130.763 259.199 126.942L257.381 124.909Z" fill="#2F2E41"/>
<path d="M121.747 90.9089H117.342V104.697H121.747V90.9089Z" fill="#1F222A"/>
<path d="M181.332 137.521C201.929 137.521 218.626 120.797 218.626 100.168C218.626 79.5379 201.929 62.8142 181.332 62.8142C160.736 62.8142 144.039 79.5379 144.039 100.168C144.039 120.797 160.736 137.521 181.332 137.521Z" fill="#1F222A"/>
<path d="M181.333 135.9C200.124 135.9 215.356 120.643 215.356 101.823C215.356 83.0024 200.124 67.7454 181.333 67.7454C162.543 67.7454 147.311 83.0024 147.311 101.823C147.311 120.643 162.543 135.9 181.333 135.9Z" fill="#E21221"/>
<path d="M178.363 115.179C178.29 115.179 178.216 115.177 178.141 115.174C177.489 115.142 176.851 114.969 176.271 114.668C175.691 114.366 175.184 113.942 174.783 113.425L169.421 106.521C168.683 105.569 168.353 104.364 168.502 103.169C168.651 101.974 169.267 100.887 170.215 100.146L170.407 99.9963C171.358 99.2578 172.561 98.9268 173.755 99.0759C174.948 99.225 176.034 99.842 176.774 100.792C177.014 101.102 177.319 101.356 177.667 101.538C178.015 101.719 178.398 101.822 178.79 101.841C179.182 101.864 179.575 101.8 179.939 101.654C180.304 101.507 180.632 101.282 180.899 100.994L191.787 89.4823C192.615 88.6091 193.755 88.1004 194.957 88.0678C196.158 88.0353 197.324 88.4814 198.198 89.3085L198.375 89.4761C199.247 90.3052 199.756 91.4471 199.788 92.6512C199.821 93.8552 199.375 95.0231 198.549 95.8985L181.654 113.761C181.231 114.209 180.721 114.566 180.155 114.81C179.589 115.054 178.979 115.179 178.363 115.179Z" fill="#1F222A"/>
<path opacity="0.16" d="M181.333 131.18C172.726 131.179 164.439 127.909 158.142 122.031C151.846 116.152 148.009 108.101 147.404 99.501C147.349 100.294 147.311 101.092 147.311 101.9C147.311 110.938 150.895 119.605 157.276 125.996C163.656 132.387 172.31 135.977 181.333 135.977C190.357 135.977 199.011 132.387 205.391 125.996C211.772 119.605 215.356 110.938 215.356 101.9C215.356 101.092 215.318 100.294 215.263 99.501C214.658 108.101 210.821 116.152 204.524 122.031C198.228 127.909 189.941 131.179 181.333 131.18Z" fill="#231F20"/>
<path d="M121.747 74.3635H117.342V88.1513H121.747V74.3635Z" fill="#1F222A"/>
<path d="M239.497 89.9017L239.758 81.3034L226.682 78.0198L203.139 71.1404C202.828 70.1937 202.236 69.364 201.444 68.7612C200.651 68.1583 199.695 67.8107 198.7 67.7643C197.706 67.7178 196.721 67.9748 195.876 68.5011C195.031 69.0274 194.365 69.7984 193.967 70.7119C193.569 71.6255 193.457 72.6385 193.646 73.6172C193.835 74.5958 194.317 75.4939 195.027 76.1926C195.736 76.8913 196.641 77.3577 197.621 77.5301C198.602 77.7025 199.611 77.5728 200.516 77.1581L223.404 86.5815L239.497 89.9017Z" fill="#FFB8B8"/>
<path d="M231.07 89.8414L238.426 79.3328L238.61 79.3572C238.725 79.3725 250.261 80.9183 257.824 83.174C258.674 83.3995 259.464 83.8081 260.14 84.3712C260.817 84.9342 261.362 85.6382 261.738 86.4341C262.279 87.5462 262.483 88.7922 262.327 90.0191C262.17 91.246 261.659 92.4004 260.857 93.3406C260.04 94.3569 258.948 95.1161 257.712 95.5274C256.476 95.9388 255.148 95.985 253.886 95.6604L231.07 89.8414Z" fill="#E21221"/>
<path d="M261.379 116.996C262.672 119.416 259.602 124.428 257.381 124.909L231.789 116.623L244.675 79.2224L251.158 80.4026L261.527 82.1524L265.205 85.5009C266.131 86.345 266.793 87.4404 267.11 88.6539C267.426 89.8674 267.384 91.1469 266.989 92.3369L261.379 116.996Z" fill="#E21221"/>
<path d="M243.761 102.542L236.521 97.9143L227.009 107.483L209.054 124.214C208.082 123.997 207.068 124.081 206.145 124.454C205.222 124.827 204.434 125.472 203.885 126.304C203.337 127.135 203.053 128.114 203.071 129.111C203.09 130.107 203.41 131.075 203.989 131.885C204.569 132.696 205.38 133.311 206.317 133.649C207.253 133.988 208.269 134.033 209.232 133.781C210.195 133.528 211.058 132.988 211.708 132.233C212.358 131.478 212.763 130.543 212.871 129.552L232.672 114.687L243.761 102.542Z" fill="#FFB8B8"/>
<path d="M239.395 109.76L234.15 98.0505L234.265 97.9051C234.337 97.8138 241.57 88.6805 247.377 83.3295C248.006 82.7138 248.761 82.2429 249.59 81.9495C250.419 81.6562 251.302 81.5475 252.178 81.6311C253.408 81.736 254.581 82.1983 255.553 82.9613C256.525 83.7243 257.253 84.7548 257.649 85.9264C258.102 87.1493 258.194 88.4772 257.914 89.7512C257.634 91.0253 256.993 92.1915 256.069 93.1106L239.395 109.76Z" fill="#E21221"/>
<path d="M255.708 76.7232C261.994 76.7232 267.09 71.6191 267.09 65.3229C267.09 59.0267 261.994 53.9226 255.708 53.9226C249.422 53.9226 244.326 59.0267 244.326 65.3229C244.326 71.6191 249.422 76.7232 255.708 76.7232Z" fill="#FFB8B8"/>
<path d="M264.901 81.8422L264.858 81.8312L248.317 77.6876C247.744 77.544 247.213 77.2679 246.765 76.8814C246.318 76.4949 245.967 76.0088 245.741 75.4621C245.515 74.9153 245.42 74.3231 245.464 73.733C245.508 73.1429 245.689 72.5712 245.993 72.0639L246.54 71.1535C247.073 70.2644 247.376 69.2557 247.42 68.2193C247.465 67.1829 247.249 66.1519 246.794 65.2204C246.01 63.699 244.662 62.546 243.04 62.0088L242.985 61.9824L242.638 61.7659C242.296 61.6045 241.992 61.3734 241.745 61.0875C241.498 60.8015 241.313 60.467 241.203 60.1054C241.088 59.7308 241.053 59.3361 241.1 58.9471C241.148 58.558 241.276 58.1832 241.477 57.8469C242.937 55.4005 245.122 53.4709 247.728 52.3266C251.021 50.9068 254.73 50.7953 258.101 52.0145C258.326 51.8078 258.598 51.6602 258.894 51.5849C259.19 51.5097 259.499 51.5092 259.795 51.5834C268.361 53.6612 269.066 59.4201 267.374 68.6644L269.377 76.7558C269.518 77.3271 269.534 77.9225 269.423 78.5005C269.311 79.0785 269.076 79.6253 268.732 80.1028C268.389 80.5804 267.945 80.9773 267.433 81.2659C266.921 81.5545 266.352 81.7279 265.766 81.7741L264.901 81.8422ZM258.01 52.1056L258.009 52.1066L258.01 52.1056ZM258.216 52.0549L258.218 52.0555L258.216 52.0549Z" fill="#2F2E41"/>
<path d="M121.747 47.8909H117.342V71.6059H121.747V47.8909Z" fill="#1F222A"/>
<path d="M231.078 33.682H206.475V34.785H231.078V33.682Z" fill="#1F222A"/>
<path d="M193.634 33.682H169.031V34.785H193.634V33.682Z" fill="#1F222A"/>
<path d="M156.191 33.682H131.588V34.785H156.191V33.682Z" fill="#1F222A"/>
<path d="M159.74 19.7638C160.956 19.7638 161.942 18.7761 161.942 17.5577C161.942 16.3394 160.956 15.3517 159.74 15.3517C158.523 15.3517 157.537 16.3394 157.537 17.5577C157.537 18.7761 158.523 19.7638 159.74 19.7638Z" fill="#1F222A"/>
<path d="M100.881 16.0787C103.513 16.0787 105.646 13.9422 105.646 11.3068C105.646 8.67136 103.513 6.53491 100.881 6.53491C98.2502 6.53491 96.1172 8.67136 96.1172 11.3068C96.1172 13.9422 98.2502 16.0787 100.881 16.0787Z" fill="#1F222A"/>
</g>
<defs>
<clipPath id="clip0_1338_21821">
<rect width="360" height="257" fill="white" transform="translate(0 0.666626)"/>
</clipPath>
</defs>
</svg>
