<svg width="28" height="28" viewBox="0 0 28 28" fill="none" xmlns="http://www.w3.org/2000/svg">
<path d="M10.7998 11.8273C10.9262 11.3214 11.3211 10.9265 11.827 10.8L16.7087 9.57957C17.7425 9.32108 18.6791 10.2576 18.4206 11.2916L17.2003 16.1732C17.0738 16.6791 16.6788 17.0741 16.1731 17.2004L11.2913 18.4209C10.2574 18.6794 9.32083 17.7428 9.57933 16.7089L10.7998 11.8273Z" stroke="#7D8088" stroke-width="1.7" stroke-linecap="round" stroke-linejoin="round"/>
<path d="M14 2C4.82353 2 2 4.82353 2 14C2 23.1765 4.82353 26 14 26C23.1765 26 26 23.1765 26 14C26 4.82353 23.1765 2 14 2Z" stroke="#7D8088" stroke-width="1.7" stroke-linecap="round" stroke-linejoin="round"/>
</svg>
