<svg width="226" height="220" viewBox="0 0 226 220" fill="none" xmlns="http://www.w3.org/2000/svg">
<g clip-path="url(#clip0_1336_19314)">
<path d="M143.339 49.4769H82.7117C81.3301 49.4786 80.0056 50.0291 79.0287 51.0077C78.0517 51.9862 77.5022 53.313 77.5005 54.697V189.671L76.8056 189.883L61.9327 194.446C61.2278 194.661 60.4665 194.587 59.8158 194.241C59.1651 193.894 58.6782 193.303 58.4621 192.598L14.2219 47.8447C14.0066 47.1386 14.0799 46.3758 14.4259 45.7239C14.7718 45.072 15.362 44.5844 16.0667 44.3682L38.9859 37.3384L105.429 16.9662L128.348 9.93648C128.697 9.82895 129.064 9.79138 129.427 9.82591C129.79 9.86044 130.143 9.96639 130.466 10.1377C130.788 10.309 131.074 10.5423 131.306 10.8243C131.538 11.1063 131.713 11.4313 131.819 11.7809L143.128 48.7809L143.339 49.4769Z" fill="#EEEEEE"/>
<path d="M156.569 48.7804L142.94 4.18696C142.713 3.44395 142.342 2.75298 141.849 2.15353C141.355 1.55408 140.749 1.05791 140.064 0.693358C139.379 0.328808 138.629 0.103023 137.857 0.0289159C137.085 -0.0451914 136.306 0.0338304 135.564 0.261458L103.341 10.1413L36.9011 30.5171L4.67813 40.4004C3.18122 40.8609 1.92784 41.8974 1.1931 43.2826C0.45836 44.6677 0.302292 46.2883 0.759157 47.7886L47.3409 200.191C47.712 201.402 48.4609 202.462 49.4776 203.215C50.4943 203.969 51.7253 204.376 52.99 204.377C53.5753 204.377 54.1574 204.289 54.7166 204.116L76.8054 197.344L77.5002 197.128V196.401L76.8054 196.613L54.5116 203.451C53.1903 203.855 51.7632 203.717 50.5434 203.068C49.3235 202.419 48.4104 201.311 48.0045 199.989L1.42634 47.5833C1.22522 46.9279 1.15512 46.2393 1.22006 45.5568C1.285 44.8743 1.4837 44.2113 1.80479 43.6059C2.12588 43.0004 2.56306 42.4643 3.09127 42.0284C3.61948 41.5924 4.22836 41.265 4.88304 41.0651L37.106 31.1818L103.546 10.8095L135.769 0.926155C136.266 0.774355 136.782 0.696955 137.301 0.69647C138.415 0.698976 139.499 1.0588 140.395 1.72323C141.29 2.38767 141.949 3.3218 142.276 4.38881L155.843 48.7804L156.058 49.4764H156.781L156.569 48.7804Z" fill="#35383F"/>
<path d="M43.1212 44.482C42.4516 44.4815 41.7998 44.2661 41.2614 43.8673C40.7229 43.4685 40.3262 42.9074 40.1295 42.2663L35.6546 27.6251C35.5344 27.2318 35.4927 26.8186 35.5318 26.4092C35.571 25.9998 35.6903 25.6021 35.883 25.2388C36.0756 24.8756 36.3378 24.5539 36.6546 24.2922C36.9714 24.0304 37.3365 23.8338 37.7291 23.7134L98.8534 4.96854C99.6463 4.72616 100.503 4.80883 101.235 5.19838C101.967 5.58794 102.515 6.25256 102.759 7.04638L107.233 21.6878C107.475 22.482 107.393 23.34 107.004 24.0733C106.615 24.8067 105.952 25.3556 105.159 25.5996L44.0347 44.3445C43.7387 44.4355 43.4308 44.4818 43.1212 44.482Z" fill="#E21221"/>
<path d="M66.5626 15.6448C70.4001 15.6448 73.5109 12.5287 73.5109 8.68472C73.5109 4.84076 70.4001 1.72461 66.5626 1.72461C62.7251 1.72461 59.6143 4.84076 59.6143 8.68472C59.6143 12.5287 62.7251 15.6448 66.5626 15.6448Z" fill="#E21221"/>
<path d="M66.563 13.0921C68.993 13.0921 70.9629 11.1188 70.9629 8.6847C70.9629 6.25059 68.993 4.27734 66.563 4.27734C64.133 4.27734 62.1631 6.25059 62.1631 8.6847C62.1631 11.1188 64.133 13.0921 66.563 13.0921Z" fill="white"/>
<path d="M209.866 202.6H92.4394C91.6565 202.599 90.9059 202.287 90.3522 201.732C89.7986 201.178 89.4872 200.426 89.4863 199.641V58.6993C89.4872 57.915 89.7986 57.1631 90.3522 56.6086C90.9058 56.054 91.6564 55.7421 92.4394 55.7412H209.866C210.649 55.7421 211.4 56.0541 211.954 56.6086C212.507 57.1631 212.819 57.915 212.819 58.6993V199.641C212.819 200.426 212.507 201.178 211.953 201.732C211.4 202.287 210.649 202.599 209.866 202.6Z" fill="#EEEEEE"/>
<path d="M155.843 48.7812H82.7118C81.146 48.7835 79.6451 49.4075 78.538 50.5165C77.4308 51.6255 76.8079 53.129 76.8057 54.6973V196.614L77.5005 196.402V54.6973C77.5022 53.3134 78.0518 51.9866 79.0287 51.008C80.0056 50.0295 81.3302 49.4789 82.7118 49.4773H156.059L155.843 48.7812ZM219.594 48.7812H82.7118C81.146 48.7835 79.6451 49.4075 78.538 50.5165C77.4308 51.6255 76.8079 53.129 76.8057 54.6973V214.084C76.8079 215.652 77.4308 217.156 78.538 218.265C79.6451 219.374 81.146 219.998 82.7118 220H219.594C221.16 219.998 222.661 219.374 223.768 218.265C224.875 217.156 225.498 215.652 225.5 214.084V54.6973C225.498 53.129 224.875 51.6255 223.768 50.5165C222.661 49.4075 221.16 48.7835 219.594 48.7812ZM224.805 214.084C224.804 215.468 224.254 216.795 223.277 217.773C222.3 218.752 220.976 219.302 219.594 219.304H82.7118C81.3302 219.302 80.0056 218.752 79.0287 217.773C78.0518 216.795 77.5022 215.468 77.5005 214.084V54.6973C77.5022 53.3134 78.0518 51.9866 79.0287 51.008C80.0056 50.0295 81.3302 49.4789 82.7118 49.4773H219.594C220.976 49.4789 222.3 50.0295 223.277 51.008C224.254 51.9866 224.804 53.3134 224.805 54.6973V214.084Z" fill="#35383F"/>
<path d="M183.115 64.0939H119.19C118.361 64.093 117.566 63.7627 116.98 63.1755C116.394 62.5884 116.064 61.7923 116.063 60.9619V45.6496C116.064 44.8192 116.394 44.0231 116.98 43.436C117.567 42.8488 118.361 42.5185 119.19 42.5176H183.115C183.944 42.5185 184.739 42.8488 185.325 43.436C185.911 44.0231 186.241 44.8192 186.242 45.6496V60.9619C186.241 61.7923 185.911 62.5884 185.325 63.1755C184.739 63.7627 183.944 64.093 183.115 64.0939Z" fill="#E21221"/>
<path d="M151.152 43.5608C154.99 43.5608 158.101 40.4447 158.101 36.6007C158.101 32.7568 154.99 29.6406 151.152 29.6406C147.315 29.6406 144.204 32.7568 144.204 36.6007C144.204 40.4447 147.315 43.5608 151.152 43.5608Z" fill="#E21221"/>
<path d="M151.153 40.84C153.49 40.84 155.385 38.942 155.385 36.6007C155.385 34.2594 153.49 32.3613 151.153 32.3613C148.816 32.3613 146.921 34.2594 146.921 36.6007C146.921 38.942 148.816 40.84 151.153 40.84Z" fill="white"/>
</g>
<defs>
<clipPath id="clip0_1336_19314">
<rect width="225" height="220" fill="white" transform="translate(0.5)"/>
</clipPath>
</defs>
</svg>
