<?xml version="1.0" encoding="UTF-8"?>
<svg version="1.1" xmlns="http://www.w3.org/2000/svg" width="512" height="512">
<path d="M0 0 C6.37813399 3.7927336 10.59107856 8.85939 12.48046875 16.08984375 C12.76078573 19.16227253 12.7641369 22.21761452 12.75512695 25.30126953 C12.76023788 26.20945938 12.76534882 27.11764923 12.77061462 28.05335999 C12.78448093 31.0473597 12.78355529 34.04112828 12.78125 37.03515625 C12.78514009 39.12775762 12.7894754 41.2203582 12.79423523 43.31295776 C12.80169223 47.69922442 12.80141103 52.0854106 12.79614258 56.47167969 C12.79036521 62.06650057 12.80723962 67.66098855 12.83048725 73.25575447 C12.8452935 77.57974138 12.84608666 81.90364954 12.84297752 86.22765732 C12.84348782 88.28873221 12.84867029 90.34981185 12.85878944 92.41086197 C12.9309125 109.16297373 12.29682143 123.41751969 0.375 136.37890625 C-9.8821571 146.07328128 -21.28527028 149.39526571 -35.11914062 149.38037109 C-36.03258743 149.38708832 -36.94603424 149.39380554 -37.88716125 149.40072632 C-40.87925793 149.41958298 -43.87112901 149.42362368 -46.86328125 149.42578125 C-48.95878183 149.43221573 -51.05428153 149.43894457 -53.14978027 149.44595337 C-57.53070153 149.45789381 -61.9115441 149.46163732 -66.29248047 149.46044922 C-71.89095319 149.46024575 -77.4889199 149.48759134 -83.08727264 149.52199364 C-87.41113583 149.5442829 -91.73487737 149.5482862 -96.05879211 149.54722977 C-98.12235769 149.54958098 -100.18592685 149.55837734 -102.24943542 149.5738945 C-105.13995442 149.59360362 -108.0293834 149.58769796 -110.91992188 149.57568359 C-111.76174515 149.58692261 -112.60356842 149.59816162 -113.47090149 149.60974121 C-120.16535483 149.53942833 -126.41930252 148.008209 -131.40976715 143.31049156 C-137.10223084 136.98014033 -138.03103409 132.0908263 -137.8984375 123.578125 C-137.2083133 117.22471353 -134.18000676 113.42459969 -129.58203125 109.21484375 C-123.75738468 105.17325225 -118.51831805 104.80203353 -111.66845703 104.86279297 C-110.79951309 104.86250092 -109.93056915 104.86220886 -109.03529358 104.86190796 C-106.17837351 104.86329537 -103.32171797 104.87882882 -100.46484375 104.89453125 C-98.47801862 104.89826347 -96.49119164 104.90110946 -94.50436401 104.90310669 C-89.28636555 104.91072666 -84.06847921 104.93036112 -78.8505249 104.95251465 C-73.52145911 104.97300832 -68.19237513 104.98211594 -62.86328125 104.9921875 C-52.41531544 105.01360854 -41.96743269 105.04772474 -31.51953125 105.08984375 C-31.5284137 103.99483047 -31.53729614 102.8998172 -31.54644775 101.7716217 C-31.62769598 91.42903391 -31.68757452 81.08651126 -31.72677994 70.74367619 C-31.74761379 65.42688205 -31.77585465 60.11034651 -31.82128906 54.79370117 C-31.86489667 49.65842093 -31.88869994 44.52338872 -31.89904022 39.38793755 C-31.90640486 37.43320247 -31.92078614 35.47848027 -31.94245148 33.52385139 C-31.97168389 30.77610552 -31.97547901 28.02937163 -31.97363281 25.28149414 C-31.98801392 24.48163589 -32.00239502 23.68177765 -32.01721191 22.85768127 C-31.9696788 16.27721727 -30.34451395 10.09319141 -25.74005508 5.19801426 C-18.45655832 -1.3452756 -9.53888582 -3.44583007 0 0 Z " fill="#000000" transform="translate(457.51953125,320.91015625)"/>
<path d="M0 0 C6.38048483 3.79413152 10.58468853 8.85888731 12.48046875 16.08984375 C12.74552704 19.04361522 12.73381015 21.97698221 12.70751953 24.94091797 C12.70781158 25.80986191 12.70810364 26.67880585 12.70840454 27.57408142 C12.70701713 30.43100149 12.69148368 33.28765703 12.67578125 36.14453125 C12.67204903 38.13135638 12.66920304 40.11818336 12.66720581 42.10501099 C12.65958584 47.32300945 12.63995138 52.54089579 12.61779785 57.7588501 C12.59730418 63.08791589 12.58819656 68.41699987 12.578125 73.74609375 C12.55670396 84.19405956 12.52258776 94.64194231 12.48046875 105.08984375 C14.12298866 105.07652008 14.12298866 105.07652008 15.7986908 105.06292725 C26.14127859 104.98167902 36.48380124 104.92180048 46.82663631 104.88259506 C52.14343045 104.86176121 57.45996599 104.83352035 62.77661133 104.78808594 C67.91189157 104.74447833 73.04692378 104.72067506 78.18237495 104.71033478 C80.13711003 104.70297014 82.09183223 104.68858886 84.04646111 104.66692352 C86.79420698 104.63769111 89.54094087 104.63389599 92.28881836 104.63574219 C93.08867661 104.62136108 93.88853485 104.60697998 94.71263123 104.59216309 C101.29309523 104.6396962 107.47712109 106.26486105 112.37229824 110.86931992 C118.0616557 117.20228354 118.99198754 122.08783754 118.859375 130.6015625 C118.1692508 136.95497397 115.14094426 140.75508781 110.54296875 144.96484375 C104.62029306 149.07445545 99.23569634 149.3848574 92.26904297 149.36450195 C91.36085312 149.36961288 90.45266327 149.37472382 89.51695251 149.37998962 C86.5229528 149.39385593 83.52918422 149.39293029 80.53515625 149.390625 C78.44255488 149.39451509 76.3499543 149.3988504 74.25735474 149.40361023 C69.87108808 149.41106723 65.4849019 149.41078603 61.09863281 149.40551758 C55.50381193 149.39974021 49.90932395 149.41661462 44.31455803 149.43986225 C39.99057112 149.4546685 35.66666296 149.45546166 31.34265518 149.45235252 C29.28158029 149.45286282 27.22050065 149.45804529 25.15945053 149.46816444 C8.40733877 149.5402875 -5.84720719 148.90619643 -18.80859375 136.984375 C-28.50296878 126.7272179 -31.82495321 115.32410472 -31.81005859 101.49023438 C-31.81677582 100.57678757 -31.82349304 99.66334076 -31.83041382 98.72221375 C-31.84927048 95.73011707 -31.85331118 92.73824599 -31.85546875 89.74609375 C-31.86190323 87.65059317 -31.86863207 85.55509347 -31.87564087 83.45959473 C-31.88758131 79.07867347 -31.89132482 74.6978309 -31.89013672 70.31689453 C-31.88993325 64.71842181 -31.91727884 59.1204551 -31.95168114 53.52210236 C-31.9739704 49.19823917 -31.9779737 44.87449763 -31.97691727 40.55058289 C-31.97926848 38.48701731 -31.98806484 36.42344815 -32.003582 34.35993958 C-32.02329112 31.46942058 -32.01738546 28.5799916 -32.00537109 25.68945312 C-32.01661011 24.84762985 -32.02784912 24.00580658 -32.03942871 23.13847351 C-31.96911583 16.44402017 -30.4378965 10.19007248 -25.74017906 5.19960785 C-18.45973088 -1.34721482 -9.53736742 -3.44528157 0 0 Z " fill="#000000" transform="translate(73.51953125,320.91015625)"/>
<path d="M0 0 C0.90818985 -0.00511093 1.8163797 -0.01022186 2.75209045 -0.01548767 C5.74609017 -0.02935397 8.73985875 -0.02842834 11.73388672 -0.02612305 C13.82648808 -0.03001314 15.91908866 -0.03434845 18.01168823 -0.03910828 C22.39795489 -0.04656528 26.78414107 -0.04628408 31.17041016 -0.04101562 C36.76523104 -0.03523826 42.35971901 -0.05211266 47.95448494 -0.0753603 C52.27847185 -0.09016655 56.60238001 -0.09095971 60.92638779 -0.08785057 C62.98746268 -0.08836087 65.04854232 -0.09354334 67.10959244 -0.10366249 C83.8617042 -0.17578555 98.11625015 0.45830552 111.07763672 12.38012695 C120.77201175 22.63728406 124.09399618 34.04039723 124.07910156 47.87426758 C124.08581879 48.78771439 124.09253601 49.70116119 124.09945679 50.64228821 C124.11831345 53.63438489 124.12235415 56.62625597 124.12451172 59.6184082 C124.1309462 61.71390879 124.13767503 63.80940849 124.14468384 65.90490723 C124.15662428 70.28582848 124.16036779 74.66667105 124.15917969 79.04760742 C124.15897622 84.64608014 124.18632181 90.24404685 124.22072411 95.8423996 C124.24301337 100.16626278 124.24701667 104.49000432 124.24596024 108.81391907 C124.24831145 110.87748464 124.25710781 112.94105381 124.27262497 115.00456238 C124.29233409 117.89508137 124.28642843 120.78451035 124.27441406 123.67504883 C124.28565308 124.5168721 124.29689209 125.35869537 124.30847168 126.22602844 C124.2381588 132.92048178 122.70693947 139.17442947 118.00922203 144.1648941 C111.6788708 149.8573578 106.78955677 150.78616105 98.27685547 150.65356445 C91.92344399 149.96344025 88.12333016 146.93513371 83.91357422 142.3371582 C79.87198272 136.51251164 79.500764 131.27344501 79.56152344 124.42358398 C79.56123138 123.55464005 79.56093933 122.68569611 79.56063843 121.79042053 C79.56202584 118.93350046 79.57755929 116.07684492 79.59326172 113.2199707 C79.59699394 111.23314557 79.59983993 109.2463186 79.60183716 107.25949097 C79.60945713 102.0414925 79.62909159 96.82360616 79.65124512 91.60565186 C79.67173879 86.27658606 79.6808464 80.94750208 79.69091797 75.6184082 C79.71233901 65.1704424 79.74645521 54.72255964 79.78857422 44.2746582 C78.14605431 44.28798187 78.14605431 44.28798187 76.47035217 44.30157471 C66.12776438 44.38282293 55.78524173 44.44270147 45.44240665 44.48190689 C40.12561252 44.50274075 34.80907698 44.5309816 29.49243164 44.57641602 C24.3571514 44.62002362 19.22211919 44.64382689 14.08666801 44.65416718 C12.13193294 44.66153181 10.17721074 44.67591309 8.22258186 44.69757843 C5.47483598 44.72681085 2.7281021 44.73060597 -0.01977539 44.72875977 C-1.21956276 44.75033142 -1.21956276 44.75033142 -2.44358826 44.77233887 C-9.02405226 44.72480575 -15.20807812 43.0996409 -20.10325527 38.49518204 C-25.79261273 32.16221841 -26.72294457 27.27666441 -26.59033203 18.76293945 C-25.90020783 12.40952798 -22.87190129 8.60941415 -18.27392578 4.3996582 C-12.35125009 0.2900465 -6.96665337 -0.02035545 0 0 Z " fill="#000000" transform="translate(346.21142578125,41.725341796875)"/>
<path d="M0 0 C0.91344681 -0.00671722 1.82689362 -0.01343445 2.76802063 -0.02035522 C5.76011731 -0.03921189 8.75198839 -0.04325259 11.74414062 -0.04541016 C13.83964121 -0.05184463 15.93514091 -0.05857347 18.03063965 -0.06558228 C22.4115609 -0.07752272 26.79240348 -0.08126623 31.17333984 -0.08007812 C36.77181257 -0.07987466 42.36977928 -0.10722025 47.96813202 -0.14162254 C52.2919952 -0.16391181 56.61573675 -0.1679151 60.93965149 -0.16685867 C63.00321706 -0.16920989 65.06678623 -0.17800624 67.1302948 -0.19352341 C70.0208138 -0.21323253 72.91024277 -0.20732687 75.80078125 -0.1953125 C77.06351616 -0.21217102 77.06351616 -0.21217102 78.35176086 -0.22937012 C85.04621421 -0.15905723 91.3001619 1.37216209 96.29062653 6.06987953 C101.98309022 12.40023077 102.91189347 17.2895448 102.77929688 25.80224609 C102.08917267 32.15565757 99.06086614 35.9557714 94.46289062 40.16552734 C88.63824406 44.20711884 83.39917743 44.57833757 76.54931641 44.51757812 C75.68037247 44.51787018 74.81142853 44.51816223 73.91615295 44.51846313 C71.05923288 44.51707572 68.20257734 44.50154227 65.34570312 44.48583984 C63.358878 44.48210762 61.37205102 44.47926164 59.38522339 44.4772644 C54.16722492 44.46964443 48.94933858 44.45000997 43.73138428 44.42785645 C38.40231849 44.40736277 33.0732345 44.39825516 27.74414062 44.38818359 C17.29617482 44.36676255 6.84829206 44.33264635 -3.59960938 44.29052734 C-3.59072693 45.38554062 -3.58184448 46.48055389 -3.57269287 47.60874939 C-3.49144464 57.95133719 -3.43156611 68.29385984 -3.39236069 78.63669491 C-3.37152683 83.95348904 -3.34328598 89.27002458 -3.29785156 94.58666992 C-3.25424396 99.72195016 -3.23044069 104.85698237 -3.2201004 109.99243355 C-3.21273577 111.94716862 -3.19835449 113.90189082 -3.17668915 115.8565197 C-3.14745673 118.60426558 -3.14366161 121.35099946 -3.14550781 124.09887695 C-3.12393616 125.29866432 -3.12393616 125.29866432 -3.10192871 126.52268982 C-3.14946183 133.10315383 -4.77462668 139.28717968 -9.37908554 144.18235683 C-15.71204917 149.87171429 -20.59760316 150.80204613 -29.11132812 150.66943359 C-35.4647396 149.97930939 -39.26485343 146.95100285 -43.47460938 142.35302734 C-47.58422108 136.43035166 -47.89462303 131.04575493 -47.87426758 124.07910156 C-47.87937851 123.17091171 -47.88448944 122.26272186 -47.88975525 121.32701111 C-47.90362155 118.33301139 -47.90269592 115.33924281 -47.90039062 112.34521484 C-47.90428071 110.25261348 -47.90861603 108.1600129 -47.91337585 106.06741333 C-47.92083285 101.68114667 -47.92055166 97.29496049 -47.9152832 92.90869141 C-47.90950584 87.31387052 -47.92638024 81.71938255 -47.94962788 76.12461662 C-47.96443413 71.80062971 -47.96522729 67.47672155 -47.96211815 63.15271378 C-47.96262845 61.09163888 -47.96781092 59.03055924 -47.97793007 56.96950912 C-48.05005313 40.21739736 -47.41596206 25.96285141 -35.49414062 13.00146484 C-25.23698352 3.30708981 -13.83387035 -0.01489462 0 0 Z " fill="#000000" transform="translate(89.599609375,41.70947265625)"/>
</svg>
