<svg width="28" height="28" viewBox="0 0 28 28" fill="none" xmlns="http://www.w3.org/2000/svg">
<path fill-rule="evenodd" clip-rule="evenodd" d="M15.5743 17.337C16.8664 17.337 17.9181 18.3811 17.9181 19.6647V22.9657C17.9181 23.2415 18.1392 23.4626 18.4225 23.4691H20.468C22.0799 23.4691 23.3902 22.1748 23.3902 20.5844V11.222C23.3827 10.6747 23.122 10.1596 22.6744 9.81724L15.599 4.17451C14.6493 3.42222 13.3207 3.42222 12.3677 4.17666L5.34059 9.8151C4.8759 10.1682 4.61512 10.6833 4.60976 11.2403V20.5844C4.60976 22.1748 5.9201 23.4691 7.532 23.4691H9.59678C9.88761 23.4691 10.1237 23.2383 10.1237 22.955C10.1237 22.8928 10.1312 22.8305 10.1441 22.7715V19.6647C10.1441 18.3887 11.1894 17.3455 12.4718 17.337H15.5743ZM20.468 25.0788H18.4032C17.2206 25.0509 16.3084 24.1226 16.3084 22.9657V19.6647C16.3084 19.2687 15.9789 18.9467 15.5743 18.9467H12.4772C12.0812 18.9489 11.7539 19.2719 11.7539 19.6647V22.955C11.7539 23.0355 11.7431 23.1128 11.7206 23.1857C11.6047 24.2482 10.6968 25.0788 9.59678 25.0788H7.532C5.03258 25.0788 3 23.0623 3 20.5844V11.2328C3.01073 10.166 3.50224 9.18944 4.35112 8.54661L11.3643 2.91783C12.9086 1.69441 15.0603 1.69441 16.6014 2.91568L23.665 8.54983C24.4945 9.18193 24.986 10.1564 25 11.2102V20.5844C25 23.0623 22.9674 25.0788 20.468 25.0788Z" fill="#7D8088"/>
</svg>
