<svg width="30" height="30" viewBox="0 0 30 30" fill="none" xmlns="http://www.w3.org/2000/svg">
<path d="M10.3495 3.12715C11.137 3.1511 11.8995 3.2886 12.6383 3.53985H12.712C12.762 3.5636 12.7995 3.58985 12.8245 3.6136C13.1008 3.70235 13.362 3.80235 13.612 3.93985L14.087 4.15235C14.2745 4.25235 14.4995 4.4386 14.6245 4.51485C14.7495 4.5886 14.887 4.66485 14.9995 4.7511C16.3883 3.68985 18.0745 3.11485 19.812 3.12715C20.6008 3.12715 21.3883 3.2386 22.137 3.48985C26.7508 4.98985 28.4133 10.0523 27.0245 14.4773C26.237 16.7386 24.9495 18.8023 23.2633 20.4886C20.8495 22.8261 18.2008 24.9011 15.3495 26.6886L15.037 26.8773L14.712 26.6761C11.8508 24.9011 9.18703 22.8261 6.75078 20.4761C5.07578 18.7898 3.78703 16.7386 2.98703 14.4773C1.57453 10.0523 3.23703 4.98985 7.90078 3.4636C8.26328 3.3386 8.63703 3.2511 9.01203 3.20235H9.16203C9.51328 3.1511 9.86203 3.12715 10.212 3.12715H10.3495ZM21.487 7.07735C20.9745 6.9011 20.412 7.17735 20.2245 7.70235C20.0495 8.22734 20.3245 8.80234 20.8495 8.9886C21.6508 9.28859 22.187 10.0773 22.187 10.9511V10.9898C22.1633 11.2761 22.2495 11.5523 22.4245 11.7648C22.5995 11.9773 22.862 12.1011 23.137 12.1273C23.6495 12.1136 24.087 11.7023 24.1245 11.1761V11.0273C24.162 9.27609 23.1008 7.68985 21.487 7.07735Z" fill="#FF0000"/>
</svg>
