<svg xmlns="http://www.w3.org/2000/svg" viewBox="0 0 64 64" width="288" height="288"><path d="M63.11282,38.18945l-9.44775-9.44726a1.49978,1.49978,0,0,0-1.06055-.43946H39.24368a1.49975,1.49975,0,0,0-1.06054.43946l-9.44727,9.44726A1.50062,1.50062,0,0,0,28.29642,39.25V52.61133a1.50064,1.50064,0,0,0,.43945,1.06055l9.44727,9.44726a1.49974,1.49974,0,0,0,1.06054.43945H52.60452a1.49977,1.49977,0,0,0,1.06055-.43945l9.44775-9.44726a1.50065,1.50065,0,0,0,.43946-1.06055V39.25A1.50063,1.50063,0,0,0,63.11282,38.18945ZM60.55228,51.99023l-8.56885,8.56836H39.86478l-8.56836-8.56836V39.87109l8.56836-8.56836H51.98343l8.56885,8.56836Z" fill="#000000" class="color000 svgShape"></path><path d="M44.22952 38.01074l-5.707 14.98535a1.50018 1.50018 0 002.80371 1.06836l1.05341-2.7666h7.09912l1.0423 2.76172A1.49982 1.49982 0 1053.32767 53.001L47.65628 37.97461A1.8447 1.8447 0 0044.22952 38.01074zm-.70758 10.28711l2.42291-6.36328 2.40162 6.36328zM23.67239 53.67871A21.58152 21.58152 0 0112.925 43.61273l2.639.97711a1.49966 1.49966 0 101.042-2.8125l-5.88526-2.17968a1.49827 1.49827 0 00-1.92773.88476L6.61282 46.36719a1.50029 1.50029 0 002.81348 1.043l.868-2.34284A24.59668 24.59668 0 0022.49759 56.43848a1.49971 1.49971 0 101.1748-2.75977zM40.43216 9.43848a21.58139 21.58139 0 0110.74737 10.066l-2.639-.97712a1.49966 1.49966 0 10-1.042 2.8125l5.88525 2.17969a1.50109 1.50109 0 001.92773-.88476L57.49173 16.75a1.50029 1.50029 0 00-2.81348-1.043l-.868 2.34284A24.59664 24.59664 0 0041.607 6.67871a1.49971 1.49971 0 10-1.1748 2.75977z" fill="#000000" class="color000 svgShape"></path><path fill="#3e3ef4" d="M35.11832,10.1828,25.96323,1.02722A1.99984,1.99984,0,0,0,24.549.44141H11.60281a1.99983,1.99983,0,0,0-1.41424.58581L1.03348,10.1828A1.9999,1.9999,0,0,0,.44772,11.597V24.54266a2.0001,2.0001,0,0,0,.58582,1.41425l9.15509,9.1546a2,2,0,0,0,1.41418.58576H24.549a1.99992,1.99992,0,0,0,1.41419-.58576l9.15509-9.1546a1.99984,1.99984,0,0,0,.58581-1.41425V11.597A1.99989,1.99989,0,0,0,35.11832,10.1828ZM27.3511,12.32324H24.66867a18.81569,18.81569,0,0,1-4.33313,9.917,9.73272,9.73272,0,0,0,4.2143,1.58106,1.5,1.5,0,0,1-.18653,2.99414,13.02329,13.02329,0,0,1-6.318-2.51227,13.35193,13.35193,0,0,1-6.25812,2.50934q-.04469.00293-.08936.00293a1.50008,1.50008,0,0,1-.09472-2.99707,9.6342,9.6342,0,0,0,4.19549-1.55463,16.95632,16.95632,0,0,1-3.2619-5.709,1.49995,1.49995,0,1,1,2.83106-.99219,13.8855,13.8855,0,0,0,2.71716,4.733,15.77232,15.77232,0,0,0,3.54987-7.97223H8.80032a1.5,1.5,0,1,1,0-3h7.77539V7.05859a1.5,1.5,0,1,1,3,0V9.32324H27.3511a1.5,1.5,0,0,1,0,3Z" class="color3e3ef4 svgShape"></path></svg>