<?xml version="1.0" encoding="UTF-8"?>
<svg version="1.1" xmlns="http://www.w3.org/2000/svg" width="512" height="512">
<path d="M0 0 C1.26070312 -0.03867188 1.26070312 -0.03867188 2.546875 -0.078125 C8.89364241 0.69229185 13.04536539 4.61128782 17.37069321 8.99316978 C17.959506 9.57762226 18.54831879 10.16207473 19.1549744 10.76423788 C21.12902068 12.72732332 23.09219615 14.70092973 25.05560303 16.6746521 C26.48177749 18.09737036 27.90860534 19.5194339 29.33603024 20.94089758 C33.25893935 24.85126225 37.17241124 28.77095473 41.08440709 32.69223309 C45.30395411 36.91855605 49.53210928 41.1362518 53.75917053 45.35505676 C61.56051889 53.14382253 69.35500495 60.93941801 77.14595886 68.73857949 C84.34258389 75.94274884 91.5419879 83.1441264 98.74417877 90.34273148 C99.22176572 90.82008927 99.69935268 91.29744707 100.19141196 91.78927025 C102.13004552 93.72696982 104.06868968 95.66465878 106.00735129 97.60233029 C124.19521931 115.78102021 142.37432539 133.9684498 160.54953 152.1597997 C176.70194539 168.32645431 192.86210169 184.48533253 209.02880859 200.63769531 C227.18820227 218.7810307 245.34274643 236.92919593 263.48947549 255.085199 C265.42333553 257.02002121 267.35720741 258.95483161 269.29108429 260.88963699 C269.76725736 261.36604729 270.24343042 261.84245759 270.73403298 262.33330457 C277.92940386 269.53208996 285.12847328 276.72716261 292.32933807 283.92045212 C300.51504218 292.09758785 308.69523985 300.28019015 316.8686544 308.46961068 C321.04128049 312.65013765 325.21629976 316.82819934 329.39782143 320.99983025 C333.22219479 324.81529405 337.03962686 328.6375599 340.85153487 332.46547635 C342.2350334 333.85233853 343.62109218 335.23665211 345.00989172 336.61820583 C346.89113039 338.49037712 348.76297102 340.37146388 350.63267136 342.25514793 C351.17920142 342.7946545 351.72573149 343.33416107 352.28882307 343.89001632 C356.62878041 348.29549405 358.5275264 352.01742127 358.625 358.1875 C358.51857783 362.96230817 357.46792805 365.59721681 354.25 369.25 C350.2291746 372.79215571 347.83718367 374.4029603 342.5 374.5 C341.65953125 374.52578125 340.8190625 374.5515625 339.953125 374.578125 C332.21115692 373.63834853 327.52995681 367.9231229 322.3515625 362.64453125 C321.51660248 361.80532639 320.68164246 360.96612152 319.82138062 360.10148621 C317.1654424 357.42880281 314.52014655 354.74586009 311.875 352.0625 C310.07230744 350.24475533 308.26892959 348.42769 306.46484375 346.61132812 C302.0519239 342.1653941 297.64768776 337.71099862 293.25 333.25 C291.37623929 336.06064107 290.08951638 338.74883458 288.6875 341.8125 C285.45929215 348.31604283 281.38527849 353.16784508 276.25 358.25 C275.64671875 358.88679688 275.0434375 359.52359375 274.421875 360.1796875 C263.31140857 371.04862205 248.082258 374.63481479 233.046875 374.54882812 C212.44507985 374.05424861 198.49050018 362.4348365 182.90917969 350.30029297 C178.90650737 347.21413413 174.8320954 344.22983525 170.75 341.25 C164.02416559 336.32555253 157.36956369 331.31633946 150.75 326.25 C141.73003323 319.34920207 132.6222537 312.57896503 123.45605469 305.87402344 C121.28553466 304.27615943 119.12926604 302.66082572 116.9765625 301.0390625 C116.30351074 300.53544189 115.63045898 300.03182129 114.93701172 299.51293945 C113.69746287 298.58476202 112.46171687 297.65147039 111.23095703 296.71166992 C102.58916036 290.27354393 96.05932796 289.81874146 85.49609375 289.84375 C84.14956922 289.83449563 82.80305556 289.82351778 81.45655823 289.81091309 C77.20021919 289.77431755 72.94397298 289.76047829 68.6875 289.75 C63.77179502 289.73782167 58.85651325 289.71571528 53.94099617 289.66999817 C51.99720303 289.65668564 50.05331496 289.66075156 48.10948181 289.66540527 C29.37393 289.50982771 13.20840934 284.52286334 -0.125 271.1328125 C-10.92749978 259.26935291 -15.8922639 245.12985282 -15.91113281 229.31005859 C-15.91609772 228.31262634 -15.92106262 227.31519409 -15.92617798 226.28753662 C-15.94076916 222.99116318 -15.94759747 219.69483791 -15.953125 216.3984375 C-15.95888008 214.10022989 -15.96463777 211.80202229 -15.97039795 209.5038147 C-15.98090007 204.68369321 -15.98674753 199.86358835 -15.99023438 195.04345703 C-15.99570956 188.88691841 -16.01972025 182.73060201 -16.04820633 176.57413292 C-16.06689386 171.82471082 -16.07204162 167.07534152 -16.07357025 162.32588577 C-16.0765848 160.05743829 -16.08457255 157.78899147 -16.09775543 155.52058029 C-16.11493959 152.33565474 -16.11290521 149.15126255 -16.10644531 145.96630859 C-16.1156601 145.04123505 -16.12487488 144.1161615 -16.1343689 143.16305542 C-16.0333985 127.1545911 -9.04166758 112.14527676 2.23046875 100.9453125 C12.27040827 91.63261869 24.2414292 86.96502731 37.62890625 85.1484375 C39.49591187 84.89199463 39.49591187 84.89199463 41.40063477 84.63037109 C42.34092529 84.50484863 43.28121582 84.37932617 44.25 84.25 C43.52781281 83.53447464 42.80562561 82.81894928 42.06155396 82.08174133 C35.25545886 75.33647045 28.45730599 68.58328506 21.66684151 61.82227802 C18.17556974 58.34665973 14.68156339 54.87388627 11.18115234 51.4074707 C7.80294983 48.06187234 4.43213595 44.70899136 1.06631088 41.35094261 C-0.21887106 40.07130223 -1.50668995 38.79430457 -2.79717636 37.52001381 C-4.60475427 35.73422358 -6.40271372 33.93925256 -8.19873047 32.1418457 C-8.73388275 31.61747925 -9.26903503 31.09311279 -9.82040405 30.55285645 C-14.15807668 26.17873391 -16.0279595 22.45516341 -16.125 16.3125 C-16.01857783 11.53769183 -14.96792805 8.90278319 -11.75 5.25 C-7.7291746 1.70784429 -5.33718367 0.0970397 0 0 Z M20.96875 130.30859375 C17.85698004 136.3654317 17.09393335 141.46522046 17.07299805 148.26025391 C17.06642685 149.18257812 17.05985565 150.10490234 17.05308533 151.05517578 C17.03335106 154.11230552 17.02168778 157.16938606 17.01171875 160.2265625 C17.00764322 161.27170391 17.0035677 162.31684532 16.99936867 163.39365768 C16.97850476 168.92828931 16.9642059 174.46289614 16.95483398 179.99755859 C16.94378483 185.70378796 16.90940284 191.40962573 16.86966228 197.11571693 C16.84346394 201.51163437 16.83513914 205.90745909 16.83155251 210.30344772 C16.82669283 212.40609753 16.81509657 214.50874337 16.79651451 216.61131668 C16.77206094 219.56231541 16.77309988 222.51230902 16.7800293 225.46337891 C16.76721924 226.32397919 16.75440918 227.18457947 16.74121094 228.07125854 C16.80560389 235.6364733 19.24517917 241.27140905 23.4375 247.5 C30.13035798 254.0441278 37.08669749 256.35082658 46.31860352 256.40771484 C47.52078018 256.41797699 48.72295685 256.42823914 49.96156311 256.43881226 C51.25428635 256.44611359 52.54700958 256.45341492 53.87890625 256.4609375 C55.23307594 256.47392177 56.58723786 256.4877401 57.94139099 256.50234985 C63.67089843 256.56359975 69.40038527 256.61775166 75.13012695 256.65136719 C78.64390884 256.67252794 82.15731611 256.7080011 85.67088127 256.75212479 C87.63577606 256.77285071 89.60081342 256.77829537 91.56581116 256.78329468 C114.23000331 257.08998703 128.38764617 267.80208353 145.59082031 281.19970703 C149.59349263 284.28586587 153.6679046 287.27016475 157.75 290.25 C164.47583441 295.17444747 171.13043631 300.18366054 177.75 305.25 C186.03083589 311.58531993 194.37599817 317.8233379 202.79296875 323.9765625 C205.71232575 326.11156747 208.6090968 328.27208383 211.48828125 330.4609375 C212.15682129 330.96455811 212.82536133 331.46817871 213.51416016 331.98706055 C214.74226693 332.91320707 215.96518379 333.84630348 217.18115234 334.78833008 C224.23005141 340.07037912 231.43633445 342.42337756 240.25 341.25 C248.43391249 339.19484709 253.91056669 335.25419531 258.56640625 328.27734375 C262.70093968 320.10911916 263.52059855 309.05154332 261.25 300.25 C257.47813842 292.80399939 251.02974302 287.08473634 245.17773438 281.27246094 C243.44552545 279.48031577 241.71745108 277.68416656 239.99319458 275.8843689 C235.80024278 271.53370397 231.56227683 267.23240139 227.29554182 262.95446858 C223.8194136 259.46878126 220.35963822 255.96763848 216.91041565 252.4553299 C207.08711366 242.45610576 197.22318089 232.49966426 187.30400461 222.59552833 C186.77088035 222.0632032 186.2377561 221.53087807 185.68847656 220.98242188 C185.15467709 220.44944002 184.62087762 219.91645816 184.07090241 219.36732534 C175.44629655 210.75082728 166.92555654 202.03924471 158.44752759 193.27870557 C149.70041259 184.24250233 140.87898895 175.28486102 131.97753763 166.40059114 C126.99752496 161.42716238 122.05213754 156.42837945 117.18486023 151.34435272 C94.01748785 125.66391693 94.01748785 125.66391693 62.46704865 115.41608047 C48.30082496 115.57329025 29.23942477 117.02004009 20.96875 130.30859375 Z " fill="#000000" transform="translate(84.75,68.75)"/>
<path d="M0 0 C2.48577028 2.18390012 4.84567748 4.43293092 7.16796875 6.7890625 C8.02841797 7.63404297 8.02841797 7.63404297 8.90625 8.49609375 C20.73923318 21.06290534 22.62727144 37.57226148 22.55615234 54.01904297 C22.56022644 55.61697242 22.56557299 57.21489905 22.57208252 58.81282043 C22.58565576 63.11616593 22.58050098 67.41929355 22.57094526 71.72264242 C22.5633044 76.24015954 22.57040576 80.75765908 22.57510376 85.275177 C22.58054513 92.85210494 22.57340883 100.42894483 22.55908203 108.00585938 C22.54272321 116.75837949 22.54807391 125.51069027 22.56456125 134.26320541 C22.57818016 141.79555643 22.58009486 149.32784451 22.57224524 156.86020386 C22.5675755 161.3516808 22.56692536 165.84305931 22.57685471 170.33452988 C22.58552926 174.55195357 22.57949368 178.76910714 22.56217194 182.98650169 C22.55821122 184.53204208 22.55933405 186.07760527 22.56595993 187.62313652 C22.57418139 189.73578774 22.56384827 191.84757792 22.54891968 193.96017456 C22.5477886 195.14107603 22.54665752 196.3219775 22.54549217 197.53866386 C21.98009241 202.40663898 20.33876088 205.67989101 16.79296875 209.0390625 C11.87078353 212.32051931 8.12871494 213.39524008 2.16796875 212.7890625 C-3.64893262 210.87188152 -6.90377284 208.2941883 -9.83203125 202.7890625 C-10.9395487 199.46651016 -10.95950389 196.99796389 -10.96333313 193.49729919 C-10.9693454 191.51863609 -10.9693454 191.51863609 -10.97547913 189.5 C-10.97500402 188.03442381 -10.9744679 186.56884763 -10.97387695 185.10327148 C-10.97690858 183.56242269 -10.98043005 182.0215748 -10.98440552 180.48072815 C-10.99229674 177.1593408 -10.99744037 173.8379642 -11.00069618 170.51656914 C-11.00660894 165.2585764 -11.02315345 160.00065127 -11.04203796 154.74269104 C-11.04837559 152.94176011 -11.05470121 151.14082913 -11.06101513 149.33989811 C-11.06418094 148.43787698 -11.06734675 147.53585585 -11.0706085 146.60650074 C-11.11265494 134.3655276 -11.14563956 122.12458544 -11.15795898 109.88354492 C-11.16635345 101.62732757 -11.18889779 93.37127718 -11.22731465 85.11514336 C-11.24703344 80.74856926 -11.25949393 76.38224454 -11.25448036 72.01562309 C-11.24981557 67.90245562 -11.2637385 63.78975973 -11.29149246 59.67668724 C-11.29837435 58.17315977 -11.29856335 56.66958322 -11.29129219 55.16605759 C-11.2502232 45.71358293 -11.69765666 37.13074395 -17.69140625 29.38671875 C-24.58877726 23.78616749 -30.23200602 21.48095465 -39.14453125 21.390625 C-46.92769497 22.54452427 -52.41970902 26.30314428 -58.51953125 30.9765625 C-59.33550781 31.58951172 -60.15148437 32.20246094 -60.9921875 32.83398438 C-63.61385647 34.8082047 -66.22401569 36.79684844 -68.83203125 38.7890625 C-70.57808757 40.11853875 -72.3241813 41.44796585 -74.0703125 42.77734375 C-76.70536866 44.78539017 -79.33941525 46.79470997 -81.97094727 48.80737305 C-90.17458689 55.07546764 -98.471878 61.21050878 -106.80664062 67.30273438 C-108.64005263 68.64817945 -110.46457899 70.00445411 -112.28515625 71.3671875 C-113.73148438 72.44226563 -113.73148438 72.44226563 -115.20703125 73.5390625 C-116.39425781 74.42851562 -116.39425781 74.42851562 -117.60546875 75.3359375 C-122.66202267 78.63600427 -126.4391401 79.15026821 -132.328125 78.38671875 C-136.29389043 77.44013199 -139.06352118 75.77290113 -141.83203125 72.7890625 C-144.56529107 68.02790024 -145.4163519 64.24272188 -144.83203125 58.7890625 C-142.07131942 49.12657111 -132.94268485 43.98135196 -125.14453125 38.3515625 C-118.14201592 33.24625314 -111.21123327 28.05931084 -104.33203125 22.7890625 C-97.45353864 17.52836382 -90.54743221 12.30927528 -83.58203125 7.1640625 C-82.83244141 6.60847656 -82.08285156 6.05289063 -81.31054688 5.48046875 C-56.21272916 -12.98900857 -26.94087616 -21.03246332 0 0 Z " fill="#000000" transform="translate(356.83203125,81.2109375)"/>
</svg>
