<svg width="22" height="25" viewBox="0 0 22 25" fill="none" xmlns="http://www.w3.org/2000/svg">
<path d="M20.4708 14.2343C20.0838 14.2343 19.773 14.5485 19.742 14.9343C19.6229 16.42 19.1262 17.8549 18.2939 19.1006C17.3314 20.541 15.9634 21.6637 14.3629 22.3267C12.7624 22.9896 11.0012 23.1631 9.30212 22.8251C7.60302 22.4871 6.0423 21.6529 4.81731 20.4279C3.59233 19.2029 2.7581 17.6422 2.42013 15.9431C2.08216 14.244 2.25562 12.4828 2.91858 10.8823C3.58153 9.2818 4.70421 7.91382 6.14464 6.95135C7.58507 5.98889 9.27855 5.47518 11.0109 5.47518H13.8139C14.2009 5.47518 14.5146 5.7889 14.5146 6.17591V8.16302C14.5146 8.78731 15.2694 9.09995 15.7108 8.65851L19.2746 5.09476C19.5482 4.8211 19.5482 4.37743 19.2746 4.10377L15.7108 0.540018C15.2694 0.0985831 14.5146 0.411225 14.5146 1.03551V3.02263C14.5146 3.40963 14.2009 3.72335 13.8139 3.72335H11.0109C8.93207 3.72335 6.89989 4.33981 5.17138 5.49477C3.44286 6.64972 2.09565 8.29131 1.3001 10.2119C0.504554 12.1326 0.296403 14.2459 0.701969 16.2849C1.10754 18.3238 2.10861 20.1967 3.57859 21.6666C5.04857 23.1366 6.92144 24.1377 8.96036 24.5433C10.9993 24.9488 13.1127 24.7407 15.0333 23.9451C16.9539 23.1496 18.5955 21.8024 19.7505 20.0739C20.7753 18.54 21.3762 16.767 21.4985 14.9345C21.5243 14.5484 21.2081 14.2343 20.8211 14.2343H20.4708Z" fill="white"/>
<path d="M14.1906 17.852C13.8035 17.8615 13.4196 17.7805 13.0694 17.6155C12.7584 17.4577 12.4908 17.2261 12.2898 16.9411C12.0696 16.6085 11.915 16.2368 11.8344 15.8462C11.7309 15.3626 11.6809 14.8691 11.6855 14.3746C11.6819 13.8802 11.7318 13.3868 11.8344 12.9031C11.9166 12.5129 12.0711 12.1416 12.2898 11.8082C12.4908 11.5232 12.7584 11.2916 13.0694 11.1338C13.4196 10.9688 13.8035 10.8878 14.1906 10.8973C14.5545 10.8696 14.9194 10.9355 15.2506 11.0889C15.5818 11.2422 15.8682 11.4778 16.0825 11.7732C16.5342 12.55 16.7474 13.4425 16.6957 14.3396C16.7474 15.2367 16.5342 16.1292 16.0825 16.906C15.8764 17.2143 15.5935 17.4636 15.2618 17.6295C14.9301 17.7954 14.5609 17.872 14.1906 17.852V17.852ZM14.1906 16.7834C14.3671 16.7939 14.5431 16.7543 14.6981 16.6691C14.8531 16.5838 14.9808 16.4564 15.0665 16.3016C15.2758 15.8919 15.3868 15.4391 15.3906 14.979V13.7703C15.4095 13.3185 15.3225 12.8686 15.1366 12.4564C15.0386 12.3064 14.9049 12.1832 14.7473 12.0979C14.5898 12.0126 14.4135 11.9679 14.2344 11.9679C14.0552 11.9679 13.8789 12.0126 13.7214 12.0979C13.5639 12.1832 13.4301 12.3064 13.3322 12.4564C13.1462 12.8686 13.0592 13.3185 13.0782 13.7703V14.979C13.0601 15.4336 13.147 15.8861 13.3322 16.3016C13.4157 16.4543 13.5405 16.5805 13.6923 16.6656C13.8441 16.7508 14.0167 16.7916 14.1906 16.7834V16.7834ZM6.30737 17.7381V16.7046H8.05919V12.1586L6.42999 13.0345L5.94824 12.106L7.98036 10.9673H9.25919V16.6608H10.8183V17.7381H6.30737Z" fill="white"/>
</svg>
