<svg width="300" height="200" viewBox="0 0 300 200" fill="none" xmlns="http://www.w3.org/2000/svg">
<g clip-path="url(#clip0_1338_21578)">
<path d="M151.977 55.989C149.302 51.5649 146.132 46.8412 141.168 45.3966C135.419 43.7237 129.514 47.047 124.505 50.3265C109.525 60.1344 95.0989 70.7633 81.293 82.1646L81.3081 82.3363C92.0566 81.5951 102.805 80.8539 113.554 80.1126C121.319 79.5771 129.352 78.9677 136.215 75.294C138.819 73.9 141.357 72.0378 144.308 71.9081C147.975 71.7469 151.172 74.3074 153.684 76.9826C168.545 92.8073 172.845 117.007 189.517 130.91C179.004 104.983 166.451 79.931 151.977 55.989Z" fill="#1F222A"/>
<path d="M243.325 190.211C241.681 188.136 241.01 187.65 239.389 185.556C226.19 168.485 213.784 150.837 202.171 132.613C194.283 120.236 186.786 107.621 179.68 94.7687C176.297 88.6585 173.007 82.5002 169.81 76.2941C167.329 71.482 164.903 66.6411 162.532 61.7714C161.854 60.3805 161.196 58.9833 160.54 57.5828C158.996 54.2895 157.48 50.9802 155.853 47.7316C153.999 44.029 151.741 40.1473 148.336 37.6597C146.786 36.4812 144.933 35.7681 142.993 35.6038C140.221 35.4248 137.663 36.5694 135.258 37.8196C117.666 46.993 101.196 58.4941 86.2997 71.5811C71.3648 84.6975 58.0155 99.5159 46.5238 115.734C46.1722 116.236 45.3408 115.757 45.6957 115.251C47.093 113.275 48.518 111.321 49.9707 109.387C68.0338 85.3639 90.1818 64.705 115.402 48.3551C119.646 45.6053 123.968 42.9845 128.371 40.4926C130.59 39.2361 132.819 37.9955 135.086 36.8316C137.308 35.6901 139.668 34.6638 142.206 34.6254C150.846 34.4911 155.319 44.2752 158.392 50.8587C159.357 52.9306 160.335 54.9961 161.324 57.0552C165.061 64.8729 168.943 72.6192 172.969 80.294C175.453 85.0326 177.992 89.7435 180.585 94.4266C188.655 109.01 197.233 123.298 206.318 137.291C218.353 155.826 230.292 172.2 244.002 189.534C244.38 190.013 243.705 190.697 243.325 190.211Z" fill="#9E9E9E"/>
<path d="M85.4462 66.7496C84.9443 66.1901 84.4455 65.6305 83.9403 65.071C79.9563 60.665 75.6815 56.3101 70.2106 53.7841C67.602 52.5417 64.7544 51.8816 61.8653 51.8497C58.879 51.8593 55.9598 52.6426 53.2005 53.7394C51.8959 54.2606 50.62 54.8521 49.3636 55.4819C47.9278 56.2046 46.5177 56.9752 45.1142 57.7521C42.4794 59.2101 39.8789 60.7321 37.3125 62.318C32.2062 65.4739 27.2598 68.8706 22.4733 72.5082C19.992 74.3946 17.5619 76.3429 15.1831 78.353C12.9705 80.2203 10.8027 82.1377 8.67961 84.1052C8.2256 84.524 7.54771 83.8462 8.00171 83.4273C8.56126 82.9062 9.12721 82.3882 9.69316 81.8766C11.2919 80.4314 12.9162 79.0138 14.5661 77.624C17.5748 75.0853 20.6613 72.6446 23.8258 70.302C28.7466 66.6569 33.8369 63.2591 39.0966 60.1086C41.7249 58.5355 44.3894 57.0284 47.0901 55.5875C47.9055 55.1526 48.7305 54.7274 49.565 54.3245C51.4585 53.3694 53.4259 52.5685 55.4482 51.9296C58.3128 51.0029 61.3436 50.7052 64.3338 51.0567C67.2209 51.4767 70.0025 52.439 72.532 53.8928C77.9036 56.8952 82.0697 61.5378 86.1241 66.0686C86.5335 66.529 85.8587 67.2101 85.4462 66.7496Z" fill="#9E9E9E"/>
<path d="M195.509 112.408L208.381 107.7L214.772 105.362C216.853 104.601 218.929 103.734 221.081 103.189C222.951 102.655 224.936 102.68 226.792 103.262C228.447 103.875 229.961 104.814 231.246 106.023C232.559 107.232 233.78 108.536 234.9 109.925C236.291 111.597 237.662 113.287 239.039 114.971C244.722 121.921 250.368 128.902 255.977 135.912C261.586 142.923 267.157 149.963 272.691 157.033C278.238 164.121 283.747 171.238 289.218 178.384C289.888 179.26 290.558 180.136 291.227 181.012C291.596 181.496 292.43 181.019 292.055 180.528C286.544 173.309 280.994 166.12 275.406 158.961C269.804 151.784 264.163 144.638 258.484 137.523C252.805 130.407 247.087 123.322 241.331 116.269C239.897 114.511 238.461 112.756 237.022 111.003C235.809 109.523 234.609 108.028 233.278 106.652C230.834 104.125 227.782 101.892 224.128 101.831C221.979 101.795 219.9 102.477 217.904 103.199C215.752 103.978 213.605 104.771 211.456 105.557L198.494 110.298L195.254 111.483C194.679 111.693 194.927 112.62 195.509 112.408L195.509 112.408Z" fill="#9E9E9E"/>
<path d="M68.5167 59.3284C61.9756 55.9666 53.5987 56.625 47.5879 60.8251C59.0531 62.8031 70.3929 65.4497 81.5492 68.7515C76.9164 66.0365 73.2925 61.7829 68.5167 59.3284Z" fill="#1F222A"/>
<path d="M47.5229 60.8135L46.2637 61.837C46.6896 61.4788 47.1324 61.1429 47.5873 60.8251C47.5658 60.8213 47.5444 60.8172 47.5229 60.8135Z" fill="#1F222A"/>
<path d="M230.761 112.455C229.494 110.912 228.124 109.297 226.228 108.671L224.459 108.741C237.928 132.541 256.12 153.338 277.916 169.855C262.198 150.721 246.479 131.588 230.761 112.455Z" fill="#1F222A"/>
<path d="M120.731 99.7315C121.55 102.706 123.395 105.296 125.939 107.041C126.922 107.711 128.086 108.354 128.423 109.495C128.6 110.223 128.491 110.991 128.118 111.64C127.746 112.281 127.293 112.872 126.771 113.398L126.724 113.577C124.283 112.13 121.96 110.301 120.612 107.804C119.264 105.308 119.075 102.036 120.731 99.7314" fill="#1F222A"/>
<path d="M201.999 170.535C202.817 173.51 204.662 176.099 207.206 177.845C208.19 178.514 209.354 179.157 209.69 180.298C209.867 181.026 209.758 181.794 209.386 182.443C209.014 183.084 208.561 183.675 208.039 184.202L207.991 184.38C205.55 182.934 203.228 181.104 201.88 178.607C200.531 176.111 200.343 172.839 201.999 170.535" fill="#1F222A"/>
<path d="M39.8131 165.652C40.6319 168.627 42.4766 171.216 45.0208 172.962C46.0044 173.632 47.1682 174.274 47.5047 175.415C47.6817 176.143 47.5726 176.911 47.2 177.56C46.828 178.202 46.3754 178.793 45.8532 179.319L45.8056 179.497C43.3646 178.051 41.0424 176.221 39.6941 173.725C38.3457 171.228 38.1575 167.956 39.8131 165.652" fill="#1F222A"/>
<path d="M226.448 35.576C236.272 35.576 244.236 27.612 244.236 17.788C244.236 7.96395 236.272 0 226.448 0C216.624 0 208.66 7.96395 208.66 17.788C208.66 27.612 216.624 35.576 226.448 35.576Z" fill="#E21221"/>
<path d="M258.548 4.14035C249.927 2.97508 240.085 7.6347 237.85 16.0421C237.287 14.5473 236.264 13.2701 234.927 12.3952C233.591 11.5203 232.011 11.0929 230.415 11.1748C228.82 11.2566 227.292 11.8435 226.052 12.8506C224.812 13.8577 223.925 15.233 223.518 16.7776L224.505 17.4844C242.979 21.4795 262.102 21.393 280.54 17.2311C274.543 10.9289 267.168 5.30559 258.548 4.14035Z" fill="#1F222A"/>
<path d="M221.577 27.8576C212.956 26.6924 203.114 31.352 200.88 39.7594C200.317 38.2645 199.293 36.9874 197.956 36.1125C196.62 35.2376 195.04 34.8102 193.445 34.892C191.849 34.9739 190.321 35.5608 189.081 36.5679C187.842 37.575 186.954 38.9502 186.547 40.4949L187.534 41.2017C206.008 45.1968 225.132 45.1103 243.569 40.9484C237.572 34.6462 230.198 29.0229 221.577 27.8576Z" fill="#1F222A"/>
<path d="M296.819 32.3422C296.783 32.3422 296.747 32.3367 296.714 32.3258C204.493 3.16115 123.213 6.97494 71.2666 15.31C64.1972 16.4439 57.109 17.7535 50.1987 19.2028C48.4345 19.5724 46.6043 19.9685 44.7588 20.381C42.5549 20.8718 40.3803 21.3773 38.2951 21.8827C37.3945 22.096 36.5116 22.3109 35.6462 22.5275C34.3353 22.8511 33.0053 23.1883 31.5795 23.5589C29.9863 23.9696 28.3675 24.4005 26.7672 24.8396C26.7613 24.8416 26.7553 24.8433 26.7493 24.8447L26.7495 24.845C24.9418 25.3385 23.1438 25.8464 21.4049 26.3536C20.4638 26.6254 19.5551 26.8934 18.6847 27.1581C18.5874 27.185 18.5013 27.2109 18.4139 27.2375L18.2269 27.2943C18.1186 27.3274 18.0116 27.3597 17.9047 27.3904L17.8979 27.3924L17.898 27.3928L17.615 27.4807C17.2774 27.5829 16.9481 27.6827 16.6242 27.7821C8.06328 30.4212 3.35708 32.2986 3.31059 32.317C3.26807 32.334 3.22262 32.3425 3.17682 32.342C3.13102 32.3415 3.08577 32.3319 3.04366 32.3139C3.00154 32.2959 2.96339 32.2698 2.93137 32.237C2.89936 32.2043 2.87411 32.1655 2.85707 32.123C2.84003 32.0805 2.83153 32.035 2.83205 31.9892C2.83258 31.9434 2.84212 31.8982 2.86013 31.8561C2.87815 31.814 2.90427 31.7758 2.93703 31.7438C2.96979 31.7118 3.00853 31.6865 3.05104 31.6695C3.09788 31.6511 7.82707 29.7641 16.4191 27.1152C16.7442 27.0154 17.0744 26.9156 17.413 26.8131L17.676 26.7313C17.685 26.7279 17.694 26.7252 17.7032 26.7225C17.8096 26.6922 17.9159 26.6598 18.0239 26.6271L18.2112 26.5702C18.3046 26.542 18.3965 26.514 18.4907 26.4881C19.3552 26.2252 20.267 25.9564 21.2105 25.6836C22.95 25.1761 24.7497 24.6683 26.5587 24.174C26.5643 24.172 26.5701 24.1706 26.5757 24.1689V24.1686C28.1817 23.7282 29.8064 23.2956 31.4047 22.8835C32.8327 22.5125 34.1654 22.1747 35.4784 21.8504C36.3475 21.6341 37.2322 21.4187 38.1324 21.2043C40.22 20.6981 42.3991 20.192 44.6069 19.7001C46.4552 19.2873 48.2886 18.8902 50.0556 18.5203C56.9767 17.0686 64.076 15.7569 71.1561 14.6213C123.177 6.27432 204.573 2.45438 296.924 31.6609C297.003 31.686 297.071 31.7387 297.115 31.8094C297.159 31.8801 297.176 31.9642 297.163 32.0465C297.151 32.1288 297.109 32.2039 297.046 32.2581C296.983 32.3123 296.902 32.3422 296.819 32.3422Z" fill="#9E9E9E"/>
<path d="M91.7257 146.433C91.605 146.08 91.4017 145.761 91.1328 145.502C91.0335 145.41 90.9261 145.327 90.8119 145.254C89.9016 144.648 88.5413 144.512 87.6764 145.254C87.5892 145.33 87.5087 145.413 87.4357 145.502C87.1776 145.82 86.9125 146.13 86.6405 146.433C86.194 146.943 85.7371 147.434 85.2593 147.912C85.1233 148.045 84.9872 148.181 84.8477 148.313C84.7675 148.394 84.6873 148.47 84.6071 148.547C84.3001 148.84 83.9862 149.122 83.6688 149.402C83.5014 149.551 83.334 149.698 83.1631 149.841C82.9085 150.054 82.6539 150.267 82.3958 150.472C82.3714 150.49 82.3469 150.507 82.3225 150.528C82.3156 150.532 82.3121 150.539 82.3051 150.542C82.3016 150.542 82.2981 150.542 82.2946 150.549C82.2852 150.553 82.2768 150.559 82.2702 150.566C82.1935 150.619 82.1412 150.654 82.1028 150.685C82.1167 150.678 82.1307 150.668 82.1446 150.661C82.0819 150.709 82.0156 150.758 81.9528 150.807C81.3424 151.257 80.7181 151.69 80.0798 152.094C78.5007 153.105 76.842 153.985 75.1201 154.727C75.005 154.773 74.8865 154.822 74.7679 154.867C70.2597 156.714 65.3694 157.435 60.52 156.967C60.0248 156.928 59.5295 156.876 59.0342 156.81C58.4622 156.726 57.8937 156.625 57.3287 156.51C55.1776 156.081 53.0728 155.445 51.0436 154.612C48.5052 153.45 46.0909 152.034 43.8377 150.385C43.4889 150.137 43.1367 149.89 42.7844 149.649C43.1855 148.666 43.5796 147.682 43.9633 146.691C44.1551 146.214 44.34 145.736 44.5213 145.254C45.9479 141.547 47.2872 137.804 48.5707 134.048C49.8682 130.243 51.0924 126.415 52.2434 122.566C52.362 122.175 52.4771 121.785 52.5887 121.394C53.1921 119.361 53.7711 117.323 54.3256 115.28C54.378 115.081 54.4338 114.886 54.4826 114.687C54.643 114.101 54.8 113.515 54.9535 112.929C55.3022 111.607 54.514 110.027 53.1258 109.71C52.4575 109.539 51.7487 109.633 51.1488 109.974C50.5489 110.315 50.1048 110.876 49.91 111.538C49.7601 112.103 49.6101 112.664 49.4566 113.229C48.7207 115.96 47.9464 118.682 47.1337 121.394C47.0151 121.785 46.8965 122.175 46.778 122.566C44.9852 128.474 43.0169 134.324 40.873 140.113C40.6149 140.814 40.3534 141.513 40.0883 142.21C39.9592 142.551 39.8302 142.893 39.6976 143.235C39.443 143.908 39.1814 144.581 38.9199 145.254C38.7699 145.649 38.6164 146.043 38.463 146.433C38.3618 146.681 38.2641 146.929 38.1665 147.173C37.172 146.816 36.1417 146.568 35.0937 146.433L34.9263 146.412C34.1138 146.315 33.292 146.322 32.4813 146.433C31.2679 146.575 30.1004 146.981 29.0614 147.624C28.0223 148.266 27.1371 149.129 26.4683 150.151C24.8046 152.771 24.8255 156.517 27.1589 158.742C29.562 161.033 33.1998 161.016 36.0284 159.583C37.5274 158.772 38.7914 157.587 39.6976 156.144C40.0448 155.62 40.3639 155.079 40.6533 154.522C40.7266 154.57 40.7998 154.619 40.873 154.672C41.1521 154.867 41.4311 155.066 41.7066 155.261C43.3121 156.424 45.004 157.463 46.7675 158.369C50.5595 160.254 54.6413 161.488 58.8424 162.021C58.9366 162.031 59.0272 162.045 59.1214 162.055C59.5853 162.115 60.0527 162.16 60.52 162.198C67.2244 162.704 73.937 161.332 79.9055 158.236C80.4112 157.975 80.9123 157.7 81.4087 157.413C82.1795 156.967 82.9329 156.492 83.6688 155.99C84.0699 155.718 84.4606 155.442 84.8477 155.153C86.5395 153.907 88.1165 152.512 89.5598 150.985C90.1074 150.409 90.6317 149.815 91.1328 149.203C91.6067 148.701 91.8798 148.044 91.9001 147.354C91.8974 147.039 91.8384 146.727 91.7257 146.433ZM33.9706 154.741C34.0439 154.689 34.1171 154.633 34.1869 154.577C34.1659 154.63 34.0648 154.689 33.9706 154.741H33.9706ZM35.0902 153.615C35.01 153.706 34.9367 153.796 34.8565 153.887C34.6125 154.16 34.3503 154.416 34.0718 154.654C34.0334 154.689 33.9915 154.724 33.9497 154.755C33.9492 154.755 33.9488 154.755 33.9483 154.756C33.9479 154.756 33.9475 154.756 33.9472 154.756C33.9469 154.757 33.9466 154.757 33.9464 154.757C33.9463 154.758 33.9462 154.758 33.9462 154.759C33.8958 154.781 33.8469 154.807 33.7997 154.836C33.6497 154.926 33.4963 155.01 33.3393 155.087C33.032 155.2 32.7159 155.287 32.3941 155.348C32.1469 155.366 31.8987 155.369 31.6512 155.355H31.6442C31.4734 155.317 31.3046 155.271 31.1385 155.216C31.0548 155.174 30.9746 155.125 30.8943 155.076C30.8629 155.048 30.835 155.02 30.8176 155.003C30.7835 154.972 30.752 154.938 30.7235 154.902C30.7235 154.901 30.7234 154.901 30.7232 154.9C30.723 154.9 30.7228 154.9 30.7225 154.899C30.7221 154.899 30.7217 154.899 30.7213 154.899C30.7209 154.898 30.7204 154.898 30.72 154.898C30.6816 154.829 30.6397 154.759 30.6014 154.689C30.5994 154.687 30.5981 154.685 30.5979 154.682C30.57 154.595 30.5456 154.504 30.5246 154.414C30.5171 154.254 30.5182 154.095 30.5281 153.936C30.5749 153.713 30.6379 153.494 30.7165 153.28C30.7871 153.128 30.8675 152.982 30.9571 152.841C30.9641 152.827 30.999 152.771 31.0374 152.708C31.0408 152.704 31.0408 152.705 31.0408 152.701C31.0932 152.642 31.1455 152.579 31.2013 152.523C31.2955 152.419 31.3966 152.328 31.4978 152.234C31.6945 152.105 31.8982 151.987 32.1081 151.881C32.4411 151.763 32.7828 151.671 33.1301 151.606C33.6422 151.565 34.1569 151.57 34.6682 151.62C35.1525 151.704 35.6303 151.822 36.0982 151.972C35.8146 152.522 35.4917 153.052 35.1321 153.556C35.1181 153.576 35.1042 153.597 35.0902 153.615ZM31.2117 152.467C31.181 152.517 31.1447 152.562 31.1036 152.603C31.1313 152.552 31.1679 152.506 31.2117 152.467Z" fill="#9E9E9E"/>
<path d="M81.2419 110.812C81.2105 111.907 81.1791 113.003 81.1477 114.098C81.0814 116.529 81.0128 118.961 80.9419 121.394C80.8687 124.132 80.7919 126.869 80.7117 129.605C80.6734 131.017 80.6338 132.43 80.5931 133.842C80.485 137.648 80.3781 141.452 80.2723 145.255C80.2618 145.649 80.2478 146.039 80.2374 146.433C80.1851 148.32 80.1327 150.207 80.0804 152.094C80.0211 154.142 79.963 156.189 79.906 158.236C79.8642 159.771 79.8212 161.307 79.777 162.844C79.4631 173.98 79.1492 185.117 78.8353 196.254C78.822 196.943 78.5422 197.601 78.0544 198.089C77.5667 198.577 76.909 198.856 76.2194 198.87C75.5273 198.864 74.8652 198.587 74.3758 198.097C73.8865 197.608 73.6091 196.946 73.6035 196.254C73.7779 189.99 73.9546 183.725 74.1337 177.461C74.2906 171.797 74.4499 166.133 74.6115 160.469C74.6638 158.603 74.7161 156.735 74.7685 154.867C74.8487 152.056 74.9277 149.245 75.0056 146.433C75.0161 146.039 75.03 145.649 75.0405 145.255C75.0475 144.909 75.0579 144.567 75.0684 144.222C75.2219 138.764 75.3753 133.304 75.5288 127.843C75.5916 125.695 75.652 123.545 75.7102 121.394C75.7799 118.942 75.8497 116.492 75.9194 114.042C75.9508 112.964 75.9787 111.89 76.0101 110.812C76.0234 110.123 76.3032 109.465 76.791 108.977C77.2787 108.489 77.9364 108.21 78.626 108.196C79.3181 108.202 79.9802 108.479 80.4695 108.969C80.9589 109.458 81.2363 110.12 81.2419 110.812Z" fill="#9E9E9E"/>
<path d="M224.742 111.538C221.999 121.925 218.72 132.163 214.92 142.211C213.871 144.982 212.798 147.748 211.651 150.481L211.915 149.856C211.403 151.158 210.749 152.399 209.965 153.557C209.912 153.632 209.858 153.706 209.802 153.779C210.074 153.433 210.125 153.364 209.957 153.574C209.868 153.679 209.781 153.784 209.689 153.886C209.445 154.159 209.183 154.416 208.905 154.654C208.835 154.714 208.764 154.773 208.691 154.83L209.019 154.576C208.981 154.666 208.714 154.785 208.631 154.835C208.362 154.997 208.082 155.139 207.792 155.26L208.417 154.997C207.943 155.188 207.447 155.324 206.941 155.401L207.637 155.308C207.14 155.377 206.636 155.382 206.138 155.324L206.833 155.417C206.425 155.361 206.026 155.254 205.646 155.098L206.271 155.361C206.067 155.273 205.872 155.168 205.685 155.049C205.59 154.987 205.3 154.767 205.68 155.057C206.075 155.359 205.731 155.083 205.649 155.003C205.581 154.936 205.52 154.863 205.454 154.795C205.146 154.48 205.802 155.338 205.592 154.969C205.481 154.784 205.378 154.594 205.286 154.398L205.55 155.023C205.43 154.726 205.345 154.416 205.296 154.099L205.389 154.794C205.339 154.4 205.339 154.001 205.388 153.606L205.295 154.302C205.359 153.862 205.475 153.431 205.642 153.018L205.378 153.643C205.494 153.366 205.632 153.098 205.789 152.841C205.861 152.709 205.947 152.584 206.043 152.468C206.06 152.473 205.601 152.995 205.844 152.732C205.908 152.663 205.968 152.59 206.032 152.522C206.136 152.412 206.246 152.312 206.355 152.209C206.72 151.862 205.845 152.546 206.266 152.271C206.571 152.071 206.891 151.896 207.225 151.748L206.6 152.012C207.158 151.782 207.744 151.625 208.342 151.545L207.647 151.638C208.396 151.552 209.153 151.561 209.9 151.665L209.205 151.571C210.151 151.715 211.075 151.975 211.957 152.345L211.332 152.082C213.212 152.889 214.877 154.087 216.539 155.262C218.144 156.424 219.836 157.463 221.598 158.368C225.391 160.254 229.473 161.489 233.674 162.021C239.7 162.76 245.814 161.973 251.456 159.733C257.098 157.493 262.088 153.873 265.966 149.203C266.44 148.701 266.712 148.043 266.733 147.353C266.728 146.661 266.453 145.997 265.966 145.504C265.007 144.623 263.194 144.374 262.267 145.504C261.389 146.576 260.444 147.593 259.44 148.547C258.971 148.992 258.489 149.424 257.995 149.841C257.713 150.08 257.427 150.314 257.137 150.543C256.999 150.651 256.572 150.94 257.228 150.474C257.078 150.581 256.934 150.697 256.785 150.807C254.589 152.426 252.208 153.78 249.694 154.841L250.318 154.577C247.62 155.709 244.786 156.485 241.888 156.887L242.583 156.793C239.602 157.185 236.581 157.181 233.601 156.78L234.296 156.873C231.317 156.464 228.402 155.67 225.627 154.512L226.251 154.776C223.573 153.591 221.031 152.118 218.67 150.384C217.442 149.474 216.146 148.659 214.794 147.945C213.219 147.14 211.514 146.622 209.758 146.414C206.466 146.027 203.112 147.309 201.302 150.153C199.636 152.771 199.658 156.516 201.99 158.742C204.392 161.034 208.031 161.015 210.862 159.581C213.588 158.2 215.226 155.331 216.378 152.626C218.97 146.538 221.264 140.309 223.402 134.048C225.517 127.855 227.435 121.598 229.157 115.279C229.37 114.497 229.58 113.713 229.787 112.929C230.136 111.607 229.347 110.027 227.96 109.711C227.291 109.539 226.582 109.633 225.982 109.974C225.381 110.315 224.937 110.876 224.742 111.538L224.742 111.538Z" fill="#9E9E9E"/>
<path d="M250.841 110.812L249.9 144.223L248.963 177.46L248.434 196.254C248.439 196.946 248.717 197.608 249.206 198.097C249.696 198.587 250.358 198.864 251.049 198.87C251.739 198.857 252.397 198.577 252.884 198.089C253.372 197.601 253.652 196.944 253.665 196.254L254.607 162.843L255.544 129.606L256.073 110.812C256.067 110.12 255.79 109.458 255.301 108.969C254.811 108.48 254.149 108.202 253.457 108.196C252.768 108.21 252.11 108.489 251.622 108.977C251.135 109.465 250.855 110.123 250.841 110.812Z" fill="#9E9E9E"/>
<path opacity="0.2" d="M160.297 186.926H161.109V149.94H180.058V149.13H161.109V133.524H175.743C175.528 133.251 175.308 132.981 175.081 132.716H161.109V122.408C160.841 122.293 160.57 122.183 160.297 122.079V132.716H144.374V119.509C144.102 119.521 143.833 119.54 143.562 119.563V132.716H130.859V122.862C130.587 122.983 130.318 123.11 130.051 123.243V132.716H119.373V133.524H130.051V149.13H119.373V149.94H130.051V186.926H130.859V149.94C132.528 149.94 134.18 150.268 135.721 150.906C137.262 151.544 138.663 152.48 139.842 153.66C141.022 154.839 141.958 156.24 142.596 157.781C143.234 159.323 143.563 160.974 143.562 162.643V186.926H144.374V149.94H160.297V186.926ZM130.859 149.13V133.524H143.562V149.13H130.859ZM144.374 149.13V133.524H144.693C146.742 133.524 148.772 133.928 150.665 134.712C152.558 135.496 154.278 136.646 155.727 138.095C157.176 139.544 158.326 141.265 159.11 143.158C159.894 145.051 160.297 147.081 160.297 149.13H144.374Z" fill="black"/>
<path d="M155.338 175.836C154.315 180.397 151.866 184.514 148.345 187.59C148.086 187.813 147.828 188.029 147.56 188.242C146.908 188.301 146.26 188.362 145.617 188.423C145.083 188.472 144.557 188.524 144.034 188.573L143.939 188.584L143.873 188.012L143.608 185.696C142.58 184.017 141.942 182.128 141.743 180.17C141.544 178.211 141.788 176.233 142.457 174.381C143.378 171.898 145.045 169.704 146.684 167.528C148.948 164.521 151.149 161.55 151.229 157.884C152.343 159.309 153.269 160.872 153.984 162.533C153.309 162.851 152.703 163.298 152.199 163.848C152.056 164.005 151.913 164.225 152.01 164.413C152.094 164.573 152.303 164.612 152.485 164.633C152.921 164.678 153.36 164.723 153.796 164.769C154.145 164.807 154.494 164.842 154.842 164.88C155.264 166.265 155.551 167.688 155.697 169.129C155.932 171.369 155.811 173.633 155.338 175.836Z" fill="#9E9E9E"/>
<path d="M166.918 166.694C164.86 168.191 163.656 170.343 162.722 172.714C161.764 173.021 160.902 173.571 160.221 174.312C160.078 174.469 159.935 174.688 160.033 174.877C160.116 175.037 160.326 175.076 160.507 175.096C160.943 175.142 161.382 175.187 161.818 175.232C160.884 178.037 160.026 180.939 158.372 183.307C157.273 184.87 155.84 186.17 154.176 187.112C153.723 187.37 153.255 187.602 152.774 187.806C151.003 187.942 149.264 188.088 147.56 188.242C146.908 188.301 146.26 188.362 145.617 188.424C145.084 188.472 144.557 188.525 144.034 188.573C144.03 188.382 144.03 188.19 144.034 187.998C144.144 182.888 146.024 177.974 149.353 174.095C149.51 173.914 149.67 173.736 149.834 173.558C151.521 171.757 153.504 170.259 155.697 169.129C159.153 167.332 163.027 166.491 166.918 166.694Z" fill="#E21221"/>
<path d="M146.221 186.634L145.82 187.82L145.618 188.424C145.084 188.472 144.557 188.525 144.034 188.574L143.94 188.584C143.361 188.643 142.785 188.703 142.21 188.762C142.06 188.588 141.91 188.41 141.764 188.228C138.123 183.82 136.375 178.149 136.903 172.456C137.43 166.763 140.19 161.51 144.578 157.846C144.118 160.256 144.655 162.565 145.537 164.856C145.443 164.895 145.353 164.933 145.265 164.975C144.59 165.293 143.984 165.739 143.48 166.29C143.337 166.447 143.194 166.666 143.291 166.855C143.375 167.015 143.584 167.054 143.766 167.074C144.202 167.12 144.641 167.165 145.077 167.211C145.426 167.249 145.775 167.284 146.123 167.322C146.287 167.34 146.451 167.357 146.615 167.374C146.64 167.427 146.66 167.476 146.685 167.528C147.679 169.683 148.75 171.849 149.353 174.096C149.504 174.659 149.623 175.231 149.709 175.808C149.977 177.759 149.803 179.745 149.2 181.619C148.596 183.493 147.578 185.207 146.221 186.634Z" fill="#E21221"/>
<path d="M181.328 136.047C178.325 130.19 173.674 125.262 168.203 121.641C162.714 118.025 156.416 115.822 149.87 115.23C149.011 115.152 148.151 115.107 147.289 115.093C146.27 115.078 130.943 119.499 125.808 123.109C120.677 126.675 116.455 131.398 113.485 136.895C110.519 142.423 109.061 148.634 109.256 154.904C109.51 161.212 111.268 167.368 114.384 172.858C117.457 178.331 121.82 182.97 127.095 186.372C132.444 189.786 137.818 198.836 144.134 199.156C150.498 199.478 157.756 190.94 163.56 188.348C169.364 185.734 174.382 181.645 178.113 176.488C181.739 171.433 184.085 165.575 184.949 159.415C185.847 153.108 185.428 146.604 183.274 140.575C182.722 139.026 182.072 137.514 181.328 136.047C180.707 134.824 178.888 134.374 177.749 135.109C177.162 135.47 176.737 136.043 176.563 136.71C176.388 137.377 176.477 138.085 176.811 138.688C177.175 139.406 177.514 140.135 177.827 140.877L177.564 140.252C178.75 143.104 179.556 146.098 179.962 149.159L179.869 148.464C180.301 151.785 180.293 155.149 179.846 158.468L179.939 157.773C179.487 161.092 178.601 164.337 177.304 167.425L177.568 166.8C176.901 168.376 176.123 169.902 175.241 171.369C174.794 172.109 174.319 172.833 173.818 173.539C173.597 173.848 173.37 174.153 173.141 174.456C172.843 174.852 173.548 173.939 173.24 174.327C173.187 174.394 173.135 174.46 173.082 174.526C172.924 174.724 172.763 174.92 172.6 175.115C171.513 176.412 170.326 177.623 169.051 178.736C168.733 179.014 168.41 179.285 168.082 179.549C167.919 179.681 167.757 179.819 167.586 179.942C167.593 179.937 168.137 179.523 167.815 179.763C167.714 179.839 167.613 179.916 167.512 179.991C166.835 180.492 166.141 180.968 165.428 181.418C163.788 182.451 162.066 183.351 160.282 184.108L160.906 183.844C157.827 185.141 154.591 186.026 151.281 186.478L151.977 186.385C148.668 186.832 145.315 186.838 142.005 186.403L142.701 186.496C139.692 186.092 136.75 185.297 133.948 184.13L134.573 184.393C132.95 183.708 131.385 182.893 129.893 181.955C129.155 181.49 128.436 180.996 127.737 180.474C127.637 180.399 127.538 180.323 127.438 180.248C127.119 180.007 127.668 180.426 127.672 180.429C127.486 180.296 127.308 180.153 127.137 180.002C126.799 179.727 126.466 179.445 126.139 179.157C124.829 178.004 123.605 176.755 122.479 175.422C122.197 175.089 121.921 174.75 121.651 174.407C121.534 174.258 121.321 173.957 121.792 174.591C121.73 174.508 121.666 174.426 121.603 174.343C121.453 174.143 121.304 173.943 121.158 173.74C120.646 173.031 120.159 172.305 119.697 171.562C118.654 169.879 117.744 168.117 116.975 166.292L117.239 166.917C115.98 163.922 115.119 160.775 114.678 157.557L114.772 158.252C114.374 155.285 114.368 152.279 114.755 149.311L114.661 150.006C115.058 147.132 115.831 144.322 116.962 141.65L116.698 142.275C117.409 140.602 118.248 138.986 119.207 137.442C119.688 136.669 120.197 135.915 120.734 135.18C120.856 135.013 120.98 134.847 121.105 134.682C121.218 134.533 121.529 134.161 120.998 134.817C121.05 134.753 121.1 134.687 121.152 134.622C121.447 134.248 121.749 133.88 122.058 133.518C123.229 132.147 124.498 130.862 125.854 129.674C126.197 129.374 126.545 129.08 126.899 128.792C127.059 128.661 127.221 128.532 127.384 128.404C127.449 128.353 127.515 128.303 127.58 128.251C126.883 128.805 127.386 128.402 127.544 128.283C128.273 127.737 129.021 127.219 129.789 126.727C131.495 125.636 133.291 124.69 135.155 123.899L134.531 124.163C137.237 123.027 149.229 120.344 151.41 120.637L150.714 120.544C153.92 120.991 157.053 121.857 160.034 123.118L159.409 122.855C160.919 123.496 162.387 124.233 163.804 125.062C164.511 125.477 165.205 125.914 165.885 126.375C166.207 126.592 166.525 126.815 166.84 127.042C166.997 127.156 167.154 127.271 167.309 127.387C167.396 127.452 167.482 127.517 167.568 127.582C167.93 127.854 167.069 127.188 167.449 127.489C168.72 128.488 169.928 129.566 171.065 130.716C171.623 131.285 172.162 131.871 172.682 132.476C172.949 132.786 173.21 133.101 173.466 133.42C173.593 133.579 174.025 134.153 173.495 133.45C173.625 133.622 173.756 133.793 173.884 133.966C174.986 135.458 175.965 137.037 176.811 138.688C177.436 139.907 179.247 140.362 180.39 139.626C180.977 139.265 181.402 138.691 181.576 138.025C181.751 137.358 181.662 136.65 181.328 136.047Z" fill="#9E9E9E"/>
<path d="M150.848 178.737C150.578 178.749 150.311 178.678 150.082 178.533C149.854 178.389 149.675 178.178 149.571 177.928C149.467 177.679 149.442 177.403 149.499 177.139C149.557 176.875 149.694 176.635 149.892 176.452C149.926 176.319 149.949 176.225 149.983 176.092C149.971 176.064 149.959 176.035 149.947 176.006C148.733 173.112 140.988 181.18 140.654 183.9C140.506 185.102 140.568 186.321 140.837 187.502C138.329 182.03 137.026 176.082 137.018 170.062C137.017 168.551 137.101 167.042 137.269 165.54C137.408 164.31 137.6 163.088 137.847 161.874C139.191 155.292 142.078 149.122 146.271 143.871C148.668 144.005 150.769 143.64 150.972 138.994C151.008 138.167 151.621 137.451 151.756 136.637C151.527 136.667 151.295 136.686 151.066 136.701C150.995 136.705 150.919 136.708 150.848 136.712L150.821 136.713C150.57 136.725 150.32 136.663 150.103 136.536C149.886 136.409 149.71 136.221 149.596 135.997C149.483 135.772 149.437 135.519 149.464 135.268C149.491 135.018 149.59 134.781 149.749 134.585C149.847 134.464 149.946 134.342 150.045 134.221C150.195 134.033 150.349 133.849 150.499 133.662C150.517 133.644 150.533 133.625 150.548 133.605C150.721 133.391 150.893 133.181 151.066 132.967C150.751 132.478 150.327 132.069 149.828 131.771C148.098 130.758 145.711 131.459 144.462 133.024C143.209 134.588 142.972 136.784 143.408 138.738C143.836 140.402 144.544 141.98 145.501 143.406C145.408 143.526 145.31 143.643 145.216 143.763C143.501 145.968 142.007 148.335 140.754 150.832C141.108 148.063 136.774 138.063 135.097 135.945C133.084 133.401 128.955 134.512 128.6 137.737C128.597 137.768 128.593 137.799 128.59 137.83C128.839 137.971 129.083 138.12 129.321 138.278C129.621 138.478 129.853 138.764 129.987 139.098C130.122 139.432 130.152 139.8 130.074 140.151C129.996 140.503 129.814 140.823 129.551 141.069C129.288 141.316 128.957 141.477 128.6 141.532L128.564 141.538C125.231 146.296 135.915 158.682 138.59 155.901C137.331 159.468 136.541 163.184 136.241 166.955C136.071 169.18 136.081 171.414 136.271 173.638L136.26 173.559C135.665 168.717 125.471 161.518 122.494 162.117C120.78 162.463 119.091 162.384 119.351 164.114C119.355 164.142 119.359 164.169 119.364 164.197C119.826 164.385 120.275 164.602 120.711 164.846C120.96 164.987 121.203 165.136 121.442 165.293C121.741 165.494 121.973 165.78 122.108 166.114C122.242 166.448 122.272 166.815 122.194 167.167C122.116 167.519 121.934 167.839 121.671 168.085C121.408 168.332 121.077 168.493 120.721 168.548L120.684 168.553C120.658 168.557 120.636 168.561 120.609 168.565C119.092 173.785 130.343 182.209 137.183 179.528H137.186C137.864 182.474 138.846 185.341 140.117 188.083H150.586C150.623 187.967 150.657 187.847 150.691 187.731C149.722 187.792 148.749 187.734 147.794 187.558C148.571 186.605 149.347 185.645 150.124 184.691C150.141 184.674 150.158 184.655 150.173 184.635C150.567 184.147 150.965 183.663 151.358 183.176L151.359 183.175C151.38 181.68 151.208 180.188 150.848 178.737L150.848 178.737ZM138.86 155.154L138.865 155.147L138.86 155.162V155.154ZM136.541 176.058L136.451 175.855C136.455 175.709 136.455 175.562 136.451 175.412C136.451 175.371 136.444 175.33 136.444 175.289C136.477 175.547 136.507 175.806 136.545 176.065L136.541 176.058Z" fill="#9E9E9E"/>
<path d="M33.2214 156.953C35.3403 156.953 37.058 155.235 37.058 153.116C37.058 150.997 35.3403 149.279 33.2214 149.279C31.1025 149.279 29.3848 150.997 29.3848 153.116C29.3848 155.235 31.1025 156.953 33.2214 156.953Z" fill="#9E9E9E"/>
<path d="M79.2605 198.807C81.3794 198.807 83.0971 197.089 83.0971 194.97C83.0971 192.852 81.3794 191.134 79.2605 191.134C77.1415 191.134 75.4238 192.852 75.4238 194.97C75.4238 197.089 77.1415 198.807 79.2605 198.807Z" fill="#9E9E9E"/>
<path d="M254.001 198.807C256.12 198.807 257.837 197.089 257.837 194.97C257.837 192.852 256.12 191.134 254.001 191.134C251.882 191.134 250.164 192.852 250.164 194.97C250.164 197.089 251.882 198.807 254.001 198.807Z" fill="#9E9E9E"/>
<path d="M263.419 149.977C265.538 149.977 267.255 148.259 267.255 146.14C267.255 144.021 265.538 142.304 263.419 142.304C261.3 142.304 259.582 144.021 259.582 146.14C259.582 148.259 261.3 149.977 263.419 149.977Z" fill="#9E9E9E"/>
<path d="M252.258 114.401C254.377 114.401 256.095 112.684 256.095 110.565C256.095 108.446 254.377 106.728 252.258 106.728C250.14 106.728 248.422 108.446 248.422 110.565C248.422 112.684 250.14 114.401 252.258 114.401Z" fill="#9E9E9E"/>
<path d="M92.165 146.14C92.1627 147.12 91.7837 148.062 91.1065 148.77C90.4293 149.479 89.5056 149.9 88.5267 149.946C87.5478 149.992 86.5885 149.66 85.8474 149.019C85.1063 148.378 84.6401 147.476 84.5453 146.501C84.4504 145.525 84.7342 144.551 85.3379 143.779C85.9416 143.007 86.819 142.497 87.7885 142.353C88.758 142.21 89.7455 142.445 90.5465 143.01C91.3475 143.575 91.9007 144.426 92.0918 145.387C92.141 145.635 92.1655 145.887 92.165 146.14Z" fill="#9E9E9E"/>
<path d="M168.899 125.562C171.018 125.562 172.736 123.845 172.736 121.726C172.736 119.607 171.018 117.889 168.899 117.889C166.78 117.889 165.062 119.607 165.062 121.726C165.062 123.845 166.78 125.562 168.899 125.562Z" fill="#9E9E9E"/>
<path d="M130.88 121.726C130.878 122.706 130.499 123.647 129.821 124.356C129.144 125.064 128.22 125.485 127.242 125.531C126.263 125.578 125.303 125.246 124.562 124.605C123.821 123.963 123.355 123.062 123.26 122.086C123.165 121.111 123.449 120.136 124.053 119.364C124.656 118.592 125.534 118.082 126.503 117.939C127.473 117.796 128.46 118.031 129.261 118.596C130.062 119.16 130.616 120.011 130.807 120.972C130.856 121.22 130.88 121.473 130.88 121.726Z" fill="#9E9E9E"/>
<path d="M81.3525 110.565C81.3502 111.545 80.9712 112.486 80.294 113.195C79.6168 113.903 78.6931 114.324 77.7142 114.37C76.7353 114.417 75.776 114.085 75.0349 113.444C74.2938 112.802 73.8276 111.901 73.7328 110.925C73.6379 109.95 73.9217 108.975 74.5254 108.203C75.1291 107.431 76.0065 106.921 76.976 106.778C77.9455 106.635 78.933 106.87 79.734 107.434C80.535 107.999 81.0882 108.85 81.2793 109.811C81.3285 110.059 81.353 110.312 81.3525 110.565Z" fill="#9E9E9E"/>
<path d="M209.008 158.348C211.127 158.348 212.845 156.63 212.845 154.511C212.845 152.393 211.127 150.675 209.008 150.675C206.89 150.675 205.172 152.393 205.172 154.511C205.172 156.63 206.89 158.348 209.008 158.348Z" fill="#9E9E9E"/>
<path d="M148.668 123.47C151.75 123.47 154.249 120.971 154.249 117.889C154.249 114.807 151.75 112.309 148.668 112.309C145.586 112.309 143.088 114.807 143.088 117.889C143.088 120.971 145.586 123.47 148.668 123.47Z" fill="#9E9E9E"/>
<path d="M299.585 199.1L0.415288 199.207C0.360751 199.207 0.306747 199.197 0.256362 199.176C0.205976 199.155 0.160198 199.124 0.121635 199.086C0.0830715 199.047 0.0524778 199.001 0.0316075 198.951C0.0107372 198.901 0 198.847 0 198.792C0 198.737 0.0107372 198.683 0.0316075 198.633C0.0524778 198.583 0.0830715 198.537 0.121635 198.498C0.160198 198.46 0.205976 198.429 0.256362 198.408C0.306747 198.387 0.360751 198.377 0.415288 198.377L299.585 198.27C299.695 198.27 299.8 198.314 299.878 198.392C299.955 198.469 299.999 198.575 299.999 198.685C299.999 198.795 299.955 198.9 299.878 198.978C299.8 199.056 299.695 199.1 299.585 199.1Z" fill="#9E9E9E"/>
</g>
<defs>
<clipPath id="clip0_1338_21578">
<rect width="300" height="199.207" fill="white"/>
</clipPath>
</defs>
</svg>
