<svg width="22" height="25" viewBox="0 0 22 25" fill="none" xmlns="http://www.w3.org/2000/svg">
<path d="M1.52922 14.2343C1.91622 14.2343 2.22703 14.5485 2.25796 14.9343C2.37706 16.42 2.87379 17.8549 3.70613 19.1006C4.66859 20.541 6.03658 21.6637 7.6371 22.3267C9.23761 22.9896 10.9988 23.1631 12.6979 22.8251C14.397 22.4871 15.9577 21.6529 17.1827 20.4279C18.4077 19.2029 19.2419 17.6422 19.5799 15.9431C19.9178 14.244 19.7444 12.4828 19.0814 10.8823C18.4185 9.2818 17.2958 7.91382 15.8554 6.95135C14.4149 5.98889 12.7215 5.47518 10.9891 5.47518H8.18615C7.79914 5.47518 7.48542 5.7889 7.48542 6.17591V8.16302C7.48542 8.78731 6.73063 9.09995 6.2892 8.65851L2.72544 5.09476C2.45179 4.8211 2.45179 4.37743 2.72544 4.10377L6.2892 0.540018C6.73063 0.0985831 7.48542 0.411225 7.48542 1.03551V3.02262C7.48542 3.40963 7.79914 3.72335 8.18615 3.72335H10.9891C13.0679 3.72335 15.1001 4.33981 16.8286 5.49477C18.5571 6.64972 19.9044 8.29131 20.6999 10.2119C21.4954 12.1325 21.7036 14.2459 21.298 16.2849C20.8925 18.3238 19.8914 20.1967 18.4214 21.6666C16.9514 23.1366 15.0786 24.1377 13.0396 24.5433C11.0007 24.9488 8.88732 24.7407 6.9667 23.9451C5.04608 23.1496 3.4045 21.8024 2.24954 20.0738C1.22466 18.54 0.623812 16.767 0.501472 14.9345C0.475693 14.5484 0.791853 14.2343 1.17885 14.2343H1.52922Z" fill="white"/>
<path d="M14.1906 17.852C13.8035 17.8615 13.4196 17.7805 13.0694 17.6155C12.7584 17.4577 12.4908 17.2261 12.2898 16.9411C12.0696 16.6085 11.915 16.2368 11.8344 15.8462C11.7309 15.3626 11.6809 14.8691 11.6855 14.3746C11.6819 13.8802 11.7318 13.3868 11.8344 12.9031C11.9166 12.5129 12.0711 12.1416 12.2898 11.8082C12.4908 11.5232 12.7584 11.2916 13.0694 11.1338C13.4196 10.9688 13.8035 10.8878 14.1906 10.8973C14.5545 10.8696 14.9194 10.9355 15.2506 11.0889C15.5818 11.2422 15.8682 11.4778 16.0825 11.7732C16.5342 12.55 16.7474 13.4425 16.6957 14.3396C16.7474 15.2367 16.5342 16.1292 16.0825 16.906C15.8764 17.2143 15.5935 17.4636 15.2618 17.6295C14.9301 17.7954 14.5609 17.872 14.1906 17.852V17.852ZM14.1906 16.7834C14.3671 16.7939 14.5431 16.7543 14.6981 16.6691C14.8531 16.5838 14.9808 16.4564 15.0665 16.3016C15.2758 15.8919 15.3868 15.4391 15.3906 14.979V13.7703C15.4095 13.3185 15.3225 12.8686 15.1366 12.4564C15.0386 12.3064 14.9049 12.1832 14.7473 12.0979C14.5898 12.0126 14.4135 11.9679 14.2344 11.9679C14.0552 11.9679 13.8789 12.0126 13.7214 12.0979C13.5639 12.1832 13.4301 12.3064 13.3322 12.4564C13.1462 12.8686 13.0592 13.3185 13.0782 13.7703V14.979C13.0601 15.4336 13.147 15.8861 13.3322 16.3016C13.4157 16.4543 13.5405 16.5805 13.6923 16.6656C13.8441 16.7508 14.0167 16.7916 14.1906 16.7834V16.7834ZM6.30737 17.7381V16.7046H8.05919V12.1586L6.42999 13.0345L5.94824 12.106L7.98036 10.9673H9.25919V16.6608H10.8183V17.7381H6.30737Z" fill="white"/>
</svg>
