<svg width="90" height="90" viewBox="0 0 90 90" fill="none" xmlns="http://www.w3.org/2000/svg">
<path d="M73.8 71.9992H16.2C13.2228 71.9992 10.8 74.422 10.8 77.3992C10.8 80.3764 13.2228 82.7992 16.2 82.7992H73.8C76.7772 82.7992 79.2 80.3764 79.2 77.3992C79.2 74.422 76.7772 71.9992 73.8 71.9992ZM82.8 17.9992C78.8293 17.9992 75.6 21.2285 75.6 25.1992C75.6 27.8669 77.076 30.1743 79.2395 31.4199C75.0744 41.2839 68.5763 47.3355 62.5031 46.7883C55.7495 46.2376 50.2414 38.2527 47.2031 24.8932C51.0982 23.9067 53.9998 20.3967 53.9998 16.1992C53.9998 11.2348 49.9642 7.19922 44.9998 7.19922C40.0354 7.19922 35.9998 11.2348 35.9998 16.1992C35.9998 20.3969 38.9014 23.9069 42.7966 24.8932C39.7582 38.2527 34.2501 46.2376 27.4966 46.7883C21.4487 47.3355 14.9217 41.2839 10.7603 31.4199C12.9238 30.1743 14.3998 27.8667 14.3998 25.1992C14.3998 21.2285 11.1705 17.9992 7.19982 17.9992C3.22928 17.9992 0 21.2285 0 25.1992C0 28.8929 2.80793 31.9097 6.39352 32.3199L13.3272 68.3992H76.6728L83.6063 32.3199C87.1921 31.9097 90 28.8929 90 25.1992C90 21.2285 86.7707 17.9992 82.8 17.9992Z" fill="#F02829"/>
</svg>
