<svg width="28" height="28" viewBox="0 0 28 28" fill="none" xmlns="http://www.w3.org/2000/svg">
<path fill-rule="evenodd" clip-rule="evenodd" d="M23.132 21.5588C23.132 25.5398 17.6726 26 13.5672 26L13.2734 25.9997C10.6578 25.9934 4 25.8283 4 21.5347C4 17.6349 9.23998 17.1137 13.3141 17.0941L13.861 17.0937C16.4764 17.1001 23.132 17.2652 23.132 21.5588ZM13.5672 18.9052C8.42065 18.9052 5.81174 19.7894 5.81174 21.5347C5.81174 23.2957 8.42065 24.1883 13.5672 24.1883C18.7125 24.1883 21.3202 23.3041 21.3202 21.5588C21.3202 19.7978 18.7125 18.9052 13.5672 18.9052ZM13.5672 2C17.1037 2 19.9795 4.87704 19.9795 8.41356C19.9795 11.9501 17.1037 14.8259 13.5672 14.8259H13.5285C9.99927 14.815 7.14035 11.9368 7.15239 8.40994C7.15239 4.87704 10.0295 2 13.5672 2ZM13.5672 3.72478C10.9812 3.72478 8.87718 5.8276 8.87718 8.41356C8.86875 10.9911 10.9571 13.0927 13.5322 13.1023L13.5672 13.9647V13.1023C16.1519 13.1023 18.2548 10.9983 18.2548 8.41356C18.2548 5.8276 16.1519 3.72478 13.5672 3.72478Z" fill="#7D8088"/>
</svg>
