<svg width="26" height="26" viewBox="0 0 26 26" fill="none" xmlns="http://www.w3.org/2000/svg">
<g clip-path="url(#clip0_4279_15294)">
<path d="M7.60501 22.6829C6.86822 23.4197 4.04529 24.5836 2.01689 25.3581C1.15665 25.6866 0.314548 24.8445 0.643001 23.9842C1.41747 21.9559 2.58142 19.1329 3.31821 18.3961C4.50258 17.2117 6.42064 17.2117 7.60501 18.3961C8.78938 19.5805 8.78938 21.4986 7.60501 22.6829Z" fill="#FFCE29"/>
<path d="M16.9686 23.1049L14.3685 25.7051C13.8207 26.2528 12.8854 26.0008 12.6869 25.252L10.1863 15.8171L0.748365 13.314C-0.00030316 13.1155 -0.252178 12.1802 0.295498 11.6325L2.89585 9.03215C3.21733 8.71068 3.6009 8.45803 4.02318 8.28959C4.44546 8.12116 4.89761 8.04046 5.35209 8.05243L15.0622 8.30827L17.6925 10.9385L17.9483 20.6487C17.9603 21.1031 17.8796 21.5553 17.7112 21.9776C17.5427 22.3999 17.2901 22.7834 16.9686 23.1049Z" fill="#F96464"/>
<path opacity="0.08" d="M16.9674 23.1057L14.3683 25.7049C13.8206 26.2525 12.8858 26.0022 12.6863 25.2511L12.6394 25.0712C12.921 25.1025 13.2183 25.0126 13.4471 24.7838L16.0463 22.1846C16.6975 21.5334 17.0496 20.6454 17.0261 19.7263L16.7699 10.0161L17.693 10.9392L17.9492 20.6494C17.9609 21.104 17.8799 21.5563 17.7111 21.9786C17.5423 22.4009 17.2892 22.7844 16.9674 23.1057Z" fill="black"/>
<path d="M9.52163 20.3125C12.6032 20.0434 17.0269 17.5501 21.0248 13.5521C25.0216 9.55528 25.8522 4.41881 25.9968 1.76386C26.051 0.768146 25.2308 -0.0519206 24.2351 0.00256766C21.5806 0.147802 16.4454 0.979396 12.4488 4.97603C8.45075 8.97404 5.95744 13.3977 5.68774 16.4786L9.52163 20.3125Z" fill="#F2F0F0"/>
<path opacity="0.4" d="M7.80642 12.2606C7.48746 12.8703 7.21548 13.4668 6.99707 14.042C6.93959 14.1933 6.97925 14.3634 7.09371 14.4779L7.09503 14.4792C7.30775 14.6919 7.66581 14.6126 7.77225 14.3312C7.97816 13.7869 8.23527 13.2211 8.53808 12.6414C8.62187 12.481 8.59434 12.2846 8.46637 12.1566C8.26838 11.9586 7.93617 12.0125 7.80642 12.2606Z" fill="white"/>
<path d="M24.4505 8.45338C25.5713 5.8514 25.9098 3.35936 25.9967 1.76386C26.0509 0.768146 25.2307 -0.0519206 24.235 0.00256766C22.6398 0.0898098 20.1484 0.428825 17.547 1.54992L24.4505 8.45338Z" fill="#F96464"/>
<path d="M9.60736 21.3438C9.34578 21.6054 8.92171 21.6054 8.66013 21.3438L4.657 17.3407C4.39542 17.0791 4.39542 16.655 4.657 16.3934C4.91857 16.1319 5.34264 16.1319 5.60422 16.3934L9.60736 20.3966C9.86888 20.6582 9.86888 21.0822 9.60736 21.3438Z" fill="#6D6D6D"/>
<path d="M9.56948 18.2753C8.98413 18.8606 4.18144 22.8394 3.67352 22.3315C3.1616 21.8196 7.14036 17.0169 7.72577 16.4315C8.31569 15.8416 10.0829 14.8982 10.5949 15.4102C11.1028 15.9182 10.1595 17.6854 9.56948 18.2753Z" fill="#F96464"/>
<path d="M18.7122 12.7794C20.6908 11.7273 21.4419 9.27047 20.3899 7.29184C19.3378 5.31321 16.881 4.56207 14.9023 5.61413C12.9237 6.66618 12.1726 9.12304 13.2246 11.1017C14.2767 13.0803 16.7335 13.8314 18.7122 12.7794Z" fill="#6D6D6D"/>
<path d="M18.2671 11.9418C19.7833 11.1356 20.3589 9.25286 19.5527 7.73658C18.7465 6.2203 16.8637 5.64467 15.3475 6.45088C13.8312 7.25708 13.2556 9.13983 14.0618 10.6561C14.8681 12.1724 16.7508 12.748 18.2671 11.9418Z" fill="#66D5F2"/>
<path opacity="0.08" d="M21.0255 13.5519C17.028 17.5494 12.6022 20.043 9.5219 20.3109L8.84326 19.6323C11.9236 19.3644 16.3493 16.8708 20.3468 12.8733C24.3424 8.87772 25.1735 3.74003 25.3183 1.08417C25.3358 0.765363 25.2616 0.46032 25.1207 0.202148C25.3999 0.352183 25.6306 0.578652 25.7858 0.855043C25.941 1.13143 26.0142 1.44631 25.9969 1.76281C25.8522 4.41867 25.021 9.55636 21.0255 13.5519Z" fill="black"/>
</g>
<defs>
<clipPath id="clip0_4279_15294">
<rect width="26" height="26" fill="white"/>
</clipPath>
</defs>
</svg>
