<svg width="18" height="23" viewBox="0 0 18 23" fill="none" xmlns="http://www.w3.org/2000/svg">
<path fill-rule="evenodd" clip-rule="evenodd" d="M13.2516 2.13671C12.826 2.07287 12.2134 2.07063 11.267 2.07063H8.92619C8.15339 2.07063 7.63931 2.07174 7.24283 2.11542C6.86651 2.15462 6.67163 2.22742 6.52603 2.32262C6.37707 2.41894 6.23259 2.56903 6.04219 2.89943C5.84171 3.24663 5.63227 3.71926 5.31867 4.43046L3.28811 9.01798C2.93979 9.80646 2.71803 10.3116 2.61387 10.6879C2.56459 10.8671 2.55787 10.9679 2.55899 11.0194C2.56123 11.0553 2.56683 11.0597 2.56683 11.0597C2.56683 11.0597 2.56795 11.0665 2.59819 11.0821C2.64299 11.1045 2.73595 11.1381 2.91851 11.165C3.30155 11.221 3.84923 11.2244 4.70827 11.2244H5.28059C5.91899 11.2244 6.48795 11.2244 6.93819 11.2893C7.42539 11.3599 7.93499 11.5257 8.30571 11.9905C8.67531 12.4541 8.72683 12.9884 8.68987 13.4801C8.65515 13.9348 8.53195 14.4914 8.39307 15.1186L7.61131 18.6545C7.49483 19.1809 7.40187 19.6042 7.33579 19.9469C7.57547 19.6961 7.86555 19.3757 8.22283 18.9804L14.4231 12.126C14.8196 11.6858 15.0839 11.3924 15.262 11.165C15.3964 10.9903 15.43 10.9141 15.4367 10.9029C15.4443 10.8385 15.4345 10.7733 15.4086 10.7138C15.3826 10.6544 15.3413 10.6029 15.2889 10.5647C15.2755 10.5602 15.1959 10.5356 14.982 10.5199C14.6964 10.4975 14.3022 10.4964 13.7108 10.4964H13.6783C13.2505 10.4964 12.8798 10.4964 12.5841 10.474C12.2851 10.4505 11.9457 10.3967 11.6366 10.2164C11.3324 10.0374 11.0797 9.78274 10.903 9.47716C10.7264 9.17158 10.6318 8.82549 10.6286 8.47254C10.6263 8.11638 10.7484 7.79495 10.8761 7.52279C11.0027 7.25399 11.1863 6.93142 11.3991 6.55622L12.6155 4.41703C13.0847 3.59159 13.3871 3.05399 13.5439 2.65079C13.619 2.45703 13.638 2.34615 13.6414 2.28903C13.6414 2.26327 13.6391 2.25207 13.6391 2.25207L13.638 2.2487L13.6369 2.24647L13.6302 2.24198C13.623 2.23707 13.6155 2.23258 13.6078 2.22855C13.4938 2.17935 13.3729 2.148 13.2494 2.13559L13.2516 2.13671ZM13.4991 0.474625C14.0871 0.563105 14.7267 0.774785 15.094 1.40983C15.4603 2.04375 15.3259 2.70454 15.1108 3.25894C14.9036 3.79318 14.5374 4.43831 14.1095 5.19095L12.8775 7.36038C12.6423 7.77031 12.4934 8.03575 12.3971 8.23958C12.3601 8.31082 12.3312 8.38595 12.3108 8.46358C12.3122 8.52407 12.3286 8.58327 12.3585 8.63585C12.3884 8.68844 12.4309 8.73277 12.4822 8.76486C12.4934 8.76822 12.5539 8.78727 12.7163 8.79847C12.9391 8.81639 13.2427 8.8175 13.7131 8.8175H13.7467C14.2943 8.8175 14.7535 8.8175 15.1119 8.84439C15.458 8.87126 15.8657 8.93062 16.2073 9.15798C16.8715 9.59926 17.2175 10.3866 17.0955 11.174C17.0339 11.5772 16.8043 11.9188 16.5915 12.1943C16.3697 12.4799 16.0617 12.8215 15.6932 13.2281L9.43019 20.153C8.85563 20.7892 8.37179 21.3234 7.97867 21.6661C7.77819 21.8409 7.54187 22.0201 7.27867 22.1276C6.98747 22.2452 6.60443 22.2956 6.22363 22.0973C6.0632 22.0114 5.92365 21.8911 5.81487 21.7452C5.70609 21.5993 5.63075 21.4312 5.59419 21.2529C5.5397 20.9773 5.53024 20.6948 5.56619 20.4162C5.61771 19.8954 5.77339 19.1898 5.95931 18.3509L6.74107 14.814C6.89675 14.1117 6.99083 13.6738 7.01547 13.3535C7.02567 13.2625 7.02341 13.1706 7.00875 13.0802C7.00315 13.05 6.99755 13.0433 6.99419 13.0399C6.99083 13.0354 6.98635 13.0287 6.96059 13.0175C6.87663 12.9839 6.78844 12.962 6.69851 12.9525C6.38379 12.9077 5.93915 12.9055 5.22347 12.9055H4.64555C3.86939 12.9055 3.19403 12.9055 2.67211 12.8271C2.11995 12.7453 1.52859 12.5471 1.15675 11.9737C0.787147 11.4002 0.847627 10.7797 0.996587 10.241C1.13771 9.73143 1.41099 9.11094 1.72683 8.3975L1.75259 8.34038L3.79883 3.71143C4.09003 3.05063 4.33643 2.49623 4.58619 2.06167C4.85163 1.60023 5.15739 1.20935 5.60539 0.915905C6.05339 0.624705 6.53499 0.501505 7.06363 0.444385C7.56091 0.390625 8.16571 0.390625 8.88363 0.390625H11.3342C12.1943 0.390625 12.9358 0.390625 13.4991 0.474625Z" fill="#7D8088"/>
</svg>
