<svg width="28" height="28" viewBox="0 0 28 28" fill="none" xmlns="http://www.w3.org/2000/svg">
<path fill-rule="evenodd" clip-rule="evenodd" d="M18.4991 3.47463C19.0871 3.56311 19.7267 3.77479 20.094 4.40983C20.4603 5.04375 20.3259 5.70454 20.1108 6.25894C19.9036 6.79318 19.5374 7.4383 19.1095 8.19095L17.8775 10.3604C17.6423 10.7703 17.4934 11.0357 17.3971 11.2396C17.3601 11.3108 17.3312 11.386 17.3108 11.4636C17.3122 11.5241 17.3286 11.5833 17.3585 11.6359C17.3884 11.6884 17.4309 11.7328 17.4822 11.7649C17.4934 11.7682 17.5539 11.7873 17.7163 11.7985C17.9391 11.8164 18.2427 11.8175 18.7131 11.8175H18.7467C19.2943 11.8175 19.7535 11.8175 20.1119 11.8444C20.458 11.8713 20.8657 11.9306 21.2073 12.158C21.8715 12.5993 22.2175 13.3866 22.0955 14.174C22.0339 14.5772 21.8043 14.9188 21.5915 15.1943C21.3697 15.4799 21.0617 15.8215 20.6932 16.2281L14.4302 23.153C13.8556 23.7892 13.3718 24.3234 12.9787 24.6661C12.7782 24.8409 12.5419 25.0201 12.2787 25.1276C11.9875 25.2452 11.6044 25.2956 11.2236 25.0973C11.0632 25.0114 10.9236 24.8911 10.8149 24.7452C10.7061 24.5993 10.6308 24.4312 10.5942 24.2529C10.5397 23.9773 10.5302 23.6948 10.5662 23.4162C10.6177 22.8954 10.7734 22.1898 10.9593 21.3509L11.7411 17.814C11.8967 17.1117 11.9908 16.6738 12.0155 16.3535C12.0257 16.2625 12.0234 16.1706 12.0087 16.0802C12.0031 16.05 11.9975 16.0433 11.9942 16.0399C11.9908 16.0354 11.9863 16.0287 11.9606 16.0175C11.8766 15.9839 11.7884 15.962 11.6985 15.9525C11.3838 15.9077 10.9391 15.9055 10.2235 15.9055H9.64555C8.86939 15.9055 8.19403 15.9055 7.67211 15.8271C7.11995 15.7453 6.52859 15.5471 6.15675 14.9737C5.78715 14.4002 5.84763 13.7797 5.99659 13.241C6.13771 12.7314 6.41099 12.1109 6.72683 11.3975L6.75259 11.3404L8.79883 6.71143C9.09003 6.05063 9.33643 5.49623 9.58619 5.06167C9.85163 4.60023 10.1574 4.20935 10.6054 3.91591C11.0534 3.62471 11.535 3.50151 12.0636 3.44439C12.5609 3.39063 13.1657 3.39062 13.8836 3.39062H16.3342C17.1943 3.39062 17.9358 3.39063 18.4991 3.47463Z" fill="white"/>
</svg>
