<svg width="28" height="28" viewBox="0 0 28 28" fill="none" xmlns="http://www.w3.org/2000/svg">
<path d="M12.9059 5.74875C11.1529 5.94753 9.49014 6.63191 8.10509 7.72479L9.30384 8.925C9.49704 9.13234 9.60222 9.40657 9.59722 9.68993C9.59222 9.97328 9.47743 10.2436 9.27704 10.444C9.07665 10.6444 8.80629 10.7592 8.52294 10.7642C8.23958 10.7692 7.96535 10.664 7.75801 10.4708L6.55342 9.26771C5.52964 10.5518 4.86353 12.0838 4.62259 13.7083H7.07259C7.36267 13.7083 7.64087 13.8236 7.84599 14.0287C8.05111 14.2338 8.16634 14.512 8.16634 14.8021C8.16634 15.0922 8.05111 15.3704 7.84599 15.5755C7.64087 15.7806 7.36267 15.8958 7.07259 15.8958H4.55697C4.78402 18.2363 5.85372 20.4146 7.56697 22.0252C7.7736 22.2248 7.89341 22.4977 7.90051 22.7849C7.9076 23.0721 7.80141 23.3505 7.60489 23.5601C7.40836 23.7697 7.13727 23.8935 6.85021 23.9048C6.56314 23.9161 6.28314 23.814 6.07072 23.6206C3.82488 21.5162 2.33301 18.4129 2.33301 15.0835C2.33301 8.67854 7.56405 3.5 13.9997 3.5C20.4353 3.5 25.6663 8.67708 25.6663 15.0835C25.6635 16.682 25.3354 18.2631 24.7021 19.7308C24.0688 21.1984 23.1435 22.5219 21.9826 23.6206C21.7702 23.814 21.4902 23.9161 21.2031 23.9048C20.916 23.8935 20.6449 23.7697 20.4484 23.5601C20.2519 23.3505 20.1457 23.0721 20.1528 22.7849C20.1599 22.4977 20.2797 22.2248 20.4863 22.0252C22.1877 20.4119 23.2397 18.2316 23.4438 15.8958H20.9268C20.6367 15.8958 20.3585 15.7806 20.1534 15.5755C19.9482 15.3704 19.833 15.0922 19.833 14.8021C19.833 14.512 19.9482 14.2338 20.1534 14.0287C20.3585 13.8236 20.6367 13.7083 20.9268 13.7083H23.3768C22.7584 9.52875 19.362 6.23437 15.0934 5.74875V7.51042C15.0934 7.8005 14.9782 8.0787 14.7731 8.28381C14.568 8.48893 14.2898 8.60417 13.9997 8.60417C13.7096 8.60417 13.4314 8.48893 13.2263 8.28381C13.0212 8.0787 12.9059 7.8005 12.9059 7.51042V5.74875ZM19.0295 9.05187C19.162 8.94662 19.327 8.89075 19.4962 8.89382C19.6654 8.89689 19.8283 8.95872 19.9569 9.06872C20.0855 9.17871 20.1718 9.33001 20.2011 9.49669C20.2304 9.66337 20.2008 9.83505 20.1174 9.98229L19.957 10.2681C19.3705 11.3037 18.7804 12.3372 18.1865 13.3685C17.7118 14.1939 17.2305 15.0154 16.7428 15.8331C16.56 16.1408 16.3733 16.4461 16.1828 16.749C16.037 16.9779 15.894 17.1952 15.789 17.3177C15.4123 17.759 14.8757 18.0326 14.2973 18.0783C13.7189 18.1239 13.146 17.938 12.7047 17.5612C12.2634 17.1845 11.9898 16.6479 11.9441 16.0695C11.8984 15.4911 12.0844 14.9182 12.4611 14.4769C12.5661 14.3544 12.7572 14.1779 12.9613 13.9985C13.1801 13.8046 13.4615 13.5669 13.778 13.3C14.4138 12.7692 15.2101 12.1187 15.9859 11.4917C16.9113 10.7431 17.8398 9.99837 18.7713 9.2575L19.0295 9.05333V9.05187Z" fill="white"/>
</svg>
