<svg width="28" height="28" viewBox="0 0 28 28" fill="none" xmlns="http://www.w3.org/2000/svg">
<path d="M13.9723 23.3265C14.6167 23.3265 15.139 22.8042 15.139 22.1598C15.139 21.5155 14.6167 20.9932 13.9723 20.9932C13.328 20.9932 12.8057 21.5155 12.8057 22.1598C12.8057 22.8042 13.328 23.3265 13.9723 23.3265Z" fill="#212121"/>
<path d="M13.9725 16.3266C12.4626 16.3265 11.0114 16.912 9.92421 17.9599C9.70143 18.175 9.5732 18.4697 9.56773 18.7793C9.56226 19.0889 9.68 19.388 9.89505 19.6107C10.1101 19.8335 10.4048 19.9618 10.7144 19.9672C11.024 19.9727 11.3231 19.855 11.5459 19.6399C12.2084 19.0332 13.0742 18.6967 13.9725 18.6967C14.8709 18.6967 15.7367 19.0332 16.3992 19.6399C16.622 19.855 16.9211 19.9727 17.2307 19.9672C17.5403 19.9618 17.835 19.8335 18.05 19.6107C18.2651 19.388 18.3828 19.0889 18.3774 18.7793C18.3719 18.4697 18.2437 18.175 18.0209 17.9599C16.9337 16.912 15.4825 16.3265 13.9725 16.3266ZM13.9725 10.4932C12.5635 10.4942 11.169 10.7787 9.87216 11.3299C8.57535 11.8811 7.40275 12.6877 6.42421 13.7016C6.31773 13.8142 6.23448 13.9467 6.17919 14.0914C6.12391 14.2362 6.09769 14.3905 6.10202 14.5454C6.10636 14.7003 6.14116 14.8529 6.20445 14.9943C6.26774 15.1358 6.35827 15.2634 6.47088 15.3699C6.6983 15.585 7.00184 15.7008 7.31471 15.6921C7.46963 15.6878 7.62218 15.653 7.76365 15.5897C7.90512 15.5264 8.03273 15.4358 8.13921 15.3232C8.90103 14.5329 9.81438 13.9042 10.8247 13.4748C11.835 13.0453 12.9215 12.824 14.0192 12.824C15.117 12.824 16.2035 13.0453 17.2138 13.4748C18.224 13.9042 19.1374 14.5329 19.8992 15.3232C20.0073 15.4335 20.1361 15.5212 20.2783 15.5813C20.4205 15.6413 20.5732 15.6726 20.7275 15.6732C20.9555 15.6724 21.1783 15.6047 21.3682 15.4786C21.5582 15.3526 21.7071 15.1736 21.7964 14.9639C21.8858 14.7541 21.9117 14.5228 21.8711 14.2984C21.8304 14.0741 21.7249 13.8666 21.5675 13.7016C20.5836 12.682 19.4034 11.8721 18.0981 11.3208C16.7929 10.7694 15.3895 10.4879 13.9725 10.4932Z" fill="#212121"/>
<path d="M25.3122 9.24523C22.2677 6.30824 18.2025 4.66699 13.9722 4.66699C9.74196 4.66699 5.67671 6.30824 2.63221 9.24523C2.43532 9.46416 2.32849 9.74944 2.33315 10.0438C2.33782 10.3383 2.45363 10.62 2.65736 10.8326C2.86108 11.0452 3.13765 11.1729 3.43159 11.19C3.72553 11.2072 4.0151 11.1126 4.24221 10.9252C6.85274 8.40187 10.3415 6.99137 13.9722 6.99137C17.6029 6.99137 21.0917 8.40187 23.7022 10.9252C23.9185 11.1337 24.2068 11.2507 24.5072 11.2519C24.6644 11.2513 24.8198 11.219 24.9641 11.1568C25.1085 11.0947 25.2388 11.004 25.3472 10.8902C25.5599 10.6671 25.6756 10.3688 25.6691 10.0605C25.6625 9.75228 25.5342 9.45916 25.3122 9.24523Z" fill="#212121"/>
</svg>
