<svg width="32" height="23" viewBox="0 0 32 23" fill="none" xmlns="http://www.w3.org/2000/svg">
<path d="M28.8001 3.2V1.6H25.6001V0H6.4V1.6H3.2V3.2H0V16H3.2V17.6H6.4V19.2H25.6V17.6H28.8V16H32V3.2H28.8001ZM3.2 14.4H1.6V4.8H3.2V14.4ZM6.4 16H4.8V3.2H6.4V16ZM24 17.6H8V1.6H24V17.6ZM27.2 16H25.6V3.2H27.2V16ZM30.4 14.4H28.8V4.8H30.4V14.4ZM16.8001 21.6C16.8001 22.0422 16.4422 22.4 16 22.4C15.5578 22.4 15.2 22.0422 15.2 21.6C15.2 21.1578 15.5578 20.8 16 20.8C16.4422 20.8 16.8001 21.1578 16.8001 21.6ZM12 21.6C12 22.0422 11.6422 22.4 11.2 22.4C10.7578 22.4 10.4 22.0422 10.4 21.6C10.4 21.1578 10.7578 20.8 11.2 20.8C11.6422 20.8 12 21.1578 12 21.6ZM21.6001 21.6C21.6001 22.0422 21.2423 22.4 20.8001 22.4C20.3578 22.4 20 22.0422 20 21.6C20 21.1578 20.3578 20.7999 20.8001 20.7999C21.2423 20.7999 21.6001 21.1578 21.6001 21.6ZM12.8001 4.8V14.4L20.8001 9.6L12.8001 4.8ZM14.4 7.62657L17.6906 9.6L14.4 11.5734V7.62657Z" fill="white"/>
</svg>
