<svg width="30" height="20" viewBox="0 0 30 20" fill="none" xmlns="http://www.w3.org/2000/svg">
<path d="M29.1968 2.38963C28.9531 2.24699 28.6759 2.17181 28.3935 2.17181C28.1112 2.17181 27.8339 2.24699 27.5902 2.38963L23.0156 5.03085V4.0108C23.0144 2.94744 22.5914 1.92798 21.8395 1.17607C21.0876 0.424163 20.0682 0.00120963 19.0048 0H4.01074C2.94739 0.00120966 1.92793 0.424165 1.17603 1.17607C0.424134 1.92798 0.00119413 2.94744 0 4.0108L0 15.1863C0.00119413 16.2496 0.424134 17.2691 1.17603 18.021C1.92793 18.7729 2.94739 19.1958 4.01074 19.1971H19.0045C20.0679 19.1959 21.0875 18.773 21.8394 18.0211C22.5914 17.2692 23.0144 16.2497 23.0156 15.1863V14.1661L27.5905 16.8075C27.8347 16.9484 28.1117 17.0226 28.3937 17.0225C28.6756 17.0225 28.9526 16.9482 29.1968 16.8072C29.4409 16.6663 29.6437 16.4635 29.7847 16.2193C29.9257 15.9752 29.9999 15.6982 30 15.4162V3.78082C30.0016 3.4985 29.9281 3.22083 29.787 2.97633C29.6458 2.73183 29.4421 2.52933 29.1968 2.38963ZM21.1401 15.1865C21.1395 15.7527 20.9143 16.2956 20.5139 16.696C20.1135 17.0964 19.5706 17.3216 19.0043 17.3223H4.01074C3.44445 17.3216 2.90155 17.0964 2.50116 16.6959C2.10076 16.2955 1.87557 15.7525 1.875 15.1863V4.0108C1.87563 3.44455 2.10085 2.90168 2.50124 2.50128C2.90163 2.10088 3.44449 1.87565 4.01074 1.875H19.0045C19.5708 1.87556 20.1138 2.10075 20.5142 2.50116C20.9147 2.90157 21.14 3.44449 21.1406 4.0108L21.1401 15.1865ZM28.125 14.9512L23.0156 12.0009V7.19618L28.125 4.24587V14.9512ZM16.3828 9.59853C16.3828 9.84717 16.284 10.0856 16.1082 10.2614C15.9324 10.4373 15.6939 10.536 15.4453 10.536H12.4453V13.536C12.4453 13.7847 12.3465 14.0231 12.1707 14.1989C11.9949 14.3747 11.7564 14.4735 11.5078 14.4735C11.2592 14.4735 11.0207 14.3747 10.8449 14.1989C10.6691 14.0231 10.5703 13.7847 10.5703 13.536V10.536H7.5703C7.32166 10.536 7.08321 10.4373 6.90739 10.2614C6.73158 10.0856 6.63281 9.84717 6.63281 9.59853C6.63281 9.34988 6.73158 9.11143 6.90739 8.93561C7.08321 8.7598 7.32166 8.66103 7.5703 8.66103H10.5703V5.66103C10.5703 5.41239 10.6691 5.17393 10.8449 4.99812C11.0207 4.8223 11.2592 4.72353 11.5078 4.72353C11.7564 4.72353 11.9949 4.8223 12.1707 4.99812C12.3465 5.17393 12.4453 5.41239 12.4453 5.66103V8.66103H15.4453C15.6939 8.66103 15.9324 8.7598 16.1082 8.93561C16.284 9.11143 16.3828 9.34988 16.3828 9.59853Z" fill="white"/>
</svg>
