<svg width="56" height="56" viewBox="0 0 56 56" fill="none" xmlns="http://www.w3.org/2000/svg">
<path d="M48.8116 45.9989H39.4066C38.959 45.9989 38.5298 45.8211 38.2134 45.5046C37.8969 45.1881 37.7191 44.7589 37.7191 44.3114C37.7191 43.8638 37.8969 43.4346 38.2134 43.1181C38.5298 42.8017 38.959 42.6239 39.4066 42.6239H47.6281L50.9018 33.624H5.09414L8.36788 42.6239H16.5916C17.0392 42.6239 17.4684 42.8017 17.7849 43.1181C18.1013 43.4346 18.2791 43.8638 18.2791 44.3114C18.2791 44.7589 18.1013 45.1881 17.7849 45.5046C17.4684 45.8211 17.0392 45.9989 16.5916 45.9989H7.18663C6.8401 45.9989 6.50196 45.8922 6.21816 45.6934C5.93437 45.4945 5.71867 45.2131 5.60039 44.8874L1.10039 32.5125C1.00837 32.2576 0.979012 31.9843 1.01479 31.7157C1.05057 31.447 1.15044 31.191 1.30597 30.969C1.4615 30.7471 1.66813 30.5658 1.90843 30.4405C2.14872 30.3152 2.41563 30.2495 2.68664 30.249H53.3116C53.583 30.2489 53.8505 30.3142 54.0914 30.4395C54.3322 30.5648 54.5392 30.7463 54.6949 30.9687C54.8506 31.1911 54.9503 31.4477 54.9856 31.7169C55.021 31.986 54.9909 32.2597 54.8978 32.5148L50.3978 44.8896C50.2792 45.2149 50.0633 45.4958 49.7796 45.6943C49.4958 45.8927 49.1579 45.9991 48.8116 45.9989Z" fill="#8F6DFF"/>
<path d="M37.5638 54.9999C37.3206 54.9994 37.0804 54.9465 36.8595 54.8447C36.6387 54.743 36.4423 54.5948 36.2839 54.4103C36.1254 54.2258 36.0086 54.0093 35.9414 53.7756C35.8742 53.5419 35.8581 53.2964 35.8943 53.056L37.8451 40.3751H18.1531L20.1039 53.056C20.1442 53.2778 20.1398 53.5055 20.0907 53.7256C20.0416 53.9457 19.9489 54.1537 19.818 54.3373C19.6872 54.521 19.5208 54.6766 19.3289 54.7949C19.1369 54.9131 18.9231 54.9918 18.7002 55.026C18.4774 55.0603 18.2499 55.0496 18.0312 54.9945C17.8126 54.9394 17.6072 54.841 17.4272 54.7052C17.2472 54.5693 17.0962 54.3988 16.9832 54.2036C16.8702 54.0085 16.7975 53.7927 16.7694 53.5689L14.5194 38.9441C14.4824 38.7037 14.4978 38.4581 14.5646 38.2242C14.6314 37.9904 14.748 37.7737 14.9063 37.589C15.0647 37.4044 15.2611 37.2562 15.482 37.1545C15.703 37.0529 15.9434 37.0002 16.1866 37.0001H39.8116C40.055 37.0002 40.2956 37.0529 40.5168 37.1547C40.7379 37.2564 40.9345 37.4049 41.0928 37.5898C41.2512 37.7747 41.3677 37.9916 41.4344 38.2258C41.501 38.46 41.5162 38.7058 41.4788 38.9463L39.2288 53.5712C39.1676 53.9689 38.9661 54.3316 38.6607 54.5936C38.3553 54.8557 37.9662 54.9998 37.5638 54.9999ZM51.6241 33.0627C51.1765 33.0627 50.7473 32.8849 50.4308 32.5684C50.1144 32.2519 49.9366 31.8227 49.9366 31.3752C49.9245 29.1642 49.3474 26.993 48.2601 25.0677C47.1729 23.1425 45.6115 21.5271 43.7243 20.375C43.3421 20.142 43.0681 19.7667 42.9626 19.3317C42.8572 18.8966 42.9288 18.4375 43.1618 18.0553C43.3949 17.6731 43.7702 17.3991 44.2052 17.2936C44.6402 17.1881 45.0994 17.2598 45.4816 17.4928C50.3101 20.4358 53.3093 25.7547 53.3093 31.3752C53.3096 31.5967 53.2662 31.8161 53.1817 32.0208C53.0971 32.2255 52.973 32.4115 52.8165 32.5683C52.66 32.725 52.4741 32.8493 52.2695 32.9342C52.0649 33.019 51.8456 33.0627 51.6241 33.0627Z" fill="#8F6DFF"/>
<path d="M42.624 21.2499C44.4879 21.2499 45.999 19.7389 45.999 17.875C45.999 16.011 44.4879 14.5 42.624 14.5C40.76 14.5 39.249 16.011 39.249 17.875C39.249 19.7389 40.76 21.2499 42.624 21.2499Z" fill="#8F6DFF"/>
<path d="M27.9991 18.9998C23.0356 18.9998 18.9991 14.9634 18.9991 9.99991C18.9991 5.03646 23.0356 1 27.9991 1C32.9626 1 36.9991 5.03646 36.9991 9.99991C36.9991 14.9634 32.9626 18.9998 27.9991 18.9998ZM27.9991 4.37497C24.8963 4.37497 22.3741 6.89944 22.3741 9.99991C22.3741 13.1004 24.8963 15.6248 27.9991 15.6248C31.1018 15.6248 33.6241 13.1004 33.6241 9.99991C33.6241 6.89944 31.1018 4.37497 27.9991 4.37497ZM44.874 33.6247C44.4265 33.6247 43.9973 33.4469 43.6808 33.1304C43.3643 32.8139 43.1865 32.3847 43.1865 31.9372C43.1842 29.9985 42.413 28.14 41.0421 26.7691C39.6713 25.3983 37.8127 24.6271 35.8741 24.6248H20.1241C18.1854 24.6271 16.3268 25.3983 14.956 26.7691C13.5851 28.14 12.814 29.9985 12.8116 31.9372C12.8116 32.3847 12.6338 32.8139 12.3173 33.1304C12.0009 33.4469 11.5716 33.6247 11.1241 33.6247C10.6765 33.6247 10.2473 33.4469 9.93084 33.1304C9.61437 32.8139 9.43658 32.3847 9.43658 31.9372C9.44016 29.1038 10.5673 26.3875 12.5708 24.384C14.5743 22.3805 17.2907 21.2534 20.1241 21.2498H35.8741C38.7075 21.2534 41.4238 22.3805 43.4273 24.384C45.4308 26.3875 46.558 29.1038 46.5615 31.9372C46.5615 32.3847 46.3838 32.8139 46.0673 33.1304C45.7508 33.4469 45.3216 33.6247 44.874 33.6247Z" fill="#8F6DFF"/>
<path d="M20.7151 48V43.3455H21.9788V46.9818H23.8606V48H20.7151ZM25.827 43.3455V48H24.5634V43.3455H25.827ZM27.8906 43.3455L28.8451 46.6273H28.8815L29.8361 43.3455H31.2633L29.727 48H27.9997L26.4633 43.3455H27.8906ZM31.9036 48V43.3455H35.2582V44.3636H33.1673V45.1636H35.0854V46.1818H33.1673V46.9818H35.2491V48H31.9036Z" fill="#8F6DFF"/>
</svg>
