<svg width="26" height="24" viewBox="0 0 26 24" fill="none" xmlns="http://www.w3.org/2000/svg">
<path d="M20.5 19.5H5.5C2.91244 19.4969 0.815605 17.4001 0.8125 14.8125V5.4375C0.815605 2.84994 2.91244 0.753105 5.5 0.75H20.5C23.0876 0.753105 25.1844 2.84994 25.1875 5.4375V14.8125C25.1844 17.4001 23.0876 19.4969 20.5 19.5ZM5.5 2.625C3.94668 2.625 2.6875 3.88418 2.6875 5.4375V14.8125C2.6875 16.3658 3.94668 17.625 5.5 17.625H20.5C22.0533 17.625 23.3125 16.3658 23.3125 14.8125V5.4375C23.3125 3.88418 22.0533 2.625 20.5 2.625H5.5ZM22.375 23.25H3.625C3.10721 23.25 2.6875 22.8303 2.6875 22.3125C2.6875 21.7947 3.10721 21.375 3.625 21.375H22.375C22.8928 21.375 23.3125 21.7947 23.3125 22.3125C23.3125 22.8303 22.8928 23.25 22.375 23.25Z" fill="white"/>
<path d="M11.231 15.0668C10.1974 15.0621 9.36059 14.2254 9.35596 13.1918V7.06147C9.35596 6.02594 10.1955 5.18646 11.231 5.18652C11.5601 5.18653 11.8834 5.27317 12.1685 5.43772L17.4738 8.50146C18.3705 9.01926 18.6778 10.166 18.16 11.0628C17.9954 11.3478 17.7588 11.5844 17.4738 11.749L12.1685 14.8127C11.8839 14.9787 11.5604 15.0663 11.231 15.0668ZM16.5372 10.1252L11.231 7.06147V13.189L16.5372 10.1252Z" fill="white"/>
</svg>
