<svg width="28" height="28" viewBox="0 0 28 28" fill="none" xmlns="http://www.w3.org/2000/svg">
<path d="M14 1C4.05882 1 1 4.05882 1 14C1 23.9412 4.05882 27 14 27C23.9412 27 27 23.9412 27 14C27 4.05882 23.9412 1 14 1Z" fill="white"/>
<path d="M10.533 11.6461C10.67 11.0981 11.0978 10.6702 11.6458 10.5332L16.9344 9.21112C18.0544 8.93109 19.069 9.9457 18.7889 11.0659L17.4669 16.3543C17.3299 16.9022 16.902 17.3302 16.3541 17.4671L11.0656 18.7892C9.94545 19.0693 8.93084 18.0547 9.21088 16.9345L10.533 11.6461Z" fill="#F02829"/>
</svg>
