<svg width="32" height="32" viewBox="0 0 32 32" fill="none" xmlns="http://www.w3.org/2000/svg">
<path d="M16.0001 8.51184C16.5395 8.51184 16.9768 8.94915 16.9768 9.48858V16.2467L19.2164 14.0073C19.5979 13.6258 20.2162 13.6258 20.5977 14.0073C20.9791 14.3887 20.9791 15.0071 20.5977 15.3885L16.6907 19.2955C16.5076 19.4787 16.2591 19.5816 16.0001 19.5816C15.741 19.5816 15.4926 19.4787 15.3095 19.2955L11.4024 15.3885C11.021 15.0071 11.021 14.3887 11.4024 14.0073C11.7839 13.6258 12.4023 13.6258 12.7838 14.0073L15.0233 16.2467V9.48858C15.0233 8.94915 15.4607 8.51184 16.0001 8.51184Z" fill="white"/>
<path d="M9.8139 22.5119C9.8139 21.9725 10.2512 21.5352 10.7906 21.5352H21.2093C21.7487 21.5352 22.186 21.9725 22.186 22.5119C22.186 23.0513 21.7487 23.4886 21.2093 23.4886H10.7906C10.2512 23.4886 9.8139 23.0513 9.8139 22.5119Z" fill="white"/>
<path fill-rule="evenodd" clip-rule="evenodd" d="M15.9252 2C12.919 1.99999 10.563 1.99997 8.72482 2.24712C6.84331 2.50008 5.35863 3.02796 4.1933 4.1933C3.02796 5.35863 2.50008 6.84331 2.24712 8.72483C1.99997 10.563 1.99999 12.919 2 15.9252V16.0748C1.99999 19.081 1.99997 21.4369 2.24712 23.2752C2.50008 25.1567 3.02796 26.6414 4.1933 27.8068C5.35863 28.9721 6.84331 29.4999 8.72482 29.753C10.563 30 12.919 30 15.9252 30H16.0748C19.081 30 21.4369 30 23.2752 29.753C25.1567 29.4999 26.6414 28.9721 27.8068 27.8068C28.9721 26.6414 29.4999 25.1567 29.753 23.2752C30 21.4369 30 19.081 30 16.0748V15.9252C30 12.919 30 10.563 29.753 8.72483C29.4999 6.84331 28.9721 5.35863 27.8068 4.1933C26.6414 3.02796 25.1567 2.50008 23.2752 2.24712C21.4369 1.99997 19.081 1.99999 16.0748 2H15.9252ZM5.57462 5.57462C6.31649 4.83274 7.32022 4.40702 8.98513 4.18318C10.6781 3.95556 12.9028 3.95349 16 3.95349C19.0972 3.95349 21.3218 3.95556 23.0148 4.18318C24.6797 4.40702 25.6834 4.83274 26.4254 5.57462C27.1673 6.31649 27.593 7.32022 27.8168 8.98513C28.0444 10.6781 28.0465 12.9028 28.0465 16C28.0465 19.0972 28.0444 21.3218 27.8168 23.0148C27.593 24.6797 27.1673 25.6834 26.4254 26.4254C25.6834 27.1673 24.6797 27.593 23.0148 27.8168C21.3218 28.0444 19.0972 28.0465 16 28.0465C12.9028 28.0465 10.6781 28.0444 8.98513 27.8168C7.32022 27.593 6.31649 27.1673 5.57462 26.4254C4.83274 25.6834 4.40702 24.6797 4.18318 23.0148C3.95556 21.3218 3.95349 19.0972 3.95349 16C3.95349 12.9028 3.95556 10.6781 4.18318 8.98513C4.40702 7.32022 4.83274 6.31649 5.57462 5.57462Z" fill="white"/>
</svg>
