<svg width="28" height="28" viewBox="0 0 28 28" fill="none" xmlns="http://www.w3.org/2000/svg">
<path d="M10.5997 11.612C11.7481 11.612 12.8706 11.2715 13.8254 10.6336C14.7802 9.99558 15.5244 9.0888 15.9638 8.02789C16.4033 6.96698 16.5182 5.79958 16.2942 4.67333C16.0702 3.54707 15.5172 2.51253 14.7052 1.70055C13.8932 0.88856 12.8587 0.33559 11.7324 0.111564C10.6062 -0.112463 9.43879 0.00251565 8.37788 0.44196C7.31697 0.881404 6.41019 1.62558 5.77222 2.58037C5.13424 3.53517 4.79372 4.6577 4.79372 5.80602C4.79553 7.34532 5.40782 8.82106 6.49627 9.9095C7.58471 10.998 9.06045 11.6102 10.5997 11.612ZM10.5997 2.04919C11.3428 2.04919 12.0691 2.26952 12.6869 2.68233C13.3047 3.09513 13.7863 3.68187 14.0706 4.36834C14.355 5.05482 14.4294 5.81019 14.2844 6.53895C14.1394 7.2677 13.7816 7.93711 13.2562 8.46251C12.7308 8.98791 12.0614 9.34572 11.3327 9.49067C10.6039 9.63563 9.84854 9.56123 9.16207 9.27689C8.47559 8.99254 7.88886 8.51102 7.47605 7.89321C7.06324 7.2754 6.84291 6.54906 6.84291 5.80602C6.84399 4.80998 7.24015 3.85505 7.94446 3.15074C8.64877 2.44643 9.6037 2.05027 10.5997 2.04919ZM2.04918 21.5438C2.04918 23.679 2.96858 24.5902 5.12296 24.5902H10.5875C10.8592 24.5902 11.1198 24.6982 11.3119 24.8903C11.5041 25.0825 11.612 25.3431 11.612 25.6148C11.612 25.8865 11.5041 26.1472 11.3119 26.3393C11.1198 26.5314 10.8592 26.6394 10.5875 26.6394H5.12296C1.81968 26.6394 0 24.8293 0 21.5438C0 17.9071 2.05738 13.6612 7.85521 13.6612H13.3197C14.3724 13.6429 15.4199 13.8131 16.4126 14.164C16.6481 14.2723 16.8337 14.4659 16.9321 14.7057C17.0305 14.9455 17.0344 15.2137 16.9429 15.4563C16.8515 15.6988 16.6715 15.8977 16.4392 16.0128C16.2069 16.1279 15.9397 16.1507 15.6913 16.0765C14.9289 15.8142 14.1257 15.6902 13.3197 15.7104H7.85521C7.07506 15.6503 6.29116 15.7602 5.5576 16.0325C4.82405 16.3047 4.15831 16.7329 3.60633 17.2875C3.05435 17.8421 2.62927 18.5098 2.36043 19.2447C2.0916 19.9795 1.98541 20.7639 2.04918 21.5438ZM27.3047 15.8825L25.7828 14.362C25.5617 14.139 25.2984 13.9622 25.0083 13.8419C24.7182 13.7216 24.407 13.6602 24.0929 13.6612C23.7785 13.6606 23.467 13.7225 23.1767 13.8432C22.8863 13.964 22.6229 14.1413 22.4017 14.3648L13.9631 22.8429C13.8681 22.9377 13.7927 23.0504 13.7414 23.1744C13.69 23.2984 13.6637 23.4314 13.664 23.5656V26.9809C13.664 27.2527 13.7719 27.5133 13.9641 27.7054C14.1562 27.8976 14.4168 28.0055 14.6886 28.0055H18.1039C18.3746 28.0052 18.6342 27.8982 18.8265 27.7077L27.2965 19.2678C27.5195 19.0459 27.6964 18.7821 27.8171 18.4917C27.9378 18.2012 28 17.8897 28 17.5752C28 17.2606 27.9378 16.9491 27.8171 16.6587C27.6964 16.3682 27.5195 16.1044 27.2965 15.8825H27.3047ZM17.6776 25.9563H15.7104V23.9891L21.3416 18.332L23.3347 20.3252L17.6776 25.9563ZM25.8552 17.8156L24.7869 18.8798L22.7883 16.8798L23.8525 15.8101C23.884 15.7784 23.9214 15.7533 23.9627 15.7362C24.004 15.719 24.0483 15.7103 24.0929 15.7104C24.1835 15.7105 24.2704 15.7464 24.3347 15.8101L25.8566 17.332C25.8885 17.3633 25.9138 17.4008 25.9309 17.4421C25.948 17.4834 25.9567 17.5277 25.9563 17.5724C25.9564 17.6176 25.9475 17.6624 25.9302 17.7042C25.9128 17.7459 25.8873 17.7838 25.8552 17.8156Z" fill="white"/>
</svg>
