<svg width="32" height="32" viewBox="0 0 32 32" fill="none" xmlns="http://www.w3.org/2000/svg">
<path fill-rule="evenodd" clip-rule="evenodd" d="M18.8252 27.6367C18.8252 26.669 18.0406 25.8844 17.0729 25.8844H14.9271C14.4624 25.8844 14.0167 26.069 13.6881 26.3977C13.3595 26.7263 13.1748 27.172 13.1748 27.6367C13.1748 28.6045 13.9594 29.389 14.9271 29.389H17.0729C18.0406 29.389 18.8252 28.6045 18.8252 27.6367ZM5.6838 23.1183C5.97649 23.1406 6.33059 23.1535 6.68628 23.1327C6.90922 24.2631 7.51768 25.2811 8.40774 26.0128C9.29781 26.7445 10.4143 27.1445 11.5665 27.1445H12.2351C12.1757 27.47 12.1755 27.8034 12.2347 28.1289H11.5665C10.1505 28.1289 8.78077 27.6246 7.7028 26.7065C6.62483 25.7883 5.90908 24.5162 5.6838 23.1183ZM5.18309 22.0708C4.29315 21.9208 3.48514 21.4603 2.90243 20.7712C2.31973 20.082 2 19.2087 2 18.3062L2 15.9796C2 14.967 2.40223 13.996 3.1182 13.28C3.83417 12.564 4.80524 12.1618 5.81779 12.1617H6.07192C6.47814 7.03446 10.7679 3 16 3C21.2321 3 25.5219 7.03446 25.9281 12.1617H26.1822C27.1948 12.1618 28.1658 12.564 28.8818 13.28C29.5978 13.996 30 14.967 30 15.9796V18.3062C30 19.3187 29.5978 20.2898 28.8818 21.0058C28.1658 21.7217 27.1948 22.124 26.1822 22.124H25.0556C24.5883 22.124 24.2096 21.7452 24.2096 21.278V12.9596C24.2096 8.42555 20.534 4.75 16 4.75C11.466 4.75 7.79042 8.42555 7.79042 12.9596V21.278C7.79042 21.6079 7.60159 21.8937 7.32607 22.0332C6.56766 22.2964 5.3915 22.106 5.18309 22.0708Z" fill="white"/>
</svg>
