<svg width="28" height="28" viewBox="0 0 28 28" fill="none" xmlns="http://www.w3.org/2000/svg">
<path d="M10.6576 24.2352V20.6679C10.6576 19.7573 11.4012 19.019 12.3185 19.019H15.6717C16.1122 19.019 16.5347 19.1928 16.8462 19.502C17.1576 19.8112 17.3326 20.2306 17.3326 20.6679V24.2352C17.3299 24.6138 17.4794 24.9779 17.7481 25.2466C18.0168 25.5152 18.3824 25.6663 18.7638 25.6663H21.0515C22.1199 25.6691 23.1455 25.2497 23.902 24.5006C24.6585 23.7516 25.0837 22.7345 25.0837 21.6738V11.511C25.0837 10.6542 24.7011 9.84149 24.0391 9.29179L16.2567 3.12152C14.9029 2.03966 12.9633 2.07459 11.65 3.20448L4.04517 9.29179C3.35186 9.82529 2.93747 10.6404 2.91699 11.511V21.6634C2.91699 23.8742 4.72227 25.6663 6.9492 25.6663H9.18467C9.97676 25.6663 10.6205 25.0319 10.6262 24.2456L10.6576 24.2352Z" fill="white"/>
</svg>
