<svg width="17" height="16" viewBox="0 0 17 16" fill="none" xmlns="http://www.w3.org/2000/svg">
<path d="M12.6197 16H3.60563C3.42633 16 3.25437 15.9288 3.12759 15.802C3.0008 15.6752 2.92958 15.5032 2.92958 15.3239C2.92958 15.1446 3.0008 14.9727 3.12759 14.8459C3.25437 14.7191 3.42633 14.6479 3.60563 14.6479H12.6197C12.799 14.6479 12.971 14.7191 13.0978 14.8459C13.2245 14.9727 13.2958 15.1446 13.2958 15.3239C13.2958 15.5032 13.2245 15.6752 13.0978 15.802C12.971 15.9288 12.799 16 12.6197 16ZM16.2254 2.91245V9.70727C16.2254 11.6489 15.3239 12.6197 13.5211 12.6197H2.70423C0.901408 12.6197 0 11.6489 0 9.70727V2.91245C0 0.970817 0.901408 0 2.70423 0H13.5211C15.3239 0 16.2254 0.970817 16.2254 2.91245ZM10.4392 5.63741L7.60158 3.90039C7.47316 3.82163 7.32609 3.77849 7.17548 3.7754C7.02487 3.77231 6.87615 3.80938 6.74461 3.88282C6.61308 3.95625 6.50347 4.06338 6.42706 4.19321C6.35065 4.32304 6.3102 4.47088 6.30986 4.62152V7.9982C6.3102 8.14884 6.35065 8.29668 6.42706 8.4265C6.50347 8.55633 6.61308 8.66347 6.74461 8.7369C6.87615 8.81034 7.02487 8.84741 7.17548 8.84432C7.32609 8.84123 7.47316 8.79809 7.60158 8.71932L10.4392 6.98321C10.5549 6.91308 10.6505 6.81431 10.7169 6.69644C10.7833 6.57857 10.8181 6.44558 10.8181 6.31031C10.8181 6.17504 10.7833 6.04205 10.7169 5.92418C10.6505 5.80631 10.5549 5.70754 10.4392 5.63741Z" fill="white"/>
</svg>
