<svg width="18" height="18" viewBox="0 0 18 18" fill="none" xmlns="http://www.w3.org/2000/svg">
<path d="M14.5385 0H3.46154C1.22954 0 0 1.30523 0 3.67477V10.6329C0 13.0025 1.22954 14.3077 3.46154 14.3077H14.5385C16.7705 14.3077 18 13.0025 18 10.6329V3.67477C18 1.30523 16.7705 0 14.5385 0ZM16.6154 10.6329C16.6154 12.2382 15.9942 12.9231 14.5385 12.9231H3.46154C2.00585 12.9231 1.38462 12.2382 1.38462 10.6329V3.67477C1.38462 2.06954 2.00585 1.38462 3.46154 1.38462H14.5385C15.9942 1.38462 16.6154 2.06954 16.6154 3.67477V10.6329ZM14.3077 16.3846C14.3077 16.5682 14.2348 16.7443 14.1049 16.8742C13.9751 17.004 13.799 17.0769 13.6154 17.0769H4.38462C4.201 17.0769 4.02491 17.004 3.89508 16.8742C3.76525 16.7443 3.69231 16.5682 3.69231 16.3846C3.69231 16.201 3.76525 16.0249 3.89508 15.8951C4.02491 15.7652 4.201 15.6923 4.38462 15.6923H13.6154C13.799 15.6923 13.9751 15.7652 14.1049 15.8951C14.2348 16.0249 14.3077 16.201 14.3077 16.3846ZM11.7443 5.87538L8.83754 4.09662C8.60072 3.9517 8.32957 3.87249 8.05198 3.86714C7.77439 3.86178 7.50039 3.93048 7.25815 4.06615C7.01528 4.19987 6.81304 4.39671 6.67282 4.63589C6.53259 4.87506 6.4596 5.14768 6.46154 5.42492V8.88277C6.4596 9.16001 6.53259 9.43263 6.67282 9.6718C6.81304 9.91098 7.01528 10.1078 7.25815 10.2415C7.50036 10.3773 7.77437 10.4461 8.05198 10.4407C8.32959 10.4353 8.60075 10.3561 8.83754 10.2111L11.7434 8.43323C11.9626 8.29947 12.1438 8.11158 12.2695 7.88762C12.3952 7.66366 12.4613 7.41114 12.4613 7.15431C12.4613 6.89747 12.3952 6.64495 12.2695 6.42099C12.1438 6.19703 11.9636 6.00915 11.7443 5.87538ZM11.0206 7.25169L8.11477 9.03046C8.08823 9.04677 8.05785 9.05576 8.02671 9.05652C7.99557 9.05727 7.96479 9.04976 7.9375 9.03475C7.9102 9.01975 7.88737 8.99778 7.87133 8.97108C7.85528 8.94438 7.8466 8.91391 7.84615 8.88277V5.42492C7.84578 5.39357 7.85425 5.36275 7.87057 5.33598C7.88689 5.30921 7.91042 5.28757 7.93846 5.27354C7.96505 5.25882 7.99485 5.2509 8.02523 5.25046C8.05794 5.25026 8.09001 5.25956 8.11754 5.27723L11.0234 7.056C11.0406 7.0655 11.0549 7.07957 11.0647 7.09667C11.0745 7.11377 11.0793 7.13324 11.0788 7.15292C11.0792 7.17316 11.074 7.19313 11.0637 7.21058C11.0535 7.22802 11.0385 7.24226 11.0206 7.25169Z" fill="#7D8088"/>
</svg>
