<svg width="144" height="154" viewBox="0 0 144 154" fill="none" xmlns="http://www.w3.org/2000/svg">
<g opacity="0.26">
<path d="M73.832 137.675L69.9965 139.321L70.254 116.611C70.3758 113.893 69.1228 112.734 68.4441 111.961C62.2837 104.955 53.0882 110.036 53.0081 117.144L52.7784 137.438L49.0508 137.397L49.4232 116.159C49.451 113.767 51.3096 109.615 53.1856 108.129C63.5575 99.9151 74.1696 108.404 74.0686 117.38L73.8389 137.675H73.832Z" fill="#F5F5F5"/>
<path d="M73.8317 137.68C73.8317 137.68 73.8317 137.54 73.8317 137.272C73.8317 137.004 73.8352 136.611 73.8387 136.092C73.8456 135.055 73.8595 133.534 73.8735 131.578C73.8909 129.622 73.9117 127.228 73.9361 124.45C73.95 123.061 73.9639 121.579 73.9779 120.002C73.9639 118.432 74.1206 116.755 73.7969 115.035C73.4976 113.32 72.7771 111.593 71.6599 110.055C71.5172 109.863 71.3814 109.669 71.2318 109.481C71.0717 109.303 70.9116 109.122 70.7514 108.941C70.4452 108.565 70.0588 108.259 69.7038 107.914C69.5228 107.744 69.314 107.608 69.1226 107.451C68.9207 107.305 68.7362 107.135 68.517 107.009C68.0889 106.748 67.6712 106.456 67.2013 106.247C66.2999 105.76 65.294 105.457 64.2708 105.196C64.0097 105.154 63.7487 105.109 63.4842 105.067L63.0909 105.001C62.9586 104.987 62.8229 104.984 62.6906 104.973C62.4226 104.956 62.1546 104.942 61.8831 104.925C61.6116 104.921 61.3402 104.942 61.0687 104.949C58.8899 105.026 56.6833 105.77 54.7759 107.044C53.8223 107.688 52.9661 108.492 52.2004 109.383C51.4486 110.292 50.836 111.322 50.3453 112.422C49.8754 113.532 49.583 114.722 49.4334 115.937C49.329 117.159 49.3568 118.412 49.3324 119.671C49.2767 124.708 49.2176 129.922 49.1584 135.264C49.1515 135.978 49.141 136.688 49.1341 137.394L49.047 137.307C50.3139 137.321 51.5634 137.335 52.7747 137.349L52.6876 137.436C52.7329 133.399 52.7781 129.452 52.8234 125.613C52.8443 123.695 52.8686 121.802 52.8895 119.943C52.9 119.014 52.9104 118.091 52.9208 117.176C52.9452 116.254 53.0914 115.345 53.3698 114.482C53.9545 112.766 55.0474 111.266 56.4535 110.239C56.6311 110.117 56.7981 109.971 56.9861 109.867L57.5429 109.536C57.9293 109.352 58.3087 109.146 58.7159 109.021C59.1126 108.861 59.5268 108.774 59.934 108.673C60.1394 108.631 60.3482 108.61 60.5571 108.579L60.8668 108.534L61.1801 108.52C62.0119 108.454 62.8333 108.565 63.6234 108.725C64.4135 108.91 65.1618 109.209 65.8579 109.578C67.2292 110.354 68.3777 111.447 69.1295 112.735C69.5333 113.361 69.7943 114.054 70.024 114.733C70.2085 115.429 70.3512 116.125 70.3686 116.824C70.3756 116.998 70.3825 117.172 70.3895 117.343C70.3895 117.514 70.386 117.684 70.3825 117.855C70.379 118.192 70.3756 118.53 70.3686 118.864C70.3616 119.529 70.3512 120.183 70.3442 120.824C70.3129 123.385 70.2816 125.738 70.2537 127.861C70.1946 132.104 70.1493 135.424 70.118 137.631L70.0936 137.606C71.3605 137.627 72.2898 137.641 72.9059 137.652C73.2122 137.659 73.4384 137.662 73.595 137.666C73.7482 137.669 73.8247 137.673 73.8247 137.673C73.8247 137.673 73.7551 137.673 73.6055 137.673C73.4523 137.673 73.2261 137.673 72.9233 137.673C72.3037 137.669 71.371 137.662 70.0971 137.655H70.0727V137.631C70.0936 135.424 70.1215 132.104 70.1598 127.861C70.1806 125.738 70.205 123.385 70.2294 120.824C70.2363 120.183 70.2433 119.529 70.2503 118.864C70.2503 118.53 70.2572 118.196 70.2607 117.855C70.2607 117.684 70.2607 117.514 70.2642 117.343C70.2572 117.172 70.2503 117.002 70.2433 116.831C70.2259 116.146 70.0832 115.457 69.9022 114.771C69.6725 114.103 69.4149 113.42 69.0147 112.804C68.2733 111.541 67.1387 110.466 65.7882 109.703C65.1026 109.341 64.3682 109.049 63.5886 108.868C62.8089 108.711 62.0015 108.603 61.1835 108.67L60.8773 108.684L60.5745 108.725C60.3726 108.757 60.1672 108.777 59.9654 108.819C59.5651 108.92 59.1579 109.004 58.7681 109.16C58.3678 109.286 57.9954 109.488 57.616 109.665L57.0696 109.989C56.8816 110.093 56.7215 110.232 56.5475 110.354C55.1692 111.367 54.0972 112.839 53.523 114.524C53.2515 115.37 53.1053 116.264 53.0844 117.169C53.074 118.084 53.0635 119.007 53.0531 119.936C53.0322 121.795 53.0113 123.688 52.9904 125.606C52.9487 129.445 52.9034 133.392 52.8582 137.429V137.516H52.7712C51.56 137.502 50.3105 137.488 49.0436 137.474H48.9565V137.387C48.9635 136.681 48.9739 135.971 48.9809 135.257C49.0436 129.915 49.1027 124.701 49.1584 119.665C49.1828 118.405 49.1584 117.162 49.2628 115.916C49.416 114.68 49.7118 113.476 50.1886 112.352C50.6864 111.238 51.3094 110.194 52.0716 109.275C52.8512 108.374 53.7179 107.559 54.6855 106.908C56.6206 105.617 58.8551 104.865 61.0617 104.792C61.3367 104.785 61.6117 104.764 61.8866 104.768L62.8229 104.827C62.9934 104.848 63.1674 104.865 63.338 104.886L64.1211 105.015C64.2429 105.039 64.3612 105.067 64.4831 105.092C65.4576 105.346 66.4078 105.645 67.2675 106.111C67.7408 106.324 68.162 106.62 68.597 106.884C68.8198 107.009 69.0042 107.183 69.2096 107.333C69.4045 107.49 69.6168 107.629 69.7978 107.799C70.1563 108.148 70.5461 108.457 70.8559 108.84C71.0194 109.025 71.1795 109.206 71.3396 109.387C71.4893 109.578 71.6251 109.776 71.7712 109.968C72.8954 111.524 73.6229 113.271 73.9187 115.004C74.2389 116.744 74.0788 118.429 74.0858 120.002C74.0649 121.582 74.044 123.072 74.0266 124.464C73.9883 127.245 73.9535 129.643 73.9257 131.603C73.8978 133.555 73.8735 135.073 73.8595 136.106C73.8491 136.618 73.8456 137.008 73.8387 137.272C73.8352 137.533 73.8282 137.666 73.8282 137.666L73.8317 137.68Z" fill="#E0E0E0"/>
<path d="M44.8008 124.131L78.5456 124.514C79.266 124.522 79.8406 125.113 79.8324 125.83L79.5366 151.908C79.5291 152.562 78.9941 153.085 78.3398 153.078L44.4767 152.694L44.8008 124.131Z" fill="#E0E0E0"/>
<path d="M44.6172 124.133L74.3039 124.47C75.0835 124.479 75.7097 125.119 75.7009 125.899L75.4125 151.319C75.4017 152.273 74.6168 153.04 73.6632 153.029L44.3384 152.696C43.5309 152.687 42.8841 152.026 42.8932 151.218L43.1847 125.53C43.1935 124.751 43.8341 124.124 44.6137 124.133L44.6172 124.133Z" fill="#EBEBEB"/>
<path d="M63.8438 136.119C63.8681 133.877 62.0374 132.043 59.7785 132.085C57.6694 132.123 55.9082 133.884 55.8665 135.993C55.8316 137.831 57.0463 139.38 58.7239 139.881L56.0579 145.352L62.9319 145.558L60.8993 139.905C62.5734 139.449 63.8229 137.942 63.8438 136.119Z" fill="#13151C"/>
<path d="M75.4454 150.361C75.3967 150.361 75.435 145.387 75.5325 139.251C75.6299 133.115 75.7448 128.141 75.7935 128.145C75.8422 128.145 75.8039 133.118 75.7065 139.254C75.609 145.387 75.4942 150.361 75.4454 150.361Z" fill="#FAFAFA"/>
<path d="M68.1916 125.263C68.1916 125.312 63.8132 125.36 58.4149 125.371C53.0132 125.381 48.6382 125.35 48.6382 125.301C48.6382 125.253 53.0132 125.204 58.4149 125.193C63.8132 125.183 68.1916 125.214 68.1916 125.263Z" fill="white"/>
<path d="M55.7147 138.168C55.7147 138.168 55.6416 138.088 55.5511 137.917C55.4606 137.747 55.3492 137.493 55.2518 137.158C55.0569 136.501 54.9733 135.505 55.3144 134.492C55.659 133.48 56.3342 132.742 56.8876 132.338C57.1661 132.133 57.4097 131.997 57.5837 131.92C57.7577 131.84 57.8622 131.812 57.8656 131.819C57.8796 131.847 57.4863 132.011 56.9642 132.435C56.4456 132.853 55.8121 133.577 55.4815 134.548C55.1543 135.519 55.2135 136.48 55.3701 137.127C55.5267 137.781 55.7425 138.15 55.7112 138.164L55.7147 138.168Z" fill="white"/>
<path d="M57.2702 140.077C57.2458 140.119 57.0092 140.018 56.7481 139.855C56.4836 139.691 56.2922 139.524 56.3165 139.482C56.3409 139.44 56.5776 139.541 56.8386 139.705C57.1031 139.868 57.2946 140.035 57.2702 140.077Z" fill="white"/>
<path d="M60.5977 105.839C60.5977 105.839 60.3575 105.871 59.9259 105.926C59.4944 105.979 58.8713 106.09 58.13 106.313C56.6508 106.741 54.6599 107.733 53.0867 109.515C51.517 111.3 50.7792 113.399 50.539 114.92C50.4137 115.686 50.3824 116.316 50.3824 116.751C50.3824 117.186 50.3963 117.426 50.3824 117.429C50.3754 117.429 50.3685 117.37 50.3546 117.255C50.3441 117.141 50.3198 116.974 50.3163 116.754C50.2954 116.316 50.3058 115.679 50.4207 114.903C50.633 113.361 51.3604 111.217 52.958 109.4C54.559 107.587 56.5951 106.598 58.0987 106.194C58.8539 105.986 59.4874 105.895 59.9225 105.86C60.1417 105.836 60.3123 105.839 60.4271 105.836C60.542 105.836 60.6012 105.836 60.6046 105.843L60.5977 105.839Z" fill="white"/>
<path d="M50.1977 120.506C50.149 120.506 50.1211 120.04 50.1316 119.469C50.142 118.895 50.1942 118.432 50.2395 118.436C50.2882 118.436 50.316 118.902 50.3056 119.476C50.2952 120.051 50.2429 120.513 50.1977 120.51V120.506Z" fill="white"/>
</g>
<path d="M6.26813 133.836L0.0136719 142.331L10.5457 150.17C11.2313 149.118 7.28792 143.041 7.28792 143.041L11.5202 137.762L6.27162 133.832L6.26813 133.836Z" fill="#0E9D90"/>
<path d="M4.36778 140.16C4.12415 140.063 3.8109 140.188 3.70649 140.428C3.60207 140.668 3.72389 140.989 3.96752 141.086C4.21116 141.187 4.59053 141.048 4.66711 140.797C4.74368 140.546 4.58009 140.181 4.31906 140.143" fill="white"/>
<path d="M0 142.347L0.664776 141.436L10.5042 149.357C10.5042 149.357 10.8174 149.911 10.5181 150.199L0 142.344V142.347Z" fill="#2E4C52"/>
<path d="M7.49702 143.115C7.45874 143.164 7.18378 142.997 6.80788 142.976C6.43199 142.945 6.13614 143.07 6.10482 143.014C6.06653 142.969 6.36934 142.718 6.82528 142.753C7.28123 142.785 7.54575 143.077 7.5005 143.115H7.49702Z" fill="#2E4C52"/>
<path d="M8.26157 144.398C8.23721 144.457 7.94833 144.377 7.61072 144.464C7.27311 144.541 7.05384 144.743 7.00163 144.704C6.94594 144.676 7.13737 144.349 7.55503 144.248C7.97617 144.144 8.2929 144.346 8.25809 144.398H8.26157Z" fill="#2E4C52"/>
<path d="M7.90406 146.187C7.84837 146.162 7.97019 145.853 8.31128 145.668C8.65237 145.484 8.97605 145.553 8.96561 145.612C8.96561 145.675 8.69413 145.71 8.41569 145.866C8.13377 146.016 7.95627 146.222 7.90406 146.187Z" fill="#2E4C52"/>
<path d="M8.32865 141.811C8.27296 141.842 8.08849 141.595 7.78221 141.4C7.4794 141.198 7.18356 141.125 7.18704 141.063C7.18704 141.003 7.54901 140.976 7.90403 141.212C8.26252 141.445 8.38085 141.79 8.32517 141.811H8.32865Z" fill="#2E4C52"/>
<path d="M31.7282 98.2865C31.9196 99.3516 32.2155 108.411 32.4069 113.19C32.5983 117.969 32.1215 120.322 31.5751 121.39C31.0286 122.459 10.4206 137.648 8.85087 141.285L3.64404 137.077C3.64404 137.077 11.2872 123.329 14.5659 120.833C17.8445 118.338 24.1094 116.041 24.1094 116.041L22.3274 89.8707L30.8859 89.4043L31.7282 98.2865Z" fill="#2E4C52"/>
<path d="M12.5768 142.238L12.4863 152.791L25.6148 152.972C25.5556 151.716 18.8 149.105 18.8 149.105L19.1341 142.346L12.5803 142.238H12.5768Z" fill="#0E9D90"/>
<path d="M14.7459 148.476C14.4919 148.542 14.3109 148.824 14.3666 149.082C14.4222 149.339 14.7076 149.524 14.9652 149.461C15.2228 149.398 15.4455 149.068 15.362 148.817C15.2784 148.567 14.9304 148.368 14.6972 148.49" fill="white"/>
<path d="M12.4834 152.813V151.682L25.1037 152.336C25.1037 152.336 25.6815 152.6 25.6084 153.011L12.4834 152.809V152.813Z" fill="#2E4C52"/>
<path d="M19.0098 149.04C19.0098 149.103 18.6861 149.127 18.3659 149.329C18.0422 149.524 17.8751 149.799 17.816 149.771C17.7568 149.757 17.8577 149.374 18.2475 149.137C18.6339 148.897 19.0202 148.977 19.0063 149.037L19.0098 149.04Z" fill="#2E4C52"/>
<path d="M20.377 149.629C20.391 149.692 20.1125 149.796 19.8898 150.064C19.6601 150.325 19.6009 150.617 19.5382 150.614C19.4791 150.624 19.4373 150.249 19.7192 149.918C19.9977 149.587 20.377 149.566 20.377 149.626V149.629Z" fill="#2E4C52"/>
<path d="M21.1393 151.29C21.0802 151.304 20.9966 150.98 21.1672 150.632C21.3343 150.28 21.6371 150.148 21.6649 150.2C21.6997 150.253 21.5048 150.441 21.3691 150.729C21.2264 151.015 21.2055 151.286 21.1428 151.29H21.1393Z" fill="#2E4C52"/>
<path d="M18.9156 147.49C18.8877 147.549 18.5954 147.455 18.2334 147.476C17.8714 147.49 17.586 147.605 17.5547 147.549C17.5199 147.504 17.7983 147.267 18.2229 147.253C18.651 147.233 18.9469 147.441 18.9156 147.49Z" fill="#2E4C52"/>
<path d="M32.6772 88.3209C32.6772 88.9405 33.6761 104.533 28.5771 115.806C28.5771 115.806 26.8125 119.336 26.5028 120.878C26.193 122.423 19.5835 147.991 19.5835 147.991L11.9612 147.712C11.9612 147.712 10.7396 134.9 11.9751 127.487C13.2107 120.074 15.4661 120.937 15.4661 116.151C15.4661 111.365 14.328 101.432 14.328 101.432C14.328 101.432 12.6643 98.7172 12.097 93.4616C11.6375 89.1911 13.6458 84.6142 13.6458 84.6142L15.6366 81.0954L32.4509 80.2148L32.6772 88.3209Z" fill="#2E4C52"/>
<path d="M32.6779 88.3256C32.6779 88.3256 32.6779 88.1446 32.6744 87.7966C32.6675 87.4415 32.657 86.9195 32.6396 86.2373C32.6048 84.8625 32.5561 82.8368 32.49 80.2195V80.1777H32.4482C28.3169 80.3866 22.5775 80.6789 15.6339 81.0339H15.5956L15.5782 81.0687C14.9587 82.1616 14.2835 83.3554 13.5839 84.5875V84.5945C13.0827 85.8057 12.679 87.097 12.3866 88.4509C12.0873 89.8048 11.9202 91.2318 11.9655 92.6936C12.0594 94.1554 12.2961 95.6277 12.6511 97.1104C13.0201 98.5896 13.4899 100.079 14.2626 101.485L14.2522 101.451C14.541 104.047 14.8056 106.737 15.0353 109.508C15.1466 110.893 15.2476 112.299 15.3137 113.723C15.3485 114.433 15.3729 115.15 15.3798 115.87C15.3938 116.232 15.3659 116.587 15.359 116.949C15.3207 117.308 15.3033 117.67 15.2267 118.021C15.1014 118.731 14.8438 119.417 14.5062 120.064C14.1686 120.715 13.7892 121.359 13.4725 122.038C12.8251 123.395 12.4075 124.86 12.1047 126.354C11.4991 129.347 11.3738 132.458 11.3425 135.591C11.3285 139.733 11.5374 143.794 11.8784 147.727L11.8854 147.807H11.9655C14.5619 147.905 17.1062 147.995 19.5878 148.086H19.6609L19.6783 148.02C21.8849 139.454 23.9488 131.449 25.7622 124.251C25.9849 123.35 26.2042 122.462 26.4235 121.589C26.5348 121.147 26.6079 120.708 26.7437 120.291C26.8759 119.869 27.0326 119.459 27.1927 119.055C27.5198 118.247 27.8714 117.464 28.2298 116.702C28.3203 116.511 28.4108 116.323 28.5013 116.135C28.5953 115.95 28.6858 115.759 28.7589 115.564C28.9155 115.178 29.0721 114.798 29.2253 114.419C30.426 111.38 31.1361 108.432 31.6338 105.742C32.6083 100.344 32.7371 95.9514 32.7823 92.9581C32.8032 89.9545 32.6814 88.3256 32.6814 88.3256C32.6814 88.3256 32.6814 88.4265 32.6814 88.6284C32.6884 88.8337 32.6953 89.1296 32.7058 89.5159C32.7267 90.299 32.7406 91.458 32.7197 92.9547C32.657 95.9479 32.5074 100.337 31.5189 105.721C31.0143 108.405 30.3007 111.346 29.0965 114.37C28.9434 114.746 28.7867 115.125 28.6301 115.508C28.557 115.703 28.47 115.888 28.3725 116.076C28.2821 116.264 28.1916 116.455 28.0976 116.643C27.7356 117.409 27.3806 118.192 27.05 119.003C26.8864 119.41 26.7298 119.824 26.594 120.249C26.4548 120.677 26.3782 121.122 26.2668 121.554C26.0476 122.428 25.8283 123.315 25.6021 124.217C23.7539 131.407 21.6969 139.412 19.4938 147.978L19.5843 147.912C17.1027 147.821 14.5584 147.727 11.962 147.633L12.049 147.717C11.7114 143.794 11.5026 139.733 11.5165 135.601C11.5513 132.476 11.6731 129.371 12.2752 126.399C12.5746 124.916 12.9922 123.465 13.6291 122.125C13.9424 121.453 14.3183 120.816 14.6594 120.155C15.0039 119.497 15.2685 118.79 15.3972 118.06C15.4773 117.698 15.4947 117.329 15.533 116.967C15.5399 116.601 15.5678 116.236 15.5539 115.874C15.5469 115.15 15.5225 114.433 15.4877 113.719C15.4181 112.292 15.3172 110.886 15.2058 109.501C14.9761 106.73 14.7081 104.037 14.4157 101.437V101.419L14.4053 101.402C13.6535 100.034 13.1767 98.5409 12.8077 97.079C12.4562 95.6103 12.2161 94.1346 12.1221 92.6936C12.0768 91.2492 12.2369 89.8326 12.5328 88.4892C12.8217 87.1422 13.2219 85.8544 13.7162 84.6571V84.6641C14.4088 83.432 15.0805 82.2347 15.7 81.1418L15.6444 81.1766C22.588 80.8007 28.3273 80.491 32.4552 80.2682L32.4134 80.2299C32.4935 82.8438 32.5561 84.8694 32.6014 86.2442C32.6257 86.9264 32.6431 87.4485 32.6536 87.8035C32.6675 88.155 32.6779 88.3325 32.6779 88.3325V88.3256Z" fill="#13151C"/>
<path d="M27.211 56.3829C27.211 56.3829 22.6689 55.5824 23.1075 61.4053C23.3685 64.8928 24.3953 70.8583 24.9626 74.6695C25.1575 75.9886 25.5891 78.3484 27.3328 79.7336L39.8278 88.3827L43.7712 83.6666L32.6127 73.0371L30.8585 62.526L27.211 56.3795V56.3829Z" fill="#0E9D90"/>
<path d="M27.7399 35.4062C29.1808 36.5409 30.0057 38.4204 29.863 40.2511C29.7934 41.1386 29.5498 42.1549 30.1275 42.8336C30.6983 43.5054 31.826 43.4845 32.3725 44.1771C33.0198 44.9916 32.4769 46.2028 32.7101 47.2156C32.9259 48.1658 33.9317 48.8688 34.8993 48.7435C33.7647 49.6693 32.369 50.275 30.9176 50.4699C30.5452 49.993 30.1763 49.5162 29.8039 49.0394C30.225 49.5406 30.1136 50.3376 29.7064 50.8492C29.2992 51.3609 28.6657 51.6393 28.0427 51.8377C25.0599 52.7844 21.6421 52.2275 19.1152 50.3863" fill="#2E4C52"/>
<path d="M11.0254 43.258C11.2481 42.5758 11.6205 41.9458 11.7702 41.2428C12.0939 39.7357 11.3595 38.0407 12.0904 36.6833C12.6125 35.7192 13.7193 35.2459 14.7669 34.9222C15.8146 34.5985 16.9388 34.327 17.7219 33.5578C18.2962 32.994 18.6198 32.2178 19.1941 31.6505C20.0086 30.843 21.2093 30.5716 22.3544 30.4985C23.5308 30.4254 24.7455 30.5402 25.8001 31.0588C26.8582 31.5774 27.7353 32.552 27.9232 33.7144C28.0137 34.2818 27.9441 34.8735 28.1251 35.4199C28.32 36.0185 28.7933 36.4849 29.0822 37.0453C29.6948 38.2287 29.3641 39.8227 28.327 40.665L20.2592 51.0856C18.5641 51.726 14.4572 50.9499 13.1485 49.7004C11.8398 48.4474 10.4615 44.9808 11.0219 43.258H11.0254Z" fill="#2E4C52"/>
<path d="M28.116 39.3448C27.7818 36.978 25.9824 34.1832 23.6331 34.6148L16.3797 37.0546C15.6662 37.1869 16.1779 38.3494 16.2475 39.0733L17.8241 55.4317C17.8241 55.4317 16.8461 56.1312 16.4946 55.9955C16.4041 55.9607 16.324 56.0616 16.3762 56.1417C17.2464 57.4051 21.3603 62.9356 25.5961 61.2476C26.5428 60.8717 25.4986 57.8889 25.6065 56.7821L25.4812 53.9594C25.3873 52.5185 25.342 51.9268 25.3455 51.9407C25.3455 51.9407 28.3457 51.2028 28.6694 47.1933C28.8295 45.199 28.4849 41.976 28.1125 39.3448H28.116Z" fill="#FFBF9D"/>
<path d="M27.6092 42.9832C27.6406 43.2512 27.4387 43.4983 27.1602 43.5331C26.8818 43.5679 26.6312 43.3834 26.5999 43.1154C26.5686 42.8474 26.7704 42.6003 27.0489 42.5655C27.3273 42.5272 27.5779 42.7152 27.6092 42.9832Z" fill="#2E4C52"/>
<path d="M22.6712 43.2898C22.7026 43.5578 22.5007 43.8049 22.2223 43.8397C21.9438 43.8745 21.6932 43.6901 21.6619 43.4221C21.6306 43.1541 21.8324 42.9069 22.1109 42.8721C22.3893 42.8339 22.6399 43.0218 22.6712 43.2898Z" fill="#2E4C52"/>
<path d="M27.7953 41.3056C27.7397 41.3996 27.2663 41.1003 26.6746 41.1873C26.0829 41.2639 25.7036 41.6781 25.627 41.605C25.5887 41.5736 25.634 41.4101 25.801 41.2256C25.9611 41.0411 26.257 40.8393 26.6259 40.787C26.9948 40.7383 27.329 40.8497 27.5343 40.9854C27.7431 41.1212 27.8267 41.2639 27.7988 41.3056H27.7953Z" fill="#2E4C52"/>
<path d="M22.4771 41.749C22.4075 41.836 21.9411 41.4984 21.3041 41.5227C20.6672 41.5401 20.2147 41.9091 20.1417 41.829C20.1069 41.7942 20.173 41.6411 20.3714 41.474C20.5628 41.3069 20.9004 41.1399 21.2972 41.1259C21.694 41.112 22.0351 41.2547 22.2334 41.4079C22.4353 41.561 22.5084 41.7072 22.4771 41.7455V41.749Z" fill="#2E4C52"/>
<path d="M24.4759 45.4902C24.4724 45.4589 24.8065 45.3754 25.3529 45.2605C25.4922 45.2362 25.6209 45.1979 25.6383 45.1004C25.6627 44.996 25.5931 44.8498 25.513 44.6932C25.3564 44.366 25.1894 44.0215 25.0188 43.663C24.3297 42.1942 23.818 40.9795 23.8772 40.9517C23.9364 40.9238 24.5455 42.0933 25.2346 43.562C25.4017 43.924 25.5618 44.2721 25.7114 44.6027C25.7776 44.7558 25.882 44.9299 25.8263 45.1457C25.7985 45.2536 25.701 45.3371 25.614 45.3684C25.527 45.4032 25.4469 45.4102 25.3808 45.4206C24.8274 45.4937 24.4863 45.5216 24.4793 45.4902H24.4759Z" fill="#2E4C52"/>
<path d="M25.3488 51.9351C25.3488 51.9351 22.6966 52.311 19.9331 50.9258C19.9331 50.9258 21.4819 53.6058 25.4184 52.9306L25.3488 51.9351Z" fill="#FF9A6C"/>
<path d="M22.8037 47.0922C22.8768 46.9669 22.9568 46.8312 23.0856 46.7581C23.2248 46.678 23.3988 46.6815 23.5589 46.7094C23.7921 46.7511 24.0184 46.8521 24.1785 47.0261C24.3386 47.2001 24.4152 47.4577 24.3351 47.6804C24.2725 47.9101 23.9314 48.0354 23.6982 48.0737C23.465 48.1155 23.2213 48.0459 23.016 47.931C22.842 47.8336 22.6749 47.6769 22.6679 47.4786C22.661 47.3393 22.7341 47.2105 22.8037 47.0887V47.0922Z" fill="#FF9A6C"/>
<path d="M22.9181 46.3204C23.0052 46.31 23.0539 46.9017 23.5934 47.2845C24.1328 47.6674 24.7593 47.5525 24.7732 47.6361C24.7837 47.6744 24.641 47.7614 24.373 47.7892C24.1119 47.8171 23.7221 47.7649 23.3915 47.5282C23.0608 47.295 22.9007 46.9574 22.8624 46.7172C22.8207 46.4701 22.8764 46.317 22.9181 46.3204Z" fill="#2E4C52"/>
<path d="M22.4271 39.6017C22.3854 39.7548 21.832 39.727 21.1985 39.8523C20.5616 39.9671 20.0569 40.1934 19.9629 40.0681C19.9212 40.0089 20.0012 39.8592 20.1961 39.6991C20.391 39.539 20.7112 39.3789 21.0941 39.3058C21.4769 39.2327 21.832 39.2676 22.0756 39.3441C22.3192 39.4207 22.4445 39.5286 22.4271 39.6017Z" fill="#2E4C52"/>
<path d="M27.4568 39.3063C27.3558 39.4385 26.9173 39.3445 26.3987 39.3759C25.8801 39.3933 25.4485 39.5325 25.3371 39.4107C25.2884 39.3515 25.3476 39.2227 25.5286 39.0905C25.7096 38.9582 26.0158 38.8399 26.3743 38.8225C26.7294 38.8051 27.0461 38.8956 27.2375 39.0069C27.4289 39.1218 27.4985 39.2436 27.4568 39.3097V39.3063Z" fill="#2E4C52"/>
<path d="M14.7781 37.6236C15.1436 37.0597 15.8014 36.7709 16.4279 36.5272C19.1287 35.4831 21.9584 34.7626 24.8298 34.3867C25.1883 34.9749 24.8577 35.7789 24.3182 36.207C23.7787 36.6351 23.0861 36.8057 22.4387 37.0458C21.7913 37.286 21.13 37.6584 20.8655 38.2953C20.5836 38.9705 20.8203 39.7745 20.5732 40.4637C20.1451 41.6505 18.4883 42.0334 18.0672 43.2237C17.7505 44.1252 18.2691 45.0823 18.4013 46.0255C18.5475 47.0975 18.1507 48.2287 17.3676 48.9735C16.7481 49.5617 15.9023 49.8889 15.0531 49.9063C14.8582 46.4989 14.6598 43.0949 14.4649 39.6875C14.4231 38.9775 14.3953 38.2153 14.7851 37.6166L14.7781 37.6236Z" fill="#2E4C52"/>
<path d="M7.91494 46.2221C8.45442 45.7383 9.12616 45.3241 9.34195 44.6315C9.65519 43.6256 8.84772 42.4457 9.36631 41.5303C9.83966 40.695 11.2353 40.7368 11.6774 39.8841C12.0219 39.2193 11.6252 38.6276 11.7574 38.0429C11.8897 37.4582 12.718 36.9465 13.3132 37.0161L17.9666 43.7579C18.3982 46.0202 18.8333 47.2244 18.346 48.547C18.078 49.2745 17.7334 49.981 17.629 50.7467C17.5246 51.5124 17.7195 52.3791 18.346 52.835C15.5651 53.0543 12.9582 51.596 10.5497 50.1898C9.70044 49.6921 8.8512 49.1979 7.99847 48.7002C7.73396 48.5436 7.45551 48.38 7.29889 48.1155C6.92648 47.4959 7.37546 46.7024 7.91494 46.2186V46.2221Z" fill="#2E4C52"/>
<path d="M10.479 49.5123C10.479 49.5123 10.5765 49.5506 10.7748 49.568C10.9732 49.5889 11.2726 49.5959 11.6415 49.5054C12.0069 49.4149 12.4524 49.2304 12.8492 48.8545C13.246 48.4856 13.5662 47.9113 13.6463 47.2291C13.6845 46.888 13.6602 46.5226 13.5558 46.1606C13.4479 45.7986 13.246 45.461 13.0407 45.1269C12.8353 44.7928 12.6126 44.4482 12.5081 44.0549C12.4072 43.6686 12.4037 43.2092 12.6578 42.875C12.9119 42.5374 13.3817 42.4539 13.8168 42.2764C14.0361 42.1894 14.2623 42.0536 14.4085 41.8378C14.5547 41.622 14.6034 41.3575 14.5999 41.1069C14.593 40.5988 14.3772 40.1324 14.2832 39.659C14.2345 39.4224 14.2171 39.1753 14.2797 38.949C14.3389 38.7228 14.4816 38.5209 14.68 38.3852C15.0802 38.0998 15.5953 38.0511 16.0861 38.0093C16.5838 37.9745 17.1024 37.8631 17.5201 37.5881C17.9447 37.3271 18.2823 36.9512 18.5016 36.5231C18.7174 36.0915 18.7939 35.6286 18.8635 35.1901C18.9297 34.7515 18.9923 34.3234 19.135 33.9406C19.2812 33.5577 19.5144 33.2236 19.7893 32.9556C20.3497 32.4231 21.0597 32.1377 21.7141 32.0855C22.3719 32.0298 22.9705 32.2038 23.4369 32.444C23.9068 32.6841 24.2583 32.9869 24.5089 33.2584C25.0101 33.8153 25.1493 34.219 25.1702 34.2086C25.1702 34.2086 25.1632 34.1842 25.1424 34.1355C25.1215 34.0902 25.0936 34.0171 25.0449 33.9301C24.9544 33.7526 24.8013 33.502 24.5507 33.2166C24.3036 32.9312 23.952 32.618 23.4752 32.3639C23.0019 32.1098 22.3893 31.9219 21.7001 31.9706C21.0214 32.0193 20.2836 32.3047 19.6919 32.8581C19.403 33.1401 19.1524 33.4881 18.9993 33.8919C18.8427 34.2956 18.78 34.7341 18.7139 35.1692C18.6443 35.6043 18.5642 36.0532 18.3623 36.457C18.157 36.8572 17.8368 37.2088 17.4365 37.4559C17.0398 37.7134 16.5664 37.8144 16.0722 37.8527C15.5849 37.8979 15.035 37.9397 14.586 38.2564C14.3632 38.4095 14.1892 38.6462 14.1231 38.9107C14.0535 39.1753 14.0744 39.4433 14.1231 39.6938C14.224 40.195 14.4363 40.6475 14.4398 41.1139C14.4433 41.3436 14.398 41.5733 14.2762 41.7508C14.1544 41.9318 13.963 42.0501 13.7542 42.1372C13.5453 42.2242 13.3226 42.2833 13.1068 42.3773C12.891 42.4643 12.6787 42.5931 12.536 42.788C12.2436 43.1813 12.2575 43.686 12.3689 44.0932C12.4838 44.5178 12.7204 44.8659 12.9258 45.2C13.1346 45.5341 13.333 45.8578 13.4374 46.1989C13.5418 46.54 13.5662 46.8915 13.5349 47.2187C13.4688 47.8765 13.166 48.4299 12.7901 48.7919C12.4142 49.1573 11.9861 49.3488 11.6276 49.4462C10.9001 49.6307 10.479 49.481 10.479 49.5123Z" fill="#0E9D90"/>
<path d="M6.76877 44.7206C6.76877 44.7206 6.71308 44.7902 6.67828 44.9468C6.64347 45.1034 6.64695 45.361 6.79662 45.6359C6.87319 45.7682 6.98804 45.9074 7.15163 46.0118C7.31521 46.1128 7.52056 46.1754 7.74679 46.1685C8.18882 46.1719 8.71089 45.9074 8.96497 45.3958C9.09375 45.1452 9.16336 44.8528 9.16336 44.5465C9.16336 44.2403 9.0833 43.927 8.96845 43.6277C8.74918 43.0256 8.34544 42.4408 8.33848 41.7343C8.33152 41.3932 8.41157 41.0243 8.66216 40.7772C8.90928 40.5266 9.29214 40.4639 9.67151 40.4604C10.0544 40.4465 10.4685 40.4952 10.8758 40.3351C11.0742 40.2551 11.2551 40.1054 11.37 39.9175C11.4883 39.7295 11.5475 39.5172 11.5719 39.3049C11.6241 38.8698 11.5231 38.4591 11.4709 38.0693C11.4083 37.676 11.4326 37.2897 11.5336 36.9242C11.7389 36.1933 12.2297 35.5773 12.8283 35.2258C13.4305 34.8638 14.13 34.822 14.7565 34.7837C15.39 34.7489 15.9991 34.7106 16.5177 34.5053C17.0363 34.3139 17.4504 34.0215 17.7637 33.7222C18.0804 33.4229 18.2962 33.1096 18.4459 32.8451C18.7417 32.3056 18.7765 31.961 18.7765 31.961C18.7556 31.9541 18.6965 32.2917 18.3902 32.8138C18.2335 33.0713 18.0178 33.3706 17.701 33.656C17.3878 33.9414 16.9806 34.2199 16.4759 34.3974C15.9747 34.5888 15.383 34.6201 14.7461 34.648C14.1196 34.6793 13.3956 34.7106 12.7483 35.0935C12.1113 35.4624 11.5962 36.1063 11.377 36.879C11.2691 37.2618 11.2412 37.6865 11.3073 38.0902C11.3596 38.4939 11.4535 38.8942 11.4083 39.2875C11.37 39.6808 11.1646 40.0532 10.8096 40.1889C10.4581 40.3316 10.0544 40.2934 9.66455 40.3038C9.27821 40.3073 8.83967 40.3699 8.54731 40.6693C8.25495 40.9616 8.17489 41.3758 8.18534 41.7378C8.1923 42.1102 8.30367 42.4617 8.43941 42.775C8.57515 43.0917 8.72481 43.3841 8.83967 43.6764C8.95453 43.9688 9.0311 44.2611 9.03458 44.5465C9.03458 44.8319 8.97541 45.1069 8.86055 45.3401C8.63084 45.8169 8.15749 46.071 7.74331 46.0745C7.53448 46.0814 7.34305 46.0292 7.18991 45.9422C7.03677 45.8517 6.92539 45.7264 6.84882 45.6011C6.69916 45.3471 6.68176 45.0999 6.70612 44.9503C6.73049 44.7937 6.77225 44.7206 6.76529 44.7171L6.76877 44.7206Z" fill="#2E4C52"/>
<path d="M36.0858 46.3811C36.0614 46.3811 36.2354 46.6491 36.0753 47.1086C35.9953 47.3243 35.8143 47.5889 35.4976 47.6933C35.1878 47.7977 34.7597 47.7176 34.4778 47.4148C34.3351 47.2652 34.2516 47.0598 34.2376 46.8336C34.2237 46.6074 34.269 46.3672 34.3455 46.1305C34.4917 45.6607 34.7945 45.1456 34.7493 44.533C34.7145 43.9378 34.4151 43.3287 33.9035 42.925C33.6494 42.7231 33.3536 42.5665 33.0369 42.469C32.7167 42.3646 32.3756 42.3438 32.0449 42.3263C31.7143 42.3089 31.3871 42.302 31.0843 42.2254C30.7815 42.1523 30.51 41.9992 30.336 41.759C30.162 41.5224 30.0854 41.2265 30.0645 40.9376C30.0436 40.6453 30.0784 40.3599 30.1376 40.0814C30.2525 39.5245 30.4195 38.9851 30.3882 38.4525C30.3604 37.9235 30.1585 37.4536 29.8905 37.1021C29.6225 36.7401 29.2744 36.5209 28.9856 36.3364C28.6932 36.1519 28.4426 35.9953 28.2616 35.8352C27.8892 35.522 27.8265 35.2366 27.8057 35.2505C27.8057 35.2505 27.8057 35.2679 27.8161 35.2992C27.8265 35.3305 27.8405 35.3793 27.8718 35.435C27.9275 35.5533 28.0354 35.7169 28.2164 35.8839C28.3973 36.0545 28.6445 36.225 28.9333 36.413C29.2187 36.6044 29.5494 36.8237 29.7965 37.1717C30.0471 37.5128 30.2316 37.9618 30.2525 38.4595C30.2768 38.9607 30.1132 39.4828 29.9914 40.0501C29.9323 40.332 29.8905 40.6383 29.9114 40.9481C29.9323 41.2578 30.0123 41.5815 30.2072 41.853C30.4056 42.128 30.7188 42.302 31.046 42.382C31.3732 42.4621 31.7073 42.4691 32.038 42.4865C32.3686 42.5039 32.6888 42.5247 32.9881 42.6222C33.2875 42.7127 33.5659 42.8589 33.8026 43.0468C34.2794 43.4227 34.5648 43.9865 34.5996 44.5399C34.6483 45.1003 34.3699 45.5945 34.2168 46.0888C34.1402 46.3394 34.0949 46.5934 34.1123 46.844C34.1297 47.0912 34.2307 47.3313 34.3943 47.4949C34.7179 47.829 35.1878 47.9056 35.5289 47.7803C35.877 47.6515 36.0614 47.3626 36.138 47.1294C36.218 46.8893 36.1937 46.6874 36.1658 46.5621C36.131 46.4368 36.0893 46.3811 36.0893 46.3811H36.0858Z" fill="#2E4C52"/>
<path d="M32.7582 73.6389V69.786C33.1898 67.6281 32.9844 65.0664 31.9821 63.0895C31.3973 61.9374 30.0539 60.1032 29.5666 59.4176L25.7311 54.4474C23.6219 55.9823 20.3224 54.872 17.4892 53.8418C17.4892 53.8418 14.6909 55.3906 13.3892 56.8455C12.0214 58.3769 16.6992 77.5371 16.6992 77.5371C14.5795 81.7763 11.8473 85.5318 11.4297 89.4056L33.5657 90.2583L32.6259 80.1091L32.7617 73.6424L32.7582 73.6389Z" fill="#0E9D90"/>
<path d="M32.4525 80.212C32.4525 80.212 32.4351 80.0553 32.4351 79.7769C32.4385 79.4602 32.442 79.0669 32.449 78.597C32.4664 77.5633 32.4873 76.2059 32.5116 74.7058C32.5395 73.1848 32.5812 71.81 32.63 70.8146C32.6543 70.3169 32.6787 69.9131 32.6996 69.6347C32.7205 69.3563 32.7413 69.2031 32.7518 69.2031C32.7657 69.2031 32.7692 69.3597 32.7692 69.6382C32.7657 69.9549 32.7622 70.3482 32.7553 70.8181C32.7379 71.8518 32.717 73.2092 32.6926 74.7093C32.6648 76.2303 32.623 77.6051 32.5743 78.6005C32.5499 79.0982 32.5256 79.5019 32.5047 79.7804C32.4838 80.0588 32.4629 80.212 32.4525 80.212Z" fill="#2E4C52"/>
<path d="M42.5632 83.7125C42.5632 83.7125 44.7176 83.8308 46.0576 84.6661C47.3941 85.5049 49.5416 86.8032 50.4257 88.4146C50.8329 89.156 49.6739 89.3126 49.0996 88.881C48.5288 88.4494 47.6517 87.642 47.2166 87.541L46.7816 87.4401C46.7816 87.4401 47.6552 89.3857 48.1076 90.0679C48.5601 90.75 48.9499 91.9195 47.5995 91.9752C47.5995 91.9752 46.6876 93.1585 45.7687 92.2815C45.7687 92.2815 45.0518 93.3535 43.8962 91.8673C43.8962 91.8673 43.2245 92.72 42.9426 92.3928C42.6607 92.0657 41.7418 91.5506 41.4738 90.4855C41.2058 89.4205 40.0781 86.8345 40.0781 86.8345L42.5667 83.709L42.5632 83.7125Z" fill="#FFBF9D"/>
<path d="M90.8756 53.805C91.1157 53.805 101 52.7678 101 52.7678C101 52.7678 101.836 48.7478 101.794 47.7036C101.749 46.6595 101.046 39.7507 101.046 39.7507L104.745 38C104.745 38 109.691 54.6786 108.609 56.0673C107.526 57.456 105.501 58.6916 105.327 58.6985C105.153 58.7055 95.7517 62.8717 89.2119 60.7068C82.6685 58.5419 90.8756 53.805 90.8756 53.805Z" fill="#FFBF9D"/>
<path d="M82.2168 62.8082C83.6716 64.2527 86.1776 65.45 90.3577 64.4093C98.6308 62.3453 104.826 60.5947 107.294 59.2581C109.758 57.9181 108.797 52.0257 109.006 51.7577C109.633 50.9502 108.947 49.2169 108.056 48.9454C105.526 48.1797 101.123 48.4825 100.9 48.7122C99.6019 50.0766 100.785 51.7333 100.785 51.7333L89.8809 53.1603C89.8809 53.1603 87.984 53.0315 85.8748 53.4179" fill="#0E9D90"/>
<path d="M85.8737 53.4207C85.8737 53.4207 85.9607 53.3963 86.1347 53.365C86.3088 53.3302 86.5663 53.2884 86.9074 53.2467C87.5861 53.1631 88.592 53.0692 89.8832 53.1214H89.8763C92.4797 52.7733 96.2421 52.2687 100.777 51.6596L100.725 51.7814C100.387 51.2663 100.175 50.6433 100.224 49.9889C100.248 49.6652 100.363 49.3416 100.537 49.0631C100.617 48.9169 100.732 48.7951 100.836 48.6663C100.871 48.6385 100.934 48.6037 100.979 48.5898L101.104 48.5584C101.188 48.5376 101.268 48.5306 101.351 48.5132C102.657 48.3461 104.018 48.3392 105.417 48.4262C106.116 48.4749 106.826 48.5584 107.533 48.7185C107.71 48.7603 107.884 48.809 108.062 48.8543C108.246 48.9134 108.42 49.0144 108.56 49.1466C108.845 49.4042 109.036 49.7418 109.176 50.0933C109.308 50.4484 109.371 50.8382 109.318 51.228C109.28 51.4194 109.224 51.6178 109.099 51.7814C109.068 51.8162 109.071 51.9102 109.068 52.0007V52.2791C109.096 53.0274 109.13 53.7896 109.113 54.5588C109.082 55.6517 108.984 56.755 108.594 57.7678C108.4 58.269 108.114 58.7563 107.689 59.1009C107.481 59.2819 107.234 59.3932 107.004 59.5116C106.771 59.6334 106.53 59.7309 106.294 59.8387C105.344 60.246 104.383 60.5801 103.443 60.8899C102.5 61.2031 101.571 61.485 100.662 61.7495C97.0252 62.8076 93.7153 63.6395 90.9378 64.3321C90.2452 64.5096 89.5735 64.6558 88.9331 64.7497C88.2892 64.8263 87.6801 64.8785 87.1058 64.8472C85.9607 64.8159 84.9897 64.5513 84.2553 64.2277C83.5209 63.9005 83.0127 63.5246 82.689 63.2531C82.3654 62.9816 82.2227 62.8111 82.2227 62.8111C82.2331 62.8007 82.3828 62.9642 82.7134 63.2253C83.0406 63.4863 83.5522 63.8483 84.2831 64.165C85.014 64.4748 85.9746 64.7254 87.1058 64.7463C87.6731 64.7706 88.2753 64.7149 88.9122 64.6349C89.5491 64.5374 90.2069 64.3912 90.903 64.2068C93.677 63.5002 96.98 62.6545 100.61 61.5894C101.519 61.3214 102.444 61.036 103.384 60.7228C104.324 60.4095 105.278 60.0754 106.221 59.6717C106.454 59.5638 106.694 59.4698 106.92 59.348C107.153 59.2297 107.387 59.1252 107.575 58.9582C107.968 58.6415 108.239 58.182 108.427 57.6982C108.803 56.7202 108.901 55.6308 108.932 54.5484C108.953 53.7862 108.918 53.0309 108.89 52.2791V51.9937C108.89 51.945 108.89 51.8962 108.894 51.844C108.901 51.8162 108.897 51.7953 108.908 51.757C108.915 51.7361 108.925 51.7153 108.936 51.6979L108.953 51.67C109.057 51.5343 109.106 51.3637 109.141 51.1932C109.186 50.8451 109.13 50.4832 109.005 50.149C108.876 49.8184 108.695 49.5051 108.438 49.2719C108.313 49.1536 108.166 49.0701 108.006 49.0179C107.832 48.9726 107.662 48.9239 107.491 48.8821C106.798 48.7255 106.095 48.642 105.403 48.5898C104.018 48.4993 102.657 48.5028 101.372 48.6663C101.296 48.6803 101.212 48.6872 101.139 48.7081L101.028 48.7359C100.996 48.7499 100.983 48.7499 100.955 48.7673C100.857 48.8891 100.746 49.0005 100.673 49.1362C100.509 49.3972 100.405 49.6896 100.38 49.9924C100.332 50.5945 100.537 51.1967 100.847 51.6805L100.916 51.7849L100.795 51.7988C96.256 52.38 92.4901 52.8603 89.8832 53.1945H89.8798H89.8763C88.5989 53.1283 87.5896 53.2084 86.9109 53.278C86.5698 53.3128 86.3122 53.3476 86.1382 53.3755C85.9642 53.3998 85.8737 53.4068 85.8737 53.4068V53.4207Z" fill="#2E4C52"/>
<path d="M56.3535 64.748L51.9187 56.7802L135.925 10.023C137.935 8.90412 140.472 9.62691 141.591 11.6371L141.972 12.3214C143.091 14.3316 142.368 16.8689 140.358 17.9878L56.3518 64.745L56.3535 64.748Z" fill="#F02829"/>
<path d="M126.794 22.5488L116.507 4.06765C116.299 3.69359 116.432 3.21717 116.81 3.00727L121.529 0.380217C121.903 0.172016 122.38 0.305168 122.59 0.682272L132.876 19.1634L126.794 22.5488Z" fill="#F02829"/>
<path d="M106.56 13.936L114.057 27.4053C114.359 27.9495 115.046 28.1451 115.59 27.8422L119.702 25.5537C120.246 25.2508 120.442 24.5641 120.139 24.0199L112.642 10.5506C112.339 10.0064 111.652 9.81079 111.108 10.1137L106.997 12.4022C106.452 12.7051 106.257 13.3918 106.56 13.936Z" fill="#F02829"/>
<path d="M113.178 13.1494L117.819 21.4883L127.265 16.2308L122.624 7.89191L113.178 13.1494Z" fill="#F02829"/>
<path d="M134.689 10.7165C134.713 10.7618 118.226 19.9851 97.8722 31.3141C77.5078 42.6501 60.9858 51.8004 60.9615 51.7551C60.9371 51.7099 77.4207 42.49 97.7817 31.154C118.139 19.8215 134.665 10.6713 134.689 10.713V10.7165Z" fill="#2E4C52"/>
<path d="M22.3281 80.1672C28.5199 91.2909 41.5822 95.8329 51.5051 90.3128C61.4281 84.7893 64.4491 71.2954 58.2573 60.1682C52.0655 49.0445 39.0032 44.5025 29.0803 50.0225C19.1574 55.5461 16.1363 69.04 22.3281 80.1672ZM52.8834 63.158C57.2236 70.9543 55.104 80.4108 48.1534 84.2811C41.1994 88.1514 32.0457 84.9668 27.709 77.1739C23.3688 69.3776 25.4884 59.9211 32.439 56.0508C39.393 52.1805 48.5467 55.3651 52.8834 63.158Z" fill="#F02829"/>
<path d="M70.6322 57.0347L66.0484 48.7993C65.439 47.7044 65.8328 46.3222 66.9276 45.7128L67.2986 45.5063C68.3934 44.8969 69.7757 45.2907 70.3851 46.3855L74.9689 54.621C75.5783 55.7158 75.1845 57.0981 74.0897 57.7074L73.7187 57.9139C72.6239 58.5233 71.2416 58.1296 70.6322 57.0347Z" fill="#F02829"/>
<path d="M79.4419 52.1366L74.8581 43.9011C74.2487 42.8063 74.6425 41.424 75.7373 40.8146L76.1083 40.6081C77.2031 39.9987 78.5854 40.3925 79.1948 41.4873L83.7786 49.7228C84.388 50.8176 83.9942 52.1999 82.8994 52.8093L82.5253 53.0175C81.4305 53.6268 80.0482 53.2331 79.4388 52.1383L79.4419 52.1366Z" fill="#F02829"/>
<path d="M70.2881 46.2444C70.3334 46.22 71.3949 48.089 72.6653 50.4175C73.9357 52.746 74.9276 54.6533 74.8824 54.6776C74.8371 54.702 73.7756 52.833 72.5052 50.5045C71.2383 48.1761 70.2429 46.2687 70.2881 46.2479V46.2444Z" fill="#2E4C52"/>
<path d="M66.2472 49.1331C66.2924 49.1087 67.3296 50.8907 68.5652 53.1148C69.8043 55.3388 70.7718 57.1591 70.7266 57.1835C70.6813 57.2078 69.6442 55.4258 68.4051 53.2018C67.1695 50.9777 66.1985 49.1574 66.2437 49.1331H66.2472Z" fill="#2E4C52"/>
<path d="M79.1458 41.4123C79.191 41.388 80.27 43.2501 81.5612 45.5681C82.8525 47.8861 83.8619 49.7864 83.8201 49.8108C83.7748 49.8352 82.6959 47.9766 81.4046 45.6551C80.1134 43.3371 79.104 41.4367 79.1458 41.4123Z" fill="#2E4C52"/>
<path d="M74.898 43.9807C74.9432 43.9563 76.0013 45.8045 77.2647 48.1086C78.5281 50.4127 79.5166 52.2991 79.4714 52.3235C79.4261 52.3478 78.368 50.4997 77.1046 48.1956C75.8412 45.8915 74.8527 44.0051 74.898 43.9807Z" fill="#2E4C52"/>
<path d="M100.139 31.4287C100.939 31.5227 101.761 30.9345 101.935 30.1479C102.109 29.3613 101.607 28.4842 100.842 28.2302C101.339 27.722 101.468 26.8832 101.141 26.2497C100.814 25.6163 100.059 25.2334 99.3556 25.3413C99.3277 24.6383 98.91 23.9631 98.2905 23.6254C97.671 23.2878 96.8774 23.3018 96.2718 23.6568C95.4957 22.9885 94.2427 22.9607 93.4352 23.5941C92.753 23.4653 92.0047 23.8308 91.6845 24.4468C91.3608 25.0629 91.4896 25.8843 91.9873 26.3716" fill="#2E4C52"/>
<path d="M93.0775 25.2238H93.4394C97.0766 25.2342 100.098 28.036 100.376 31.6627C100.637 35.0353 100.884 38.7664 100.856 40.5728C100.797 44.3178 97.0522 44.8886 97.0522 44.8886L97.355 49.3889L88.2639 49.0791L87.5087 32.7556C87.185 28.8644 89.1793 25.4326 93.0775 25.2168V25.2238Z" fill="#FFBF9D"/>
<path d="M97.0842 44.885C97.0842 44.885 94.6931 45.0207 92.1802 43.4336C92.1802 43.4336 93.3844 46.2702 97.1225 45.943L97.0842 44.885Z" fill="#FF9A6C"/>
<path d="M98.3228 35.1797C98.3332 35.4617 98.1 35.7018 97.8042 35.7192C97.5083 35.7331 97.2647 35.5173 97.2542 35.2354C97.2438 34.9535 97.477 34.7134 97.7694 34.6959C98.0652 34.682 98.3123 34.8978 98.3193 35.1797H98.3228Z" fill="#2E4C52"/>
<path d="M99.5656 33.4897C99.4995 33.5593 99.0958 33.2565 98.518 33.2565C97.9437 33.2495 97.5191 33.5419 97.4565 33.4723C97.4251 33.441 97.4947 33.3157 97.6792 33.1834C97.8602 33.0511 98.17 32.9224 98.5285 32.9259C98.887 32.9259 99.1897 33.0616 99.3603 33.1973C99.5378 33.3331 99.597 33.4584 99.5622 33.4897H99.5656Z" fill="#2E4C52"/>
<path d="M93.1294 34.9297C93.1398 35.2117 92.9067 35.4518 92.6108 35.4692C92.315 35.4831 92.0713 35.2673 92.0609 34.9854C92.0504 34.7035 92.2836 34.4634 92.5795 34.4459C92.8753 34.432 93.1224 34.6478 93.1294 34.9297Z" fill="#2E4C52"/>
<path d="M93.9089 33.5795C93.8428 33.6491 93.439 33.3463 92.8613 33.3463C92.287 33.3394 91.8624 33.6317 91.7997 33.5621C91.7684 33.5308 91.838 33.4055 92.0225 33.2733C92.2035 33.141 92.5132 33.0122 92.8717 33.0157C93.2302 33.0157 93.533 33.1514 93.7036 33.2872C93.8811 33.4229 93.9402 33.5482 93.9054 33.5795H93.9089Z" fill="#2E4C52"/>
<path d="M95.9827 37.8609C95.9827 37.8296 96.3377 37.767 96.919 37.6939C97.0652 37.6799 97.2044 37.6521 97.2287 37.5512C97.2635 37.4467 97.2044 37.2866 97.1313 37.1161C96.9955 36.7611 96.8494 36.3852 96.6997 35.9954C96.101 34.4013 95.6695 33.0892 95.7321 33.0648C95.7982 33.0404 96.3342 34.3143 96.9329 35.9118C97.0756 36.3051 97.2148 36.681 97.3471 37.0395C97.4028 37.2066 97.4967 37.398 97.4202 37.6173C97.3819 37.7287 97.2705 37.8052 97.1765 37.8331C97.0825 37.8609 96.999 37.8644 96.9259 37.8679C96.3412 37.8992 95.9792 37.8992 95.9792 37.8679L95.9827 37.8609Z" fill="#2E4C52"/>
<path d="M94.4133 31.3662C94.3367 31.5124 93.8425 31.3523 93.2369 31.3314C92.6312 31.2966 92.1196 31.408 92.0639 31.2584C92.0396 31.1853 92.1475 31.0565 92.3667 30.9381C92.5825 30.8233 92.9132 30.7328 93.2786 30.7502C93.6441 30.7676 93.9573 30.8859 94.1557 31.0217C94.3576 31.1574 94.4446 31.2966 94.4133 31.3662Z" fill="#2E4C52"/>
<path d="M99.6039 31.1131C99.4821 31.2418 99.0087 31.1061 98.4379 31.0991C97.8671 31.0748 97.3833 31.1827 97.2719 31.0469C97.2232 30.9808 97.2998 30.8485 97.5121 30.7267C97.7209 30.6049 98.069 30.504 98.4623 30.5144C98.8556 30.5249 99.1932 30.6467 99.3916 30.7789C99.5934 30.9147 99.6596 31.0504 99.6039 31.1131Z" fill="#2E4C52"/>
<path d="M100.021 29.9435C100.021 29.9435 99.0397 27.5942 97.9121 27.0443C96.5442 26.376 95.9491 27.8796 94.6474 27.5107C93.3422 27.1417 92.037 26.5013 90.7005 27.5072C89.2386 28.607 89.9174 29.3832 89.8234 31.0468C89.437 37.7851 88.2015 39.6854 87.8604 36.5112C87.8221 36.1632 86.858 35.8847 86.7188 34.416C86.5378 32.5087 86.4717 30.1976 86.9032 28.8472C87.2652 27.709 87.9161 26.9224 89.0855 26.0593C90.9302 24.6949 93.4535 24.674 95.1694 24.8515C96.8853 25.0291 100.185 27.0129 100.021 29.9505V29.9435Z" fill="#2E4C52"/>
<path d="M88.1008 36.4099C88.0799 35.8321 87.5822 35.3727 87.0044 35.4284C86.3048 35.4911 85.5287 35.8878 85.5705 37.3322C85.6436 39.8939 88.2017 39.2918 88.2017 39.2187C88.2017 39.1699 88.1391 37.4854 88.1008 36.4134V36.4099Z" fill="#FFBF9D"/>
<path d="M87.6164 38.2609C87.6164 38.2609 87.5712 38.2922 87.4981 38.3305C87.425 38.3653 87.2997 38.3931 87.164 38.3479C86.889 38.2574 86.6489 37.8328 86.6245 37.3733C86.6106 37.1402 86.6523 36.9174 86.7324 36.7295C86.8055 36.538 86.9238 36.4058 87.0596 36.3779C87.1953 36.3431 87.2927 36.4197 87.3276 36.4928C87.3624 36.5624 87.3484 36.6146 87.3624 36.6181C87.3693 36.625 87.4146 36.5728 87.3937 36.4684C87.3832 36.4162 87.3484 36.357 87.2893 36.3118C87.2266 36.2631 87.1361 36.2422 87.0421 36.2526C86.8438 36.2735 86.6732 36.458 86.5862 36.6633C86.4888 36.8687 86.4365 37.1193 86.4505 37.3803C86.4818 37.8954 86.7602 38.3723 87.1326 38.4662C87.3136 38.508 87.4633 38.4488 87.5399 38.3862C87.6164 38.32 87.6304 38.2644 87.6199 38.2574L87.6164 38.2609Z" fill="#FF9A6C"/>
<path d="M88.167 31.4416C88.4976 31.6679 88.8492 31.9046 89.2494 31.9463C89.6497 31.9881 90.1091 31.7584 90.1787 31.3616C90.21 31.1841 90.1683 30.9753 90.2831 30.8395C90.4224 30.6759 90.6799 30.7281 90.8957 30.7525C91.6405 30.8326 92.5107 30.0146 92.7056 29.2907C92.8935 29.5761 93.3112 29.6631 93.5966 29.4786C93.8855 29.2942 93.9899 29.1898 94.2161 28.9322C94.4423 28.6746 94.7591 28.4449 95.0967 28.4937C95.2846 28.5215 95.4621 28.6329 95.6535 28.619C95.9912 28.5911 96.1547 28.1978 96.2069 27.8637C96.2592 27.5296 96.3009 27.1397 96.5863 26.9588C96.8508 26.7917 97.1919 26.8892 97.5017 26.9379C97.8115 26.9831 98.2117 26.9135 98.2918 26.6107C98.3335 26.4506 98.2674 26.2835 98.1769 26.1443C97.7801 25.5144 96.91 25.2324 96.2209 25.5109C95.9738 24.6651 95.1837 24.0038 94.3066 23.9064C93.4295 23.8124 92.5176 24.2857 92.093 25.0619C91.5535 24.5677 90.7669 24.3623 90.0534 24.5224C89.3399 24.6825 88.7204 25.2081 88.4419 25.8833C87.8189 25.7162 87.1089 25.9564 86.7121 26.4645C86.3154 26.9727 86.2562 27.721 86.5694 28.2848C86.11 28.5459 85.7132 29.0018 85.7028 29.5343C85.6924 30.0634 86.2075 30.5924 86.7191 30.4567C86.5103 30.8674 86.6773 31.4277 87.0776 31.6609C87.4778 31.8941 88.0452 31.7584 88.3027 31.3755" fill="#2E4C52"/>
<path d="M96.4091 26.2614C96.4091 26.2614 96.4091 26.2788 96.4091 26.3067C96.4056 26.338 96.4022 26.3832 96.3917 26.4424C96.3673 26.5607 96.3186 26.7348 96.2038 26.9366C96.0889 27.135 95.9079 27.3613 95.633 27.5388C95.365 27.7198 94.996 27.859 94.5819 27.8346L94.6271 27.7789C94.7071 27.9982 94.6828 28.2592 94.5749 28.4855C94.4705 28.7152 94.3069 28.917 94.1364 29.1154C94.0493 29.2094 93.9693 29.3208 93.8475 29.4078C93.7291 29.4913 93.5864 29.5401 93.4402 29.5575C93.1514 29.5923 92.8242 29.5018 92.6154 29.2581L92.7128 29.2303C92.6467 29.7384 92.3543 30.2466 91.8949 30.5564C91.6513 30.7304 91.3485 30.8383 91.0526 30.8278C90.7568 30.8244 90.4818 30.7374 90.2243 30.6434L90.2939 30.6121C90.1547 30.9288 89.9423 31.2003 89.6848 31.4021C89.4307 31.6005 89.0966 31.7189 88.7903 31.6423C88.1847 31.5135 87.7879 31.0088 87.7079 30.5355L87.767 30.5633C87.4677 30.7269 87.144 30.7408 86.8865 30.6886C86.6254 30.6399 86.4201 30.525 86.2739 30.4137C86.1277 30.2988 86.0407 30.1805 85.9885 30.1004C85.9398 30.0169 85.9224 29.9682 85.9224 29.9682C85.9363 29.9577 86.0059 30.1631 86.2983 30.3789C86.4444 30.4833 86.6428 30.5877 86.8969 30.6295C87.144 30.6712 87.4503 30.6503 87.7287 30.4972L87.7775 30.4694L87.7879 30.525C87.868 30.9671 88.2508 31.4369 88.8112 31.5518C89.0861 31.6179 89.382 31.5135 89.6221 31.3256C89.8623 31.1376 90.0642 30.8766 90.1929 30.5772L90.2138 30.5285L90.2625 30.5459C90.5166 30.6364 90.7811 30.7199 91.0561 30.7199C91.3311 30.7269 91.5991 30.6329 91.8322 30.4659C92.2673 30.1735 92.5423 29.6967 92.6049 29.2164L92.6223 29.0946L92.7024 29.1885C92.8799 29.3974 93.1688 29.4844 93.4298 29.453C93.5586 29.4391 93.6874 29.3939 93.7883 29.3243C93.8892 29.2547 93.9693 29.1468 94.0598 29.0493C94.2338 28.8544 94.3904 28.6595 94.4914 28.4472C94.5958 28.2383 94.6166 28.0052 94.5505 27.8068L94.5296 27.7441H94.5923C94.9821 27.7754 95.3371 27.6501 95.5982 27.4796C95.8662 27.3125 96.0437 27.0967 96.1655 26.9088C96.3987 26.5225 96.3917 26.251 96.4126 26.2579L96.4091 26.2614Z" fill="#0E9D90"/>
<path d="M95.9732 39.7677C95.9558 39.6737 95.3293 39.8268 94.755 39.4022C94.1772 38.9776 94.0833 38.2954 93.9928 38.3128C93.951 38.3128 93.9092 38.4903 93.9719 38.7757C94.0311 39.0542 94.219 39.4335 94.5705 39.6946C94.9221 39.9521 95.3223 40.0043 95.5834 39.9591C95.8514 39.9173 95.9871 39.8094 95.9732 39.7677Z" fill="#2E4C52"/>
<path d="M115.278 137.141L117.749 145.56C117.749 145.56 127.139 145.873 127.749 147.387L111.592 152.768L107.2 139.807L115.274 137.141H115.278Z" fill="#0E9D90"/>
<path d="M112.526 146.529C112.241 146.717 112.143 147.141 112.321 147.434C112.498 147.726 112.93 147.831 113.215 147.646C113.504 147.462 113.636 146.957 113.427 146.685C113.219 146.414 112.707 146.32 112.47 146.567" fill="#E0E0E0"/>
<path d="M126.84 146.781C126.84 146.781 127.665 146.854 127.752 147.387L111.596 152.768L111.206 151.445L126.84 146.781Z" fill="#2E4C52"/>
<path d="M117.986 145.392C118.01 145.472 117.627 145.639 117.325 146.022C117.011 146.398 116.924 146.805 116.841 146.798C116.764 146.809 116.723 146.297 117.098 145.838C117.471 145.378 117.979 145.312 117.986 145.392Z" fill="white"/>
<path d="M119.915 145.529C119.956 145.598 119.661 145.846 119.504 146.27C119.333 146.688 119.389 147.071 119.309 147.095C119.239 147.133 119.031 146.688 119.236 146.166C119.438 145.644 119.89 145.456 119.915 145.529Z" fill="white"/>
<path d="M121.552 147.237C121.486 147.279 121.246 146.92 121.305 146.419C121.361 145.918 121.674 145.626 121.73 145.678C121.796 145.727 121.632 146.04 121.591 146.451C121.538 146.861 121.629 147.199 121.552 147.234V147.237Z" fill="white"/>
<path d="M117.211 143.536C117.2 143.619 116.803 143.63 116.368 143.811C115.93 143.981 115.63 144.246 115.568 144.19C115.502 144.148 115.745 143.745 116.26 143.539C116.776 143.33 117.228 143.459 117.211 143.536Z" fill="white"/>
<path d="M77.573 137.214L74.0543 145.254C74.0543 145.254 81.0466 151.53 80.5384 153.078L64.7021 146.817L69.6688 134.064L77.5696 137.214H77.573Z" fill="#0E9D90"/>
<path d="M69.429 142.627C69.0879 142.589 68.7399 142.85 68.6912 143.187C68.639 143.525 68.9035 143.88 69.2411 143.925C69.5787 143.967 70.0068 143.668 70.0207 143.327C70.0346 142.986 69.704 142.585 69.3629 142.624" fill="#E0E0E0"/>
<path d="M80.2322 152.03C80.2322 152.03 80.8169 152.615 80.5384 153.081L64.7021 146.82L65.2521 145.553L80.2287 152.03" fill="#2E4C52"/>
<path d="M74.3438 145.277C74.309 145.354 73.9087 145.235 73.4319 145.333C72.9516 145.42 72.6209 145.677 72.5618 145.618C72.4956 145.576 72.795 145.159 73.3762 145.051C73.9575 144.936 74.389 145.214 74.3438 145.277Z" fill="white"/>
<path d="M75.7317 146.617C75.7213 146.7 75.3315 146.697 74.9417 146.919C74.5449 147.132 74.3361 147.459 74.263 147.424C74.1864 147.407 74.3117 146.933 74.8024 146.665C75.2932 146.394 75.7596 146.54 75.7317 146.613V146.617Z" fill="white"/>
<path d="M75.889 148.977C75.8124 148.966 75.8576 148.538 76.2231 148.19C76.5851 147.842 77.0166 147.821 77.0236 147.898C77.041 147.978 76.7173 148.114 76.4215 148.402C76.1187 148.684 75.969 149.001 75.889 148.977Z" fill="white"/>
<path d="M74.9418 143.355C74.8826 143.414 74.5694 143.167 74.1204 143.025C73.6749 142.871 73.2781 142.885 73.2607 142.802C73.2364 142.729 73.6819 142.572 74.2109 142.75C74.7399 142.92 75.0045 143.31 74.9418 143.355Z" fill="white"/>
<path d="M83.4999 93.0527L77.9519 115.558C77.9519 115.558 67.9455 132.403 66.2505 140.833L75.4042 144.432C75.4042 144.432 82.0624 128.195 84.015 125.216C85.0904 123.577 86.2251 122.31 87.0291 121.502C87.7565 120.771 88.2855 119.867 88.5466 118.871L92.7475 102.816L83.4999 93.0527Z" fill="#2E4C52"/>
<path d="M81.1367 89.4455C81.1367 89.4455 81.9094 95.4703 87.7079 98.1433L99.9314 118.052C99.9314 118.052 100.892 124.525 102.737 129.979C104.567 135.395 108.257 145.941 108.257 145.941L118.312 142.182L111.904 120.276L110.857 112.678L100.882 87.2876L92.3126 82.1504L81.1402 89.4455H81.1367Z" fill="#2E4C52"/>
<path d="M81.1367 89.4481C81.1367 89.4481 81.1959 89.4028 81.3212 89.3227C81.45 89.2392 81.6344 89.1139 81.8746 88.9538C82.3688 88.6266 83.0997 88.1463 84.0464 87.5199C85.9572 86.2669 88.7451 84.4326 92.2813 82.1111L92.3091 82.0938L92.337 82.1111C94.836 83.6043 97.7144 85.3271 100.913 87.2379L100.93 87.2484L100.937 87.2693C103.729 94.359 107.136 103.012 110.933 112.653V112.663L110.937 112.673C111.267 115.075 111.626 117.644 111.988 120.271V120.257C113.718 126.178 115.569 132.505 117.48 139.031C117.786 140.082 118.093 141.127 118.396 142.167L118.42 142.247L118.34 142.275C114.915 143.556 111.556 144.809 108.285 146.031L108.198 146.062L108.166 145.975C106.423 140.925 104.745 136.062 103.151 131.451C102.751 130.299 102.357 129.157 102.03 128.015C101.7 126.874 101.407 125.739 101.143 124.622C100.614 122.381 100.189 120.191 99.8549 118.068L99.8653 118.096C94.8638 109.931 90.7011 103.133 87.6661 98.1737L87.687 98.1911C86.0268 97.4149 84.7564 96.3429 83.848 95.2744C82.9327 94.2024 82.3584 93.1409 81.972 92.2638C81.5857 91.3797 81.3873 90.6697 81.2725 90.1894C81.2133 89.9492 81.182 89.7648 81.1611 89.643C81.1402 89.5211 81.1367 89.455 81.1367 89.455C81.1367 89.455 81.1506 89.5177 81.175 89.6395C81.1994 89.7613 81.2342 89.9458 81.3003 90.1824C81.4221 90.6593 81.6275 91.3658 82.0208 92.2429C82.4141 93.1165 82.9918 94.1676 83.9072 95.2292C84.8191 96.2872 86.0825 97.3453 87.7323 98.111L87.7462 98.118L87.7531 98.1284C90.8021 103.081 94.9822 109.868 100.001 118.019L100.008 118.033V118.051C100.346 120.167 100.774 122.353 101.303 124.591C101.571 125.708 101.863 126.839 102.194 127.977C102.521 129.115 102.914 130.25 103.314 131.406C104.912 136.017 106.593 140.879 108.34 145.926L108.225 145.87C111.497 144.649 114.856 143.392 118.281 142.112L118.225 142.223C117.922 141.186 117.616 140.138 117.31 139.087C115.402 132.561 113.551 126.233 111.821 120.313V120.306V120.299C111.459 117.675 111.107 115.103 110.777 112.701V112.722C107 103.074 103.607 94.4182 100.822 87.3249L100.85 87.3563C97.6587 85.435 94.7838 83.7052 92.2882 82.2051H92.3405C88.8008 84.5023 86.0059 86.3156 84.0951 87.5581C83.138 88.1777 82.4036 88.651 81.9024 88.9747C81.6553 89.1348 81.4674 89.2531 81.3351 89.3367C81.2063 89.4167 81.1402 89.4585 81.1402 89.4585L81.1367 89.4481Z" fill="#13151C"/>
<path d="M86.5066 46.4417C86.5066 46.4417 83.576 48.697 82.1525 51.2169C80.447 54.231 80.2625 58.707 80.2103 65.654C80.1616 72.0825 81.1222 73.8645 80.7498 76.287C80.0259 81.017 79.4829 96.895 79.4829 96.895C79.4829 96.895 88.8698 93.2857 90.704 91.6917L92.5383 90.0976L104.299 93.9853L101.925 79.5343L100.296 61.5227L98.2115 51.9687L97.846 48.2202L87.77 44.1445L86.5031 46.4451L86.5066 46.4417Z" fill="#0E9D90"/>
<path d="M97.4949 48.0116C97.6167 48.0325 97.206 48.8574 96.4786 50.0686L96.4507 50.1173L96.395 50.0964C95.3718 49.6997 94.0248 49.202 92.5491 48.666C90.8854 48.0604 89.3818 47.4965 88.3063 47.058C87.7669 46.8387 87.3353 46.6542 87.0394 46.5185C86.7436 46.3828 86.5835 46.3027 86.587 46.2923C86.5905 46.2818 86.761 46.3375 87.0673 46.4524C87.4014 46.5777 87.8365 46.7412 88.3551 46.9362C89.4758 47.3468 90.9654 47.8898 92.6152 48.4954C94.0909 49.0349 95.4379 49.5465 96.4507 49.9677L96.3672 49.9955C97.119 48.8017 97.568 48.0186 97.5018 48.0116H97.4949Z" fill="#2E4C52"/>
<path d="M109.646 40.4994C109.646 40.4994 108.902 39.3404 108.199 38.2719C107.492 37.2033 106.43 36.6813 106.263 36.1209C106.093 35.5606 105.157 33.0859 105.007 32.4699C104.798 31.6067 104.826 30.653 104.826 30.653C104.826 30.653 105.595 30.3224 105.964 31.4257C106.187 32.087 106.893 34.3319 107.047 34.4433C107.2 34.5547 107.412 34.3911 107.412 34.3911C107.412 34.3911 106.625 32.2332 106.591 31.8225C106.556 31.4153 106.698 28.7179 106.698 28.7179C106.698 28.7179 107.259 28.5473 107.624 29.2365C107.99 29.9221 108.004 31.6763 108.004 31.6763L108.557 33.6184L108.366 31.6972L108.644 28.168C108.644 28.168 109.521 28.248 109.758 29.2017C109.991 30.1553 109.681 31.4849 109.841 31.7703C109.998 32.0557 110.169 33.7577 110.169 33.7577C110.169 33.7577 110.36 29.6124 110.802 29.494C111.244 29.3757 111.609 29.8177 111.547 30.653C111.484 31.4884 111.467 33.253 111.696 34.0361C111.926 34.8157 114.282 37.8507 114.088 39.1977C113.893 40.5481 113.872 41.6271 113.872 41.6271H109.82L109.653 40.5029L109.646 40.4994Z" fill="#FFBF9D"/>
<path d="M95.4877 50.9375C95.7139 51.0245 105.358 53.4087 105.358 53.4087C105.358 53.4087 107.513 49.9143 107.826 48.9188C108.139 47.9234 109.831 41.1852 109.831 41.1852L113.906 40.7988C113.906 40.7988 112.876 58.1665 111.387 59.0993C109.897 60.0356 107.572 60.5089 107.405 60.4567C107.238 60.4045 96.9843 61.118 91.5686 56.8544C86.1564 52.5908 95.4842 50.9306 95.4842 50.9306L95.4877 50.9375Z" fill="#FFBF9D"/>
<g opacity="0.3">
<path d="M88.5758 60.1271C88.5758 60.1271 89.961 61.8813 92.5192 62.4451C95.0773 63.009 100.524 64.0044 100.524 64.0044L100.26 61.3314L88.4087 60.0645" fill="black"/>
</g>
<path d="M84.2808 56.4516C85.1578 58.3033 87.1069 60.2871 91.3914 60.7292C99.8734 61.6063 106.295 62.0726 109.069 61.655C111.843 61.2373 112.946 55.3657 113.232 55.1847C114.095 54.6383 114.039 52.7762 113.294 52.2193C111.178 50.6392 106.932 49.421 106.646 49.5637C104.962 50.4025 105.512 52.3655 105.512 52.3655L94.771 49.9953C94.771 49.9953 93.0307 49.2296 90.9181 48.8711" fill="#0E9D90"/>
<path d="M90.917 48.8709C90.917 48.8709 91.0075 48.8779 91.1815 48.9057C91.3555 48.9336 91.6131 48.9823 91.9472 49.0554C92.6155 49.2085 93.5935 49.4626 94.7873 49.9499H94.7803C97.3489 50.5068 101.056 51.3142 105.528 52.2853L105.438 52.3827C105.298 51.7841 105.305 51.1263 105.577 50.5276C105.709 50.2283 105.925 49.9673 106.186 49.7619C106.311 49.6506 106.461 49.5775 106.604 49.4904C106.645 49.473 106.718 49.4661 106.764 49.4661L106.892 49.48C106.979 49.487 107.056 49.5078 107.14 49.5218C108.424 49.8107 109.708 50.2666 110.993 50.827C111.633 51.1124 112.27 51.4326 112.882 51.8224C113.036 51.9198 113.182 52.0277 113.331 52.1321C113.485 52.2505 113.617 52.4036 113.7 52.5742C113.878 52.9153 113.947 53.2946 113.954 53.674C113.954 54.0534 113.885 54.4397 113.704 54.7878C113.603 54.9548 113.481 55.1219 113.311 55.2333C113.269 55.2542 113.241 55.3447 113.206 55.4282L113.116 55.6892C112.886 56.4027 112.66 57.1301 112.378 57.8437C111.974 58.86 111.511 59.8623 110.798 60.6837C110.443 61.0875 110.011 61.4495 109.492 61.627C109.235 61.7244 108.963 61.7488 108.706 61.7766C108.445 61.8149 108.187 61.8184 107.93 61.8428C106.896 61.9019 105.883 61.888 104.891 61.8601C103.899 61.8323 102.928 61.7836 101.985 61.7244C98.2052 61.4808 94.8117 61.1362 91.9611 60.8404C91.2511 60.7742 90.5689 60.6803 89.9355 60.548C89.3055 60.3983 88.7138 60.2417 88.1848 60.019C87.1198 59.5978 86.2984 59.0201 85.7171 58.4667C85.1359 57.9063 84.7878 57.3807 84.5755 57.0153C84.3632 56.6498 84.2866 56.441 84.2866 56.441C84.2971 56.434 84.3841 56.6394 84.6068 56.9979C84.8261 57.3529 85.1846 57.868 85.7658 58.4145C86.3471 58.9539 87.165 59.5178 88.2231 59.925C88.7451 60.1408 89.3334 60.2939 89.9598 60.4366C90.5898 60.5619 91.2615 60.6489 91.975 60.7116C94.8256 60.99 98.2191 61.3242 101.995 61.5573C102.939 61.613 103.906 61.6618 104.898 61.6896C105.887 61.714 106.899 61.7279 107.923 61.6652C108.177 61.6409 108.434 61.6339 108.692 61.5991C108.949 61.5678 109.207 61.5469 109.44 61.4564C109.917 61.2928 110.328 60.9552 110.669 60.5619C111.354 59.7684 111.817 58.7799 112.218 57.774C112.496 57.064 112.719 56.3436 112.952 55.6266L113.046 55.3586C113.063 55.3133 113.081 55.2681 113.102 55.2228C113.116 55.1985 113.123 55.1776 113.147 55.1463C113.161 55.1289 113.178 55.1115 113.192 55.0975L113.217 55.0767C113.359 54.9827 113.464 54.84 113.554 54.6938C113.718 54.384 113.787 54.0221 113.784 53.6671C113.777 53.312 113.711 52.9535 113.551 52.6507C113.471 52.4976 113.363 52.3688 113.23 52.2679C113.084 52.167 112.938 52.0625 112.792 51.9651C112.193 51.5822 111.563 51.262 110.926 50.9801C109.656 50.4232 108.372 49.9638 107.112 49.6784C107.035 49.6645 106.955 49.6436 106.879 49.6366L106.764 49.6227C106.729 49.6227 106.718 49.6227 106.684 49.6297C106.551 49.7097 106.409 49.7793 106.294 49.8803C106.054 50.0682 105.852 50.3084 105.73 50.5833C105.479 51.1332 105.465 51.7702 105.594 52.3305L105.622 52.4524L105.504 52.4245C101.038 51.4256 97.335 50.5938 94.7699 50.0195H94.7664H94.7629C93.583 49.5218 92.6085 49.2538 91.9472 49.0867C91.6166 49.0032 91.359 48.951 91.185 48.9127C91.011 48.8779 90.9239 48.8535 90.9239 48.8535L90.917 48.8709Z" fill="#2E4C52"/>
<path d="M109.068 55.7282C109.058 55.7491 108.786 55.6516 108.376 55.4254C107.965 55.1992 107.425 54.8302 106.91 54.3325C106.395 53.8313 106.009 53.3058 105.769 52.9055C105.529 52.5053 105.421 52.2338 105.442 52.2234C105.494 52.192 106.023 53.2257 107.039 54.2038C108.045 55.1922 109.1 55.676 109.072 55.7282H109.068Z" fill="#2E4C52"/>
<path d="M33.3459 84.3945C33.3459 84.3945 35.5003 84.5129 36.8403 85.3482C38.1769 86.187 40.3243 87.4852 41.2084 89.0967C41.6156 89.838 40.4566 89.9947 39.8823 89.5631C39.308 89.1315 38.4344 88.324 37.9993 88.2231L37.5643 88.1221C37.5643 88.1221 38.4379 90.0677 38.8904 90.7534C39.3428 91.4356 39.7326 92.605 38.3822 92.6607C38.3822 92.6607 37.4703 93.8441 36.5515 92.967C36.5515 92.967 35.8345 94.039 34.6789 92.5528C34.6789 92.5528 34.0072 93.4055 33.7253 93.0784C33.4434 92.7512 32.5245 92.2361 32.2565 91.1711C31.9885 90.106 30.8608 87.52 30.8608 87.52L33.3494 84.3945H33.3459Z" fill="#FFBF9D"/>
<path d="M14.9819 56.0093C14.9819 56.0093 13.2973 56.4653 12.2706 58.0454C11.4422 59.3193 11.1881 61.5433 11.4248 63.1687C11.926 66.6283 13.5166 72.4756 14.4076 76.2276C14.7139 77.5223 15.3473 79.8403 17.2024 81.069L30.3866 88.9767L33.9123 83.742L21.8907 73.9444L19.5135 60.5166L14.9819 56.0059V56.0093Z" fill="#0E9D90"/>
<path d="M12.7045 69.2068C12.7045 69.2068 12.7219 69.252 12.7463 69.3425C12.7741 69.4435 12.8089 69.5757 12.8542 69.7497C12.9482 70.1187 13.0839 70.6477 13.2579 71.3264C13.6025 72.7082 14.1002 74.6921 14.7163 77.1563C15.0295 78.3744 15.7535 79.6274 16.8881 80.595C17.445 81.0927 18.1306 81.4547 18.8163 81.8758C19.502 82.29 20.212 82.7181 20.9359 83.1532C23.8421 84.9073 27.0477 86.846 30.4342 88.889L30.3124 88.9169C30.7161 88.3182 31.1477 87.6778 31.5793 87.0339C32.345 85.8958 33.1003 84.7751 33.8381 83.6857L33.8555 83.804C29.3274 80.0764 25.2204 76.6968 21.9383 73.9925L21.9209 73.9786L21.9139 73.9577C21.1273 70.6442 20.5565 67.9364 20.1981 66.05C20.0171 65.1068 19.8918 64.3724 19.8117 63.8712C19.7769 63.6275 19.7491 63.4361 19.7282 63.3004C19.7108 63.1716 19.7073 63.1055 19.7073 63.1055C19.7073 63.1055 19.7247 63.1716 19.7491 63.2969C19.7734 63.4326 19.8082 63.6206 19.8535 63.8642C19.9475 64.3619 20.0832 65.0963 20.2746 66.0361C20.6575 67.9155 21.2492 70.6199 22.0497 73.9263L22.0253 73.8881C25.3144 76.582 29.4318 79.9511 33.9669 83.6683L34.0296 83.7205L33.9843 83.7901C33.2499 84.8795 32.4947 86.0002 31.729 87.1418C31.2939 87.7857 30.8623 88.4261 30.4586 89.0248L30.4098 89.0979L30.3368 89.0526C26.9537 87.0026 23.7482 85.0605 20.8454 83.2993C20.1215 82.8608 19.4149 82.4292 18.7293 82.015C18.0506 81.5939 17.3545 81.2215 16.7872 80.7098C15.6351 79.7179 14.9042 78.4336 14.591 77.1911C13.9993 74.7234 13.519 72.7291 13.1883 71.3473C13.0282 70.6651 12.9029 70.1326 12.8159 69.7637C12.7776 69.5896 12.7463 69.4539 12.7254 69.353C12.7045 69.259 12.6976 69.2137 12.701 69.2103L12.7045 69.2068Z" fill="#2E4C52"/>
<path d="M12.9194 57.8751C12.9194 57.8751 13.0099 57.8194 13.1874 57.7637C13.3649 57.7045 13.626 57.6384 13.9601 57.5896C14.6144 57.4992 15.589 57.4852 16.5322 57.9377C17.458 58.411 18.0915 59.1315 18.4534 59.6884C18.6344 59.9703 18.7493 60.2209 18.805 60.3984C18.8641 60.5759 18.8746 60.6803 18.8676 60.6838C18.8363 60.6943 18.7319 60.2905 18.349 59.7615C17.9731 59.2359 17.3362 58.5503 16.4521 58.1013C15.5577 57.6732 14.6179 57.6627 13.974 57.7184C13.3232 57.7811 12.9299 57.9099 12.9194 57.8785V57.8751Z" fill="#2E4C52"/>
</svg>
