<svg width="24" height="28" viewBox="0 0 24 28" fill="none" xmlns="http://www.w3.org/2000/svg">
<path d="M15.6034 23.6251C15.6034 24.0241 15.5013 24.4193 15.303 24.7881C15.1046 25.1568 14.814 25.4919 14.4475 25.7741C14.0811 26.0563 13.646 26.2802 13.1672 26.433C12.6885 26.5856 12.1753 26.6643 11.6571 26.6643C11.1388 26.6643 10.6258 26.5856 10.1469 26.433C9.66812 26.2802 9.2331 26.0563 8.86666 25.7741C8.50021 25.4919 8.20953 25.1568 8.01122 24.7881C7.8129 24.4193 7.71082 24.0241 7.71082 23.6251" stroke="white" stroke-width="2" stroke-linecap="round"/>
<path d="M20.938 12.2162C21.0693 13.3137 21.373 14.3863 21.8401 15.3938L22.1884 16.1446C23.5165 19.0086 21.7869 22.3562 18.6825 22.9299L18.4718 22.9688C13.9658 23.8017 9.34529 23.8017 4.83928 22.9688C1.70957 22.3904 0.0538085 18.9278 1.56828 16.1286L1.86615 15.578C2.67943 14.0748 3.10531 12.3927 3.10531 10.6835V8.94516C3.10531 6.01953 4.76119 3.34593 7.38043 2.04249C9.658 0.909096 12.2653 0.698349 14.6692 1.41796" stroke="white" stroke-width="2" stroke-linecap="round"/>
<path d="M19.711 9.09178C21.5275 9.09178 23 7.61923 23 5.80276C23 3.98628 21.5275 2.51373 19.711 2.51373C17.8945 2.51373 16.422 3.98628 16.422 5.80276C16.422 7.61923 17.8945 9.09178 19.711 9.09178Z" fill="#FF0000"/>
</svg>
