<svg width="32" height="32" viewBox="0 0 32 32" fill="none" xmlns="http://www.w3.org/2000/svg">
<path d="M16 31.2516C15.4987 31.2522 15.0042 31.1362 14.5555 30.9128L8.94547 28.107C6.85347 27.07 5.0939 25.4675 3.8663 23.4813C2.6387 21.4951 1.99218 19.2047 2.00007 16.8698V8.69525C1.99817 7.78498 2.31196 6.9022 2.88798 6.19736C3.464 5.49252 4.26661 5.00923 5.15903 4.82983C6.51617 4.56407 7.84025 4.15096 9.10773 3.59784C10.7059 2.89903 12.1999 1.9829 13.5475 0.875389C14.2392 0.309297 15.1055 0 15.9993 0C16.8931 0 17.7594 0.309297 18.4511 0.875389C19.7998 1.98312 21.2947 2.8997 22.8937 3.59927C24.1608 4.1518 25.4844 4.56442 26.841 4.82983C27.7333 5.00948 28.5357 5.49285 29.1117 6.19763C29.6877 6.90241 30.0016 7.78505 29.9999 8.69525V16.8698C30.0077 19.2047 29.3611 21.495 28.1335 23.4812C26.9059 25.4673 25.1464 27.0699 23.0545 28.107L17.4445 30.9128C16.9958 31.1363 16.5013 31.2523 16 31.2516ZM16 2.1519C15.6042 2.15149 15.2205 2.28852 14.9145 2.53959C13.4134 3.77308 11.7493 4.79357 9.96926 5.57219C8.55848 6.18796 7.08465 6.64778 5.574 6.94346C5.17122 7.02616 4.80955 7.24593 4.55062 7.56535C4.29168 7.88476 4.15148 8.28407 4.15391 8.69525V16.8698C4.1472 18.8046 4.68283 20.7026 5.70005 22.3485C6.71727 23.9944 8.17537 25.3223 9.90896 26.1815L15.519 28.9858C15.6686 29.0595 15.8332 29.0979 16 29.0979C16.1668 29.0979 16.3314 29.0595 16.481 28.9858L22.0925 26.1815C23.8258 25.3221 25.2836 23.9941 26.3006 22.3482C27.3175 20.7024 27.8529 18.8045 27.8461 16.8698V8.69525C27.8485 8.28387 27.7081 7.8844 27.4488 7.56496C27.1896 7.24551 26.8276 7.02587 26.4246 6.94346C24.9145 6.64746 23.4411 6.18765 22.0307 5.57219C20.2503 4.79347 18.5858 3.773 17.0841 2.53959C16.7786 2.28863 16.3954 2.15159 16 2.1519Z" fill="white"/>
<path d="M17.4359 21.788H16C15.7144 21.788 15.4405 21.6746 15.2385 21.4726C15.0366 21.2706 14.9231 20.9967 14.9231 20.7111V16.0445H14.5641C14.2785 16.0445 14.0046 15.931 13.8026 15.729C13.6007 15.5271 13.4872 15.2532 13.4872 14.9675C13.4872 14.6819 13.6007 14.408 13.8026 14.206C14.0046 14.0041 14.2785 13.8906 14.5641 13.8906H16C16.2856 13.8906 16.5596 14.0041 16.7615 14.206C16.9635 14.408 17.0769 14.6819 17.0769 14.9675V19.6342H17.4359C17.7215 19.6342 17.9955 19.7476 18.1974 19.9496C18.3994 20.1516 18.5128 20.4255 18.5128 20.7111C18.5128 20.9967 18.3994 21.2706 18.1974 21.4726C17.9955 21.6746 17.7215 21.788 17.4359 21.788Z" fill="white"/>
<path d="M16 11.7386C16.8922 11.7386 17.6154 11.0153 17.6154 10.1232C17.6154 9.23104 16.8922 8.50781 16 8.50781C15.1079 8.50781 14.3846 9.23104 14.3846 10.1232C14.3846 11.0153 15.1079 11.7386 16 11.7386Z" fill="white"/>
</svg>
