<svg width="18" height="20" viewBox="0 0 18 20" fill="none" xmlns="http://www.w3.org/2000/svg">
<path d="M17.2 13.6818V9.18776C17.2 5.32803 17.2 3.39814 16.0138 2.19907C14.8276 1 12.9184 1 9.10001 1C5.28163 1 3.37244 1 2.18622 2.19907C1 3.39814 1 5.32803 1 9.18776V13.6818C1 16.4688 1 17.8622 1.6607 18.4711C1.97579 18.7615 2.37354 18.944 2.79723 18.9924C3.68562 19.0941 4.72306 18.1764 6.79795 16.3412C7.71509 15.5301 8.17373 15.1244 8.70428 15.0176C8.96555 14.965 9.23447 14.965 9.49574 15.0176C10.0263 15.1244 10.4849 15.5301 11.402 16.3412C13.477 18.1764 14.5144 19.0941 15.4028 18.9924C15.8265 18.944 16.2242 18.7615 16.5393 18.4711C17.2 17.8622 17.2 16.4688 17.2 13.6818Z" stroke="white" stroke-width="1.6"/>
<path d="M11.8 4.60059H6.40002" stroke="white" stroke-width="1.6" stroke-linecap="round"/>
</svg>
