<svg width="32" height="32" viewBox="0 0 32 32" fill="none" xmlns="http://www.w3.org/2000/svg">
<path d="M27.9865 15.2658C27.9865 21.848 23.2081 28.0128 16.6798 29.8165C16.2356 29.9377 15.751 29.9377 15.3068 29.8165C8.77844 28.0128 4 21.848 4 15.2658V9.35664C4 8.25288 4.83456 7.00107 5.87101 6.5838L13.3685 3.51486C15.0511 2.82838 16.949 2.82838 18.6315 3.51486L26.129 6.5838C27.152 7.00107 28 8.25288 28 9.35664L27.9865 15.2658Z" stroke="white" stroke-width="2" stroke-linecap="round" stroke-linejoin="round"/>
<path d="M15.9932 17.1244C17.4801 17.1244 18.6853 15.9192 18.6853 14.4323C18.6853 12.9455 17.4801 11.7402 15.9932 11.7402C14.5064 11.7402 13.3011 12.9455 13.3011 14.4323C13.3011 15.9192 14.5064 17.1244 15.9932 17.1244Z" stroke="white" stroke-width="2" stroke-miterlimit="10" stroke-linecap="round" stroke-linejoin="round"/>
<path d="M15.9933 17.123V21.1612" stroke="white" stroke-width="2" stroke-miterlimit="10" stroke-linecap="round" stroke-linejoin="round"/>
</svg>
