<svg width="17" height="20" viewBox="0 0 17 20" fill="none" xmlns="http://www.w3.org/2000/svg">
<path fill-rule="evenodd" clip-rule="evenodd" d="M13.5897 0C11.7488 0 10.2564 1.49238 10.2564 3.33333C10.2564 3.53427 10.2742 3.73104 10.3083 3.92217L5.45632 7.31854C5.43166 7.3358 5.40833 7.35424 5.38634 7.37373C4.82044 6.93074 4.10772 6.66667 3.33333 6.66667C1.49238 6.66667 0 8.15908 0 10C0 11.8409 1.49238 13.3333 3.33333 13.3333C4.10772 13.3333 4.82044 13.0692 5.38634 12.6263C5.40833 12.6457 5.43166 12.6642 5.45632 12.6814L10.3083 16.0778C10.2742 16.2689 10.2564 16.4657 10.2564 16.6667C10.2564 18.5076 11.7488 20 13.5897 20C15.4307 20 16.9231 18.5076 16.9231 16.6667C16.9231 14.8257 15.4307 13.3333 13.5897 13.3333C12.5099 13.3333 11.5501 13.8468 10.9409 14.6428L6.34673 11.4268C6.55189 10.9943 6.66667 10.5106 6.66667 10C6.66667 9.48944 6.55189 9.00574 6.34673 8.57323L10.9409 5.35723C11.5501 6.15325 12.5099 6.66667 13.5897 6.66667C15.4307 6.66667 16.9231 5.17429 16.9231 3.33333C16.9231 1.49238 15.4307 0 13.5897 0ZM11.7949 3.33333C11.7949 2.34205 12.5985 1.53846 13.5897 1.53846C14.581 1.53846 15.3846 2.34205 15.3846 3.33333C15.3846 4.32462 14.581 5.12821 13.5897 5.12821C12.5985 5.12821 11.7949 4.32462 11.7949 3.33333ZM3.33333 8.20513C2.34205 8.20513 1.53846 9.00872 1.53846 10C1.53846 10.9913 2.34205 11.7949 3.33333 11.7949C4.32462 11.7949 5.1282 10.9913 5.1282 10C5.1282 9.00872 4.32462 8.20513 3.33333 8.20513ZM13.5897 14.8718C12.5985 14.8718 11.7949 15.6754 11.7949 16.6667C11.7949 17.6579 12.5985 18.4615 13.5897 18.4615C14.581 18.4615 15.3846 17.6579 15.3846 16.6667C15.3846 15.6754 14.581 14.8718 13.5897 14.8718Z" fill="white"/>
</svg>
