<svg width="25" height="21" viewBox="0 0 25 21" fill="none" xmlns="http://www.w3.org/2000/svg">
<path fill-rule="evenodd" clip-rule="evenodd" d="M13.7086 0.219349C13.8591 0.151537 14.0259 0.128621 14.1891 0.153354C14.3523 0.178088 14.5049 0.249419 14.6286 0.358777L24.0229 8.64449C24.2355 8.83217 24.4058 9.06292 24.5224 9.32144C24.639 9.57995 24.6993 9.86031 24.6993 10.1439C24.6993 10.4275 24.639 10.7079 24.5224 10.9664C24.4058 11.2249 24.2355 11.4557 24.0229 11.6433L14.6286 19.9291C14.5049 20.0381 14.3524 20.1092 14.1893 20.1337C14.0263 20.1583 13.8596 20.1353 13.7093 20.0675C13.559 19.9997 13.4314 19.89 13.3419 19.7515C13.2524 19.613 13.2047 19.4517 13.2046 19.2868V15.0011C10.9783 15.0091 9.0743 15.0696 7.34629 15.5656C5.50629 16.0925 3.83658 17.1245 2.25715 19.2296C2.14921 19.3736 1.99873 19.4799 1.82701 19.5335C1.65529 19.5871 1.47105 19.5854 1.30038 19.5285C1.12972 19.4716 0.981276 19.3625 0.876087 19.2165C0.770898 19.0706 0.714294 18.8952 0.714294 18.7153C0.714294 13.4365 2.46172 10.0365 5.07658 7.97478C7.46972 6.08906 10.4732 5.41478 13.2046 5.30392V1.00106C13.2044 0.836079 13.2519 0.674562 13.3413 0.535899C13.4307 0.397237 13.5582 0.287322 13.7086 0.219349ZM14.9189 2.89935V5.91535C14.9189 6.20163 14.8059 6.47636 14.6046 6.67986C14.4032 6.88336 14.1297 6.9992 13.8434 7.00221C11.144 7.03192 8.29601 7.61935 6.13715 9.3222C4.39201 10.6982 3.00572 12.8765 2.57144 16.3233C3.7946 15.1915 5.2695 14.3669 6.87429 13.9176C9.0343 13.2993 11.3772 13.2879 13.832 13.2868C14.12 13.2868 14.3961 13.4012 14.5997 13.6048C14.8033 13.8084 14.9177 14.0845 14.9177 14.3725V17.3885L22.8892 10.3588C22.9196 10.332 22.9439 10.299 22.9606 10.262C22.9773 10.2251 22.9859 10.185 22.9859 10.1445C22.9859 10.104 22.9773 10.0639 22.9606 10.0269C22.9439 9.98999 22.9196 9.95702 22.8892 9.9302L14.9189 2.89935Z" fill="white"/>
</svg>
