<svg width="10" height="10" viewBox="0 0 10 10" fill="none" xmlns="http://www.w3.org/2000/svg">
<g clip-path="url(#clip0_0_73)">
<path fill-rule="evenodd" clip-rule="evenodd" d="M8.36025 6.05048C8.14675 6.25667 8.04975 6.55381 8.09975 6.84524L8.42225 8.71C8.52275 9.29048 8.05775 9.76191 7.53025 9.76191C7.39125 9.76191 7.24775 9.72905 7.10875 9.65667L5.42125 8.77619C5.28925 8.70762 5.14475 8.67334 4.99975 8.67334C4.85524 8.67334 4.71075 8.70762 4.57875 8.77619L2.89124 9.65667C2.75224 9.72905 2.60874 9.76191 2.46974 9.76191C1.94224 9.76191 1.47724 9.29048 1.57774 8.71L1.90024 6.84524C1.95024 6.55381 1.85324 6.25667 1.63974 6.05048L0.274242 4.73C-0.262758 4.21048 0.0337434 3.30524 0.775744 3.1981L2.66274 2.9262C2.95774 2.88381 3.21274 2.70001 3.34424 2.43477L4.18824 0.738572C4.35424 0.404762 4.67724 0.238098 4.99975 0.238098C5.32275 0.238098 5.64575 0.404762 5.81175 0.738572L6.65575 2.43477C6.78725 2.70001 7.04225 2.88381 7.33725 2.9262L9.22425 3.1981C9.96625 3.30524 10.2627 4.21048 9.72575 4.73L8.36025 6.05048Z" fill="white"/>
</g>
<defs>
<clipPath id="clip0_0_73">
<rect width="10" height="10" fill="white"/>
</clipPath>
</defs>
</svg>
