<?xml version="1.0" encoding="UTF-8"?>
<svg version="1.1" xmlns="http://www.w3.org/2000/svg" width="512" height="512">
<path d="M0 0 C4.51302598 0.01709017 9.02552047 0.00689385 13.53852844 -0.01032829 C156.10572378 -0.46953191 156.10572378 -0.46953191 205.10351562 47.64111328 C256.18736929 99.20293687 251.67826414 186.57950833 251.40496826 254.12133789 C251.35971662 259.85855239 251.2522989 265.59320235 251.10351562 271.32861328 C251.08431061 272.08722656 251.06510559 272.84583984 251.0453186 273.62744141 C250.81421847 282.15333246 250.34945424 290.62774162 249.61914062 299.12548828 C249.4912903 300.72838229 249.36408435 302.33132784 249.23754883 303.93432617 C249.00027803 306.93602968 248.70606027 309.92376208 248.3737793 312.91625977 C247.72698702 319.87554572 247.8668881 324.60965931 252.13085938 330.40673828 C253.55033124 332.07581836 254.97788079 333.7380867 256.41601562 335.39111328 C257.97636016 337.83025591 259.28040681 340.34893707 260.54101562 342.95361328 C260.86666504 343.61707764 261.19231445 344.28054199 261.52783203 344.96411133 C263.96496298 350.09186825 265.97236245 355.32773811 267.79101562 360.70361328 C268.14897217 361.75947632 268.14897217 361.75947632 268.51416016 362.83666992 C271.99382823 373.68452885 272.79409354 384.22387508 272.72851562 395.57861328 C272.72602814 396.26564331 272.72354065 396.95267334 272.72097778 397.66052246 C272.56107618 426.19693555 263.33288204 451.90987795 244.41601562 473.39111328 C243.55860597 474.47188175 242.70383234 475.55475547 241.85351562 476.64111328 C229.2014261 490.91526556 211.60905878 501.29345994 193.66601562 507.32861328 C192.8276416 507.61099854 191.98926758 507.89338379 191.12548828 508.18432617 C179.71871481 511.80991567 168.59572781 512.75744978 156.66601562 512.70361328 C156.00515961 512.70112579 155.34430359 512.69863831 154.66342163 512.69607544 C133.91369647 512.57539194 106.51002122 508.12700967 90.77294922 492.78979492 C86.50404964 488.83632278 83.49216922 488.00599212 77.66601562 488.20751953 C75.64363359 488.36965458 73.62113249 488.53361743 71.60244751 488.73666382 C67.7272792 489.12117874 63.8427954 489.3836318 59.95898438 489.66455078 C59.12199509 489.72775009 58.2850058 489.7909494 57.4226532 489.85606384 C46.87002679 490.62768819 36.30503699 490.87078852 25.72851562 491.07861328 C24.19854446 491.10878036 24.19854446 491.10878036 22.63766479 491.13955688 C-18.54396143 491.90322353 -59.58067193 490.11285171 -100.45898438 484.95361328 C-101.24161652 484.85632935 -102.02424866 484.75904541 -102.83059692 484.65881348 C-117.96394366 482.75167521 -133.7123524 480.71666537 -147.83398438 474.70361328 C-148.65914551 474.36112549 -149.48430664 474.0186377 -150.33447266 473.66577148 C-183.49525424 459.47922074 -210.91120353 431.11118342 -224.33398438 397.70361328 C-233.47089586 373.70054933 -235.03599542 346.97770132 -237.27148438 321.57861328 C-237.33224152 320.88943817 -237.39299866 320.20026306 -237.45559692 319.49020386 C-238.91087631 302.77088313 -239.74975711 286.13918213 -239.78710938 269.35986328 C-239.78993675 268.4778273 -239.79276413 267.59579132 -239.79567719 266.68702698 C-239.81055501 261.9972404 -239.81985007 257.30748355 -239.82421875 252.61767578 C-239.82855322 248.84283516 -239.84226382 245.06822959 -239.86523438 241.29345703 C-240.06251306 208.15229724 -238.79459321 175.14056904 -234.44116211 142.25195312 C-234.13498695 139.92887763 -233.85006135 137.60375625 -233.56640625 135.27783203 C-232.55103588 127.19068489 -231.24868185 119.19840067 -229.59960938 111.21533203 C-229.44242935 110.44641632 -229.28524933 109.67750061 -229.12330627 108.88528442 C-227.4973973 101.32846119 -224.7988673 94.42512219 -221.58398438 87.39111328 C-221.05933594 86.22064453 -220.5346875 85.05017578 -219.99414062 83.84423828 C-213.38998485 69.85896723 -204.24975496 58.45191241 -193.58398438 47.39111328 C-192.86855469 46.61251953 -192.153125 45.83392578 -191.41601562 45.03173828 C-179.41673923 32.33456776 -164.04343214 22.88523159 -148.02148438 16.20361328 C-146.89963745 15.72178589 -146.89963745 15.72178589 -145.75512695 15.23022461 C-132.05434843 9.75246165 -116.87520781 7.89383672 -102.31298828 6.11791992 C-100.03286602 5.83769332 -97.75591387 5.53827319 -95.47851562 5.23681641 C-63.78005891 1.18778261 -31.92830482 -0.12173837 0 0 Z M-97.08398438 44.82861328 C-97.85719025 44.92589722 -98.63039612 45.02318115 -99.42703247 45.12341309 C-112.72287074 46.81966854 -126.88692645 48.64952523 -138.83398438 55.07861328 C-139.81637085 55.58908203 -139.81637085 55.58908203 -140.81860352 56.10986328 C-147.25410061 59.56011151 -152.95178537 63.74165868 -158.58398438 68.39111328 C-159.36 69.00341797 -160.13601562 69.61572266 -160.93554688 70.24658203 C-187.64784268 92.38097555 -192.99999551 123.33261471 -196.70898438 155.95361328 C-196.78938965 156.64679657 -196.86979492 157.33997986 -196.95263672 158.0541687 C-197.57630782 163.49304682 -198.10430587 168.93771715 -198.58398438 174.39111328 C-198.67365479 175.40743835 -198.7633252 176.42376343 -198.85571289 177.47088623 C-200.62463414 198.33409053 -200.8986443 219.11375075 -200.84472656 240.04052734 C-200.83333299 244.49724645 -200.84011986 248.9537266 -200.85160255 253.41043758 C-200.89771547 274.49143871 -200.43769466 295.38114759 -198.58398438 316.39111328 C-198.46349731 317.76091339 -198.46349731 317.76091339 -198.34057617 319.15838623 C-197.8666794 324.3903917 -197.31531157 329.61042594 -196.70898438 334.82861328 C-196.62372498 335.57396332 -196.53846558 336.31931335 -196.45062256 337.08724976 C-192.38787569 372.4040145 -184.67395333 402.08535608 -155.67382812 425.11376953 C-107.1181756 460.90131115 -22.97769127 453.73402313 34.60351562 451.95361328 C35.91215576 451.91445801 37.2207959 451.87530273 38.5690918 451.83496094 C39.79088135 451.79290527 41.0126709 451.75084961 42.27148438 451.70751953 C43.36098389 451.67086182 44.4504834 451.6342041 45.57299805 451.59643555 C47.99759222 451.42133175 50.09460007 451.08097948 52.41601562 450.39111328 C51.76394035 446.18797747 50.31669425 442.71037244 48.60351562 438.82861328 C37.85813433 412.6395835 37.8477417 380.92644653 48.16601562 354.57861328 C61.50146415 323.80706581 82.65144684 301.31346503 113.93994141 288.32958984 C143.57880464 277.0959288 176.65958274 278.56977378 205.41601562 291.39111328 C207.07958453 292.06547276 208.74507582 292.73523037 210.41601562 293.39111328 C211.36114187 289.34105271 211.60981782 285.47007337 211.73242188 281.31689453 C211.75329361 280.64080643 211.77416534 279.96471832 211.79566956 279.2681427 C211.86153904 277.08007647 211.92061992 274.89190411 211.97851562 272.70361328 C211.99936218 271.95215027 212.02020874 271.20068726 212.04168701 270.42645264 C212.34641838 259.4117509 212.61999386 248.40989887 212.41601562 237.39111328 C212.39812988 236.23675781 212.38024414 235.08240234 212.36181641 233.89306641 C211.84058694 203.07584965 209.90330927 172.40707773 205.97851562 141.82861328 C205.88123169 141.05149994 205.78394775 140.2743866 205.68371582 139.47372437 C204.01900996 126.35304783 201.96593363 112.94586061 195.66601562 101.14111328 C195.3216748 100.47764893 194.97733398 99.81418457 194.62255859 99.13061523 C182.84519612 77.00856171 162.18498138 57.66530073 137.9765625 50.07470703 C118.43287067 44.85709289 97.502484 43.14302002 77.41601562 41.39111328 C76.28953613 41.2920166 75.16305664 41.19291992 74.00244141 41.09082031 C17.14551911 36.28589585 -40.50147903 37.55566357 -97.08398438 44.82861328 Z M106.41601562 337.39111328 C105.40539062 338.15423828 104.39476562 338.91736328 103.35351562 339.70361328 C89.96820335 351.94975005 80.78537424 369.75406792 79.1953125 387.91137695 C78.12592971 412.1197564 84.35765824 431.95006299 100.41601562 450.39111328 C114.3777066 465.15204238 133.78458795 473.09166963 153.83398438 474.35205078 C176.63076705 474.60065256 196.44309206 465.77522645 212.82617188 450.08251953 C228.80456466 433.39153976 233.98304868 413.04872141 233.68554688 390.49267578 C233.08370548 371.14480901 223.76347349 353.98193293 210.41601562 340.39111328 C192.58164643 323.75312143 171.98896572 318.41643155 148.17480469 319.21630859 C132.49952334 320.20953881 118.21889686 327.30590707 106.41601562 337.39111328 Z " fill="#000000" transform="translate(239.583984375,-0.39111328125)"/>
<path d="M0 0 C1.5366805 -0.00573832 1.5366805 -0.00573832 3.10440505 -0.01159257 C6.53585231 -0.02190813 9.9671318 -0.0179331 13.39859009 -0.01396179 C15.85937149 -0.01830906 18.32015153 -0.02349226 20.78092957 -0.02944946 C26.77060463 -0.04145749 32.76021379 -0.04399101 38.74989484 -0.0416492 C43.61953972 -0.03986502 48.48917099 -0.04161782 53.35881424 -0.04587364 C54.05230719 -0.04646883 54.74580014 -0.04706402 55.46030802 -0.04767724 C56.86921997 -0.04888902 58.27813192 -0.05010315 59.68704386 -0.05131962 C72.89582634 -0.06219258 86.10458328 -0.06003389 99.3133672 -0.05393478 C111.39031813 -0.0487664 123.46718837 -0.06001937 135.54412334 -0.07903299 C147.95189571 -0.09841736 160.35962993 -0.10666631 172.76741755 -0.10290974 C179.73055528 -0.10099853 186.69362436 -0.1034774 193.65674973 -0.11762428 C200.20504567 -0.13079396 206.75320686 -0.12826991 213.30151176 -0.11521339 C215.70409258 -0.1128454 218.10668472 -0.11559025 220.50925255 -0.12383652 C223.79061723 -0.13428644 227.07143806 -0.12621684 230.3527832 -0.11352539 C231.30201578 -0.12089968 232.25124835 -0.12827396 233.22924554 -0.13587171 C240.22923444 -0.07897122 245.4545849 1.28186575 251.55337524 4.88569641 C255.60519475 9.16261701 257.52691316 14.00950514 258.24087524 19.82319641 C257.24140097 27.67620859 254.86183158 31.82383593 248.74087524 36.91304016 C245.66868964 39.04994345 243.09395329 39.38649703 239.45853138 39.39491749 C238.11934815 39.40160425 238.11934815 39.40160425 236.75311071 39.40842611 C235.77122343 39.40824174 234.78933614 39.40805738 233.7776947 39.40786743 C232.21423247 39.41338246 232.21423247 39.41338246 230.61918515 39.41900891 C227.10936925 39.43006528 223.59958293 39.43389291 220.0897522 39.43769836 C217.58015346 39.44396152 215.07055565 39.45060819 212.56095886 39.45761108 C205.01742832 39.47685232 197.47390297 39.48744138 189.93035415 39.49633887 C186.37745452 39.50072254 182.82455639 39.50608916 179.27165794 39.51132774 C167.46001272 39.52833992 155.64836843 39.5428338 143.83671284 39.55007648 C140.77164522 39.55198636 137.7065776 39.5539067 134.64151001 39.55586243 C133.87970762 39.55634617 133.11790522 39.55682991 132.33301791 39.55732831 C119.99396771 39.56562755 107.65501449 39.59096269 95.31600664 39.6234431 C82.64617205 39.65652229 69.97638672 39.67452603 57.30650872 39.67772073 C50.19350336 39.67988507 43.08063941 39.68862252 35.96767616 39.7141819 C29.27574314 39.73817289 22.58410849 39.74170921 15.89212608 39.73142052 C13.43632537 39.73092424 10.98051228 39.73727166 8.52474976 39.75097656 C5.17085184 39.76864598 1.81787231 39.76161274 -1.536026 39.7484436 C-2.99212651 39.76489747 -2.99212651 39.76489747 -4.47764319 39.78168374 C-11.33327412 39.71674044 -17.03380253 38.38322791 -22.03646851 33.44429016 C-22.57980835 32.57997375 -22.57980835 32.57997375 -23.13412476 31.69819641 C-23.51439819 31.11940735 -23.89467163 30.54061829 -24.28646851 29.94429016 C-26.8210479 25.25586218 -26.74255609 20.44319947 -26.19662476 15.26069641 C-24.40682538 9.34924476 -21.24166057 5.69132077 -16.19662476 2.26069641 C-10.80568603 -0.09232556 -5.77287806 -0.02287691 0 0 Z " fill="#000000" transform="translate(129.19662475585938,126.73930358886719)"/>
<path d="M0 0 C1.30517075 -0.0071553 2.61034149 -0.01431061 3.95506287 -0.02168274 C5.40492225 -0.02452301 6.85478188 -0.02723474 8.30464172 -0.02983093 C9.82903193 -0.03609634 11.35342061 -0.04274321 12.87780762 -0.04974365 C17.88766925 -0.07077965 22.89753116 -0.08114653 27.90742493 -0.09111023 C29.63302438 -0.09515815 31.35862367 -0.09927508 33.08422279 -0.10346031 C41.19257777 -0.12251204 49.30092364 -0.13674235 57.40929669 -0.14507228 C66.76334729 -0.15484094 76.11716102 -0.18115077 85.47112817 -0.22157317 C92.70437687 -0.25175623 99.93755777 -0.26654329 107.17086822 -0.26985329 C111.48935157 -0.27220156 115.80758186 -0.28113254 120.12599754 -0.30631447 C124.19148801 -0.32963824 128.25655959 -0.3338113 132.32209969 -0.32355309 C133.81037161 -0.32305863 135.29866444 -0.32935234 136.78687286 -0.34310913 C144.84631995 -0.41341228 150.93299073 -0.35378098 157.77070618 4.14717102 C159.61054993 5.96357727 159.61054993 5.96357727 160.70820618 7.70967102 C161.27861633 8.57785461 161.27861633 8.57785461 161.86054993 9.46357727 C164.52894428 14.39953421 164.31280772 19.6956147 163.77070618 25.14717102 C162.01414502 30.5473419 158.29604321 33.97943509 153.77070618 37.14717102 C149.49927444 38.86072225 145.91941794 39.3993457 141.33250427 39.40786743 C140.05686615 39.41495224 138.78122803 39.42203705 137.4669342 39.42933655 C136.06574976 39.42704305 134.66456567 39.42453339 133.26338196 39.42182922 C131.77795659 39.42617961 130.29253346 39.43136385 128.80711365 39.43731689 C124.78224138 39.45068369 120.75746316 39.4512881 116.73257303 39.4487536 C113.36788394 39.44768221 110.00321374 39.4525716 106.6385287 39.45735902 C98.69771014 39.4684464 90.75693889 39.46889608 82.81611633 39.46284485 C74.63521098 39.45680632 66.45447766 39.46911472 58.27360165 39.49041492 C51.23985708 39.50805227 44.20616717 39.51402887 37.17240131 39.51077718 C32.97586505 39.50896741 28.77945149 39.51156967 24.58293533 39.52549171 C20.63480869 39.53810006 16.68694945 39.53609771 12.73882675 39.52308083 C11.2941046 39.52072194 9.84936345 39.52342499 8.40466309 39.53170395 C-7.96800186 39.61872548 -7.96800186 39.61872548 -14.25273132 34.49873352 C-19.43400908 27.87987581 -21.25249172 22.64359915 -20.22929382 14.14717102 C-18.60181675 8.53383692 -15.74580473 5.23262919 -10.91288757 2.05732727 C-7.22207359 0.06206124 -4.11698551 0.01547064 0 0 Z " fill="#000000" transform="translate(123.22929382324219,245.8528289794922)"/>
<path d="M0 0 C5.68733533 7.86769945 5.15805444 17.17561272 5.08251953 26.47802734 C5.06643999 28.8348987 5.0824253 31.19005579 5.1015625 33.546875 C5.11449611 42.60866488 5.04540344 51.09716035 -0.55859375 58.71484375 C-5.00090006 62.95522705 -9.1846556 64.48914654 -15.24609375 64.77734375 C-21.6569289 64.56267347 -26.27780975 62.47751111 -30.68359375 57.83984375 C-33.1153898 54.09861906 -34.55568827 51.45673552 -34.58325195 46.94189453 C-34.59278397 46.08064972 -34.60231598 45.21940491 -34.61213684 44.33206177 C-34.61122543 43.40908295 -34.61031403 42.48610413 -34.609375 41.53515625 C-34.61366013 40.5784201 -34.61794525 39.62168396 -34.62236023 38.63595581 C-34.62809861 36.61359447 -34.62860742 34.59121248 -34.62426758 32.56884766 C-34.62111235 29.48303773 -34.64455666 26.39819111 -34.66992188 23.3125 C-34.67219547 21.34505329 -34.67289809 19.37760401 -34.671875 17.41015625 C-34.68108475 16.49122589 -34.69029449 15.57229553 -34.69978333 14.6255188 C-34.65638797 8.58139157 -33.78869603 4.27829404 -29.765625 -0.48828125 C-20.20110268 -8.75784449 -9.57448532 -8.17529122 0 0 Z " fill="#000000" transform="translate(411.30859375,341.66015625)"/>
<path d="M0 0 C1.09441406 -0.0309375 1.09441406 -0.0309375 2.2109375 -0.0625 C8.07096001 -0.1043573 13.12133862 0.829794 17.5 5.0625 C21.18575027 12.22923664 20.686113 23.58022421 19 31.3125 C17.21148013 35.13342881 15.45767177 37.51377087 11.625 39.25 C3.3520524 40.99828865 -8.87523269 41.81803086 -16.265625 37.0234375 C-21.30643912 31.60601083 -20.61835688 23.88446652 -20.5234375 16.96484375 C-20.23069673 11.61076912 -19.47388965 7.64588685 -16.0625 3.3125 C-11.25510769 -0.3768941 -5.87423019 0.04107853 0 0 Z " fill="#000000" transform="translate(396.375,416.75)"/>
</svg>
