<svg width="32" height="32" viewBox="0 0 32 32" fill="none" xmlns="http://www.w3.org/2000/svg">
<g clip-path="url(#clip0_0_141)">
<path d="M16 0C16.2829 0 16.5542 0.112381 16.7543 0.312419C16.9543 0.512458 17.0667 0.783769 17.0667 1.06667V3.2C17.0667 3.4829 16.9543 3.75421 16.7543 3.95425C16.5542 4.15429 16.2829 4.26667 16 4.26667C15.7171 4.26667 15.4458 4.15429 15.2458 3.95425C15.0457 3.75421 14.9333 3.4829 14.9333 3.2V1.06667C14.9333 0.783769 15.0457 0.512458 15.2458 0.312419C15.4458 0.112381 15.7171 0 16 0Z" fill="white"/>
<path fill-rule="evenodd" clip-rule="evenodd" d="M16.0102 6.39844C11.0203 6.39844 6.48325 10.0998 6.40485 15.2843C6.39791 15.7622 6.39845 16.2374 6.40591 16.7152C6.48805 21.8955 11.0187 25.5984 16.0075 25.5984C20.9712 25.5984 25.4998 21.9296 25.5931 16.768C25.6022 16.2534 25.6027 15.7414 25.5936 15.2278C25.5072 10.0624 20.9728 6.39844 16.0102 6.39844ZM11.9526 9.6331C13.1817 8.90781 14.5836 8.52734 16.0107 8.53177C20.0096 8.53177 23.3851 11.4491 23.4614 15.2416C22.3762 15.7421 21.1951 16.0004 20 15.9984C16.0896 15.9984 12.8112 13.2822 11.9526 9.6331ZM10.1648 11.12C9.17071 12.264 8.56271 13.7136 8.53818 15.3168C8.53178 15.7723 8.53178 16.2256 8.53871 16.6816C8.59951 20.5088 11.9872 23.4651 16.0075 23.4651C19.7131 23.4651 22.8832 20.9558 23.3904 17.5664C22.2995 17.9419 21.1537 18.1329 20 18.1318C15.4416 18.1318 11.5702 15.2 10.1648 11.12Z" fill="white"/>
<path d="M17.0667 28.7991C17.0667 28.5162 16.9543 28.2449 16.7542 28.0449C16.5542 27.8449 16.2829 27.7325 16 27.7325C15.7171 27.7325 15.4458 27.8449 15.2458 28.0449C15.0457 28.2449 14.9333 28.5162 14.9333 28.7991V30.9325C14.9333 31.2154 15.0457 31.4867 15.2458 31.6867C15.4458 31.8868 15.7171 31.9991 16 31.9991C16.2829 31.9991 16.5542 31.8868 16.7542 31.6867C16.9543 31.4867 17.0667 31.2154 17.0667 30.9325V28.7991ZM32 15.9991C32 16.282 31.8876 16.5534 31.6876 16.7534C31.4875 16.9534 31.2162 17.0658 30.9333 17.0658H28.8C28.5171 17.0658 28.2458 16.9534 28.0458 16.7534C27.8457 16.5534 27.7333 16.282 27.7333 15.9991C27.7333 15.7162 27.8457 15.4449 28.0458 15.2449C28.2458 15.0449 28.5171 14.9325 28.8 14.9325H30.9333C31.2162 14.9325 31.4875 15.0449 31.6876 15.2449C31.8876 15.4449 32 15.7162 32 15.9991ZM3.2 17.0658C3.4829 17.0658 3.75421 16.9534 3.95425 16.7534C4.15429 16.5534 4.26667 16.282 4.26667 15.9991C4.26667 15.7162 4.15429 15.4449 3.95425 15.2449C3.75421 15.0449 3.4829 14.9325 3.2 14.9325H1.06667C0.783769 14.9325 0.512458 15.0449 0.312419 15.2449C0.112381 15.4449 0 15.7162 0 15.9991C0 16.282 0.112381 16.5534 0.312419 16.7534C0.512458 16.9534 0.783769 17.0658 1.06667 17.0658H3.2ZM27.3136 4.68555C27.5136 4.88558 27.6259 5.15684 27.6259 5.43968C27.6259 5.72252 27.5136 5.99378 27.3136 6.19381L25.8053 7.70261C25.7063 7.80168 25.5887 7.88027 25.4592 7.93388C25.3298 7.9875 25.191 8.0151 25.0509 8.0151C24.9108 8.0151 24.7721 7.9875 24.6427 7.93388C24.5132 7.88027 24.3956 7.80168 24.2965 7.70261C24.1975 7.60354 24.1189 7.48593 24.0653 7.35649C24.0116 7.22705 23.9841 7.08832 23.9841 6.94821C23.9841 6.80811 24.0116 6.66937 24.0653 6.53993C24.1189 6.41049 24.1975 6.29288 24.2965 6.19381L25.8053 4.68555C26.0054 4.48558 26.2766 4.37324 26.5595 4.37324C26.8423 4.37324 27.1136 4.48558 27.3136 4.68555ZM7.70347 25.8045C7.80254 25.7054 7.88112 25.5878 7.93474 25.4584C7.98835 25.3289 8.01595 25.1902 8.01595 25.0501C8.01595 24.91 7.98835 24.7712 7.93474 24.6418C7.88112 24.5124 7.80254 24.3947 7.70347 24.2957C7.6044 24.1966 7.48679 24.118 7.35735 24.0644C7.22791 24.0108 7.08917 23.9832 6.94907 23.9832C6.80896 23.9832 6.67023 24.0108 6.54079 24.0644C6.41135 24.118 6.29374 24.1966 6.19467 24.2957L4.6864 25.8045C4.4921 26.0057 4.38458 26.2751 4.38701 26.5548C4.38944 26.8344 4.50163 27.102 4.69939 27.2998C4.89716 27.4975 5.1647 27.6097 5.44437 27.6121C5.72405 27.6146 5.99349 27.507 6.19467 27.3127L7.70347 25.8045ZM27.3136 27.3127C27.2145 27.4118 27.0969 27.4904 26.9675 27.5441C26.8381 27.5977 26.6993 27.6253 26.5592 27.6253C26.4191 27.6253 26.2803 27.5977 26.1509 27.5441C26.0215 27.4904 25.9039 27.4118 25.8048 27.3127L24.2965 25.8045C24.0965 25.6045 23.984 25.3332 23.984 25.0503C23.9839 24.7674 24.0963 24.496 24.2963 24.2959C24.4963 24.0959 24.7676 23.9834 25.0505 23.9834C25.3334 23.9833 25.6047 24.0957 25.8048 24.2957L27.3136 25.8045C27.5136 26.0045 27.6259 26.2758 27.6259 26.5586C27.6259 26.8415 27.5136 27.1127 27.3136 27.3127ZM6.19467 7.70261C6.29374 7.80165 6.41134 7.8802 6.54077 7.93378C6.6702 7.98737 6.80891 8.01493 6.94899 8.01491C7.08907 8.01488 7.22777 7.98727 7.35718 7.93364C7.48659 7.88001 7.60417 7.80142 7.7032 7.70235C7.80223 7.60328 7.88079 7.48567 7.93437 7.35624C7.98795 7.22682 8.01552 7.0881 8.01549 6.94802C8.01547 6.80794 7.98785 6.66924 7.93423 6.53983C7.8806 6.41042 7.802 6.29285 7.70293 6.19381L6.19467 4.68555C5.99466 4.48547 5.72336 4.37304 5.44046 4.37299C5.15755 4.37294 4.88621 4.48527 4.68613 4.68528C4.48605 4.88529 4.37362 5.15659 4.37357 5.43949C4.37352 5.7224 4.48586 5.99373 4.68587 6.19381L6.19467 7.70261Z" fill="white"/>
</g>
<defs>
<clipPath id="clip0_0_141">
<rect width="32" height="32" fill="white"/>
</clipPath>
</defs>
</svg>
