<svg width="24" height="24" viewBox="0 0 24 24" fill="none" xmlns="http://www.w3.org/2000/svg">
<path d="M20.2 15.6818V11.1878C20.2 7.32803 20.2 5.39814 19.0138 4.19907C17.8276 3 15.9184 3 12.1 3C8.28163 3 6.37244 3 5.18622 4.19907C4 5.39814 4 7.32803 4 11.1878V15.6818C4 18.4688 4 19.8622 4.6607 20.4711C4.97579 20.7615 5.37354 20.944 5.79723 20.9924C6.68562 21.0941 7.72306 20.1764 9.79795 18.3412C10.7151 17.5301 11.1737 17.1244 11.7043 17.0176C11.9655 16.965 12.2345 16.965 12.4957 17.0176C13.0263 17.1244 13.4849 17.5301 14.402 18.3412C16.477 20.1764 17.5144 21.0941 18.4028 20.9924C18.8265 20.944 19.2242 20.7615 19.5393 20.4711C20.2 19.8622 20.2 18.4688 20.2 15.6818Z" stroke="white" stroke-width="1.6"/>
<path d="M14.8 6.60059H9.40002" stroke="white" stroke-width="1.6" stroke-linecap="round"/>
</svg>
