<svg width="28" height="28" viewBox="0 0 28 28" fill="none" xmlns="http://www.w3.org/2000/svg">
<path d="M22 7.2863C23.7143 9.00058 24.2857 11.8577 24.2857 14.1434C24.2857 16.4292 23.7143 19.2863 22 21.0006M18.5714 10.7148C19.1429 11.2863 19.7143 12.4292 19.7143 14.1434C19.7143 15.8577 19.1429 17.0006 18.5714 17.572M3.71429 12.4292V15.8577C3.71429 17.1201 4.28572 18.1434 6.57144 18.7149C8.85715 19.2863 10.5714 24.4292 14 24.4292C16.2857 24.4292 16.2857 3.85773 14 3.85773C10.5714 3.85773 8.85715 9.00058 6.57144 9.57201C4.28572 10.1434 3.71429 11.1668 3.71429 12.4292Z" stroke="white" stroke-width="2.05714" stroke-linecap="round" stroke-linejoin="round"/>
</svg>
