<svg width="28" height="28" viewBox="0 0 28 28" fill="none" xmlns="http://www.w3.org/2000/svg">
<path fill-rule="evenodd" clip-rule="evenodd" d="M14.2681 5.04514C16.1264 3.87028 18.595 3.54571 20.7275 4.22914C25.3664 5.72514 26.8064 10.7823 25.5184 14.8063C23.531 21.1263 15.043 25.8406 14.683 26.0383C14.555 26.1091 14.4132 26.1446 14.2715 26.1446C14.1298 26.1446 13.9892 26.1103 13.8612 26.0406C13.5035 25.8451 5.07725 21.2006 3.02354 14.8074C3.02239 14.8074 3.02239 14.8063 3.02239 14.8063C1.73325 10.7811 3.16868 5.72285 7.80296 4.22914C9.97896 3.52514 12.3504 3.83485 14.2681 5.04514ZM8.32868 5.86114C4.57896 7.07028 3.63725 11.1034 4.65554 14.284C6.25782 19.2691 12.5881 23.3 14.2704 24.2977C15.9584 23.2897 22.3344 19.2143 23.8852 14.2886C24.9035 11.1046 23.9584 7.07142 20.203 5.86114C18.3835 5.27714 16.2612 5.63257 14.7961 6.76628C14.4898 7.00171 14.0647 7.00628 13.7561 6.77314C12.2041 5.60628 10.1767 5.26457 8.32868 5.86114ZM19.1058 8.13074C20.6635 8.63474 21.755 10.0142 21.8887 11.645C21.9264 12.117 21.5755 12.5307 21.1035 12.5685C21.0795 12.5707 21.0567 12.5719 21.0327 12.5719C20.5904 12.5719 20.2155 12.2325 20.179 11.7845C20.1035 10.845 19.475 10.0519 18.5801 9.76274C18.1287 9.61645 17.8818 9.13303 18.027 8.68388C18.1744 8.2336 18.6532 7.98902 19.1058 8.13074Z" fill="white"/>
</svg>
