<svg width="24" height="24" viewBox="0 0 24 24" fill="none" xmlns="http://www.w3.org/2000/svg">
<path fill-rule="evenodd" clip-rule="evenodd" d="M16.5897 2C14.7488 2 13.2564 3.49238 13.2564 5.33333C13.2564 5.53427 13.2742 5.73104 13.3083 5.92217L8.45632 9.31854C8.43166 9.3358 8.40833 9.35424 8.38634 9.37373C7.82044 8.93074 7.10772 8.66667 6.33333 8.66667C4.49238 8.66667 3 10.1591 3 12C3 13.8409 4.49238 15.3333 6.33333 15.3333C7.10772 15.3333 7.82044 15.0692 8.38634 14.6263C8.40833 14.6457 8.43166 14.6642 8.45632 14.6814L13.3083 18.0778C13.2742 18.2689 13.2564 18.4657 13.2564 18.6667C13.2564 20.5076 14.7488 22 16.5897 22C18.4307 22 19.9231 20.5076 19.9231 18.6667C19.9231 16.8257 18.4307 15.3333 16.5897 15.3333C15.5099 15.3333 14.5501 15.8468 13.9409 16.6428L9.34673 13.4268C9.55189 12.9943 9.66667 12.5106 9.66667 12C9.66667 11.4894 9.55189 11.0057 9.34673 10.5732L13.9409 7.35723C14.5501 8.15325 15.5099 8.66667 16.5897 8.66667C18.4307 8.66667 19.9231 7.17429 19.9231 5.33333C19.9231 3.49238 18.4307 2 16.5897 2ZM14.7949 5.33333C14.7949 4.34205 15.5985 3.53846 16.5897 3.53846C17.581 3.53846 18.3846 4.34205 18.3846 5.33333C18.3846 6.32462 17.581 7.12821 16.5897 7.12821C15.5985 7.12821 14.7949 6.32462 14.7949 5.33333ZM6.33333 10.2051C5.34205 10.2051 4.53846 11.0087 4.53846 12C4.53846 12.9913 5.34205 13.7949 6.33333 13.7949C7.32462 13.7949 8.1282 12.9913 8.1282 12C8.1282 11.0087 7.32462 10.2051 6.33333 10.2051ZM16.5897 16.8718C15.5985 16.8718 14.7949 17.6754 14.7949 18.6667C14.7949 19.6579 15.5985 20.4615 16.5897 20.4615C17.581 20.4615 18.3846 19.6579 18.3846 18.6667C18.3846 17.6754 17.581 16.8718 16.5897 16.8718Z" fill="white"/>
</svg>
