<svg width="22" height="19" viewBox="0 0 22 19" fill="none" xmlns="http://www.w3.org/2000/svg">
<path fill-rule="evenodd" clip-rule="evenodd" d="M6.65116 15.1952C6.65116 14.7713 6.30756 14.4277 5.88372 14.4277H0.767442C0.343599 14.4277 0 14.7713 0 15.1952C0 15.619 0.343599 15.9626 0.767442 15.9626H5.88372C6.30756 15.9626 6.65116 15.619 6.65116 15.1952Z" fill="white"/>
<path fill-rule="evenodd" clip-rule="evenodd" d="M15.3489 3.93932C15.3489 3.51547 15.6925 3.17188 16.1163 3.17188H21.2326C21.6564 3.17188 22 3.51547 22 3.93932C22 4.36316 21.6564 4.70676 21.2326 4.70676H16.1163C15.6925 4.70676 15.3489 4.36316 15.3489 3.93932Z" fill="white"/>
<path fill-rule="evenodd" clip-rule="evenodd" d="M22 15.1952C22 14.7713 21.6564 14.4277 21.2326 14.4277H12.0233C11.5995 14.4277 11.2559 14.7713 11.2559 15.1952C11.2559 15.619 11.5995 15.9626 12.0233 15.9626H21.2326C21.6564 15.9626 22 15.619 22 15.1952Z" fill="white"/>
<path fill-rule="evenodd" clip-rule="evenodd" d="M0 3.93932C0 3.51547 0.343599 3.17188 0.767442 3.17188H9.97674C10.4006 3.17188 10.7442 3.51547 10.7442 3.93932C10.7442 4.36316 10.4006 4.70676 9.97674 4.70676H0.767442C0.343599 4.70676 0 4.36316 0 3.93932Z" fill="white"/>
<path fill-rule="evenodd" clip-rule="evenodd" d="M8.95342 12.7907C10.2249 12.7907 11.2557 13.8216 11.2557 15.0931C11.2557 16.3646 10.2249 17.3954 8.95342 17.3954C7.68188 17.3954 6.65109 16.3646 6.65109 15.0931C6.65109 13.8216 7.68188 12.7907 8.95342 12.7907ZM12.7906 15.0931C12.7906 12.9738 11.0727 11.2559 8.95342 11.2559C6.83419 11.2559 5.11621 12.9738 5.11621 15.0931C5.11621 17.2123 6.83419 18.9303 8.95342 18.9303C11.0727 18.9303 12.7906 17.2123 12.7906 15.0931Z" fill="white"/>
<path fill-rule="evenodd" clip-rule="evenodd" d="M13.0466 1.53488C11.7751 1.53488 10.7442 2.56567 10.7442 3.83721C10.7442 5.10875 11.7751 6.13954 13.0466 6.13954C14.3181 6.13954 15.3489 5.10875 15.3489 3.83721C15.3489 2.56567 14.3181 1.53488 13.0466 1.53488ZM9.20935 3.83721C9.20935 1.71797 10.9273 0 13.0466 0C15.1658 0 16.8838 1.71797 16.8838 3.83721C16.8838 5.95644 15.1658 7.67442 13.0466 7.67442C10.9273 7.67442 9.20935 5.95644 9.20935 3.83721Z" fill="white"/>
</svg>
