<svg width="22" height="20" viewBox="0 0 22 20" fill="none" xmlns="http://www.w3.org/2000/svg">
<path fill-rule="evenodd" clip-rule="evenodd" d="M21.833 7.29619C21.833 7.33252 21.8329 7.3692 21.8329 7.40625V14.4049C21.833 15.3653 21.833 16.1927 21.744 16.8554C21.6485 17.5655 21.4332 18.2462 20.8811 18.7983C20.3289 19.3505 19.6481 19.5658 18.938 19.6612C18.2755 19.7504 17.4479 19.7503 16.4875 19.7503H5.51165C4.55129 19.7503 3.72381 19.7504 3.06118 19.6612C2.35103 19.5658 1.67032 19.3505 1.11818 18.7983C0.566053 18.2462 0.35074 17.5655 0.255266 16.8554C0.166172 16.1927 0.166227 15.3653 0.166281 14.4049V7.40625C0.166281 7.3692 0.166248 7.33252 0.166205 7.29619C0.165728 6.79663 0.165317 6.36597 0.257736 5.98464C0.544429 4.80187 1.46792 3.87838 2.6507 3.59169C3.03201 3.49927 3.46268 3.49968 3.96224 3.50016C3.99856 3.5002 4.03524 3.50023 4.07229 3.50023C4.44744 3.50023 4.52297 3.49741 4.58397 3.48826C4.8311 3.45122 5.05782 3.32988 5.22574 3.1448C5.26718 3.09912 5.31143 3.03784 5.51952 2.72571L5.76489 2.35764C5.78969 2.32044 5.81424 2.28352 5.83858 2.24689C6.19364 1.71276 6.50683 1.24165 6.95126 0.906193C7.22011 0.703263 7.51889 0.543373 7.83687 0.432234C8.36251 0.248512 8.92824 0.249259 9.56957 0.250115C9.61355 0.25018 9.65797 0.250234 9.7026 0.250234H12.2966C12.3413 0.250234 12.3857 0.25018 12.4297 0.250115C13.071 0.249259 13.6367 0.248512 14.1624 0.432234C14.4803 0.543373 14.7791 0.703263 15.048 0.906193C15.4924 1.24165 15.8056 1.71277 16.1607 2.24689C16.1849 2.28352 16.2095 2.32045 16.2343 2.35764L16.4797 2.72571C16.6878 3.03784 16.732 3.09912 16.7735 3.1448C16.9414 3.32988 17.1682 3.45122 17.4153 3.48826C17.4763 3.49741 17.5518 3.50023 17.9269 3.50023C17.964 3.50023 18.0007 3.5002 18.037 3.50016C18.5365 3.49968 18.9673 3.49927 19.3485 3.59169C20.5313 3.87838 21.4548 4.80187 21.7415 5.98464C21.8339 6.36597 21.8334 6.79663 21.833 7.29619ZM6.66642 11.0836C6.66642 8.69041 8.60652 6.75027 10.9998 6.75027C13.393 6.75027 15.3331 8.69041 15.3331 11.0836C15.3331 13.4768 13.393 15.4169 10.9998 15.4169C8.60652 15.4169 6.66642 13.4768 6.66642 11.0836Z" fill="white"/>
</svg>
