<?xml version="1.0" standalone="no"?>
<!DOCTYPE svg PUBLIC "-//W3C//DTD SVG 20010904//EN"
 "http://www.w3.org/TR/2001/REC-SVG-20010904/DTD/svg10.dtd">
<svg version="1.0" xmlns="http://www.w3.org/2000/svg"
 width="84.000000pt" height="84.000000pt" viewBox="0 0 84.000000 84.000000"
 preserveAspectRatio="xMidYMid meet">

<g transform="translate(0.000000,84.000000) scale(0.100000,-0.100000)"
fill="#000000" stroke="none">
<path d="M239 801 c-58 -11 -102 -34 -128 -66 -40 -52 -46 -90 -46 -315 0
-198 2 -219 21 -261 40 -86 115 -119 271 -119 53 0 64 3 73 21 9 16 9 28 -1
50 -19 47 -15 128 9 175 49 96 151 143 250 115 54 -16 64 4 57 112 -12 188
-28 227 -111 267 -42 21 -65 24 -198 26 -83 2 -172 -1 -197 -5z m373 -58 c61
-24 80 -66 86 -191 l5 -107 -58 3 c-101 7 -200 -50 -248 -142 -22 -44 -29
-134 -13 -195 l8 -34 -83 7 c-94 8 -143 28 -173 68 -25 35 -38 190 -29 368 9
191 34 226 171 240 104 11 288 2 334 -17z"/>
<path d="M186 629 c-35 -28 -36 -80 -1 -114 24 -25 25 -25 218 -25 192 0 194
0 221 25 34 32 35 77 1 110 -24 25 -25 25 -218 25 -181 0 -196 -1 -221 -21z
m408 -35 c20 -19 20 -29 0 -48 -13 -13 -44 -16 -185 -16 -174 0 -209 6 -209
38 0 38 18 42 201 42 148 0 180 -3 193 -16z"/>
<path d="M594 350 c-75 -17 -124 -81 -124 -163 0 -116 134 -194 234 -135 54
32 78 68 83 125 11 111 -86 197 -193 173z m95 -55 c37 -19 65 -77 57 -120 -21
-108 -159 -136 -216 -43 -63 104 49 220 159 163z"/>
<path d="M584 254 c-4 -15 -3 -43 2 -63 9 -36 9 -36 64 -36 42 0 55 3 55 15 0
10 -12 16 -37 18 -36 3 -37 5 -40 45 -4 51 -33 65 -44 21z"/>
</g>
</svg>
